<mxfile host="app.diagrams.net" modified="2022-03-09T08:29:08.566Z" agent="5.0 (Windows NT 10.0; Win64; x64) AppleWebKit/537.36 (KHTML, like Gecko) Chrome/99.0.4844.51 Safari/537.36" etag="MnPG8cbur3shuC-7Gf2M" version="16.6.6" type="github">
  <diagram id="XizevSGcpa9rOXbu78dT" name="Page-1">
    <mxGraphModel dx="2012" dy="635" grid="1" gridSize="10" guides="1" tooltips="1" connect="1" arrows="1" fold="1" page="1" pageScale="1" pageWidth="827" pageHeight="1169" math="0" shadow="0">
      <root>
        <mxCell id="0" />
        <mxCell id="1" parent="0" />
        <mxCell id="6YRYrCio8crrVP9V9YGO-1" value="" style="shape=image;imageAspect=0;aspect=fixed;verticalLabelPosition=bottom;verticalAlign=top;image=data:image/png,iVBORw0KGgoAAAANSUhEUgAAAk0AAAFGCAIAAAD4tzxRAAAACXBIWXMAAA7EAAAOxAGVKw4bAAAAEXRFWHRTb2Z0d2FyZQBTbmlwYXN0ZV0Xzt0AACAASURBVHic7L13fFzFuf//zDnbe1/1anUXFctykbuNbXqMceBC4IaQG0LI5YaQEJJASPIlQBJCfgkhhSQXSEKusQlgjIG4ALbcLVuWiySrt5V2tbva3k6Z3x+rLtnateQm5v3SH6tz5jzzzJyZ+Uw756CioiIgEAgEAmGGQl1tBwgEAoFAuIwQnSMQCATCTIboHIFAIBBmMkTnCAQCgTCTITpHIBAIlwgWoJKFwu+towUYDxzBeNE60ZcXUgkCPJ0RYUwlKrVLTKYNCSrzdFr+PECbTKar7cOlgEWJX56z8O4ERb+jt4dHV9udK8q1lnasLHN/5RHX/CRBwylB5Or7QyBcGbTZgie/Jn5wgSAjwr5ZzfNooPDPXSV5aKXwxhIEFv50/zREhDGlWJuVcYtBlaWQJkr41j6fnVS0OLhedU5mLv1OukEjMygD5/d7+avtzhXlWks7X36/szKP1+dgx4eyTvZqu0MgXAnUecIXHxTNEeKPtod//AHnGexxIoTOn2ZPe3B+kXBVuUDVyR11TDkygz7ldo3Q7bH8vdXyodVLRC5OBFcmGiwv/PXCQqP1yL1nOicMoE5d8ac843B4HPjw2I7XPRe8nQFXd21Ilwv2oy4G4CrfdYzlmys23KHs+d3uqv3o0p2J0c6VSTvGQq7kC57KilCynge/wN4hOfyu6mA9hcfGSDVVS905QTgvbgpcDn/45U9Zbssf4ZhD+dtvatqmks9m3+MvupJOGh77pXQK9ysu2GU/6L2tgD7yC/OWGupKRToejCXf/NGih1L6nvzq6ffHuYGx+qcvlW5UjnPP2/3Vb9UfugxuX9yfaxasoL97nzCd5V/9XXCLBY0p9ojBJ6uYh1vwi4+Ibv+SsO658B7/1JKmlwgRMA12Ty931Zu765ErpHOTEvF17+3yRn9rNenF8knCo0Dzs1XN0Z+X17NrjyuQdowRt/J7vbfk4aBFUn9UgOVMRpF3Y1Ew6/fmNw6OaaaRdZf+x7suoz+WasXhnuhPLrMycB1OQGDtavf6Auw9qN1+NUUuBiLHD1tAAgDCkoXGTAjsP+zqA4BQf+/V9uzaAWNcul5UIcUn3g5vsVzwbrIW9tmd1GsbBV9Zz+7dxuGp3HeWxwCIvnQDn3OuFZ0L9jf+cXAiuyQ/eVKdI1xe6DLP2jzsqzb88tdSLwYALMjyPvq0u3iTb89BleWK+kI17tQ0DvwO3VV+3ekcxurgHZsDYp/8rb9JQteyyAFCwe1vNWwHwFj7s1JjJrj+8Xp9VbSBvqbl+cpC0WvmIvAzWw/yF+/bWQ+y+9YL1syli//FnZzK3pEgywPQ4mulub7umCTjhuYbv2mRP5CdXaQQU6y3vqfutebO3sH5K6ya+/vyXHF31Vfqh/t8Jfm3PpHMjZl75HhOq8uP2qEZ37neutebO3rHzYNdzB8s31yxYZNq+JK6hvef6QyNC0ZnJBTcmZaSJ5dJIezwu2u6zm6zOL1x1lWMZKXps7+QaEwSSxQU74/4Wu2tW5saG1gEABgbH1q+fJVoyGbSI2s3PzKRYxgLMs25X0hNzZXLFBTjDLhqOk9vtbh8KA47VzTtmuSIBKDuhMTDRxs4xLbI937ClOopKQ3Aw+Dsnzt52Kz4vYeNn7lHOZNwp/U7t7GnfpdYneG6aUlYJwV3t6R6m3r3KXrEDhqM9OF1X3JVFLEyoPoalDv+Klzwq755Vs0L31Xa4ioeQq50k3tZeThBx0NI0HNO9tlWRY2FGsjnIvdPnvQNTsohKHW89OaEzmMsZRfe6VlSFjRpAIVoa5O0aqvqSOvQUCzGdA0ELn/AWSBH517VnPRcmlpgJFp1a84jS/SZCnBZ+999u6GpcvHPSwN/+NGRl3sGXcJUTkXGN9eYyhIlMmCt3f0f7Wl55WiAGUj7mAlJ03N/Xv3c4D/VW/bfv5uJ1ZmkjB3PZCafOHPzIeWPNiYUGwRBl//k4ZbnP3BaR95TSrJyQ8aDC3UZOpFGgN3uYP0Zy8v/6jzpi88fjOmChWlfW2GalyhWU5ytz1P1aevLVV73UPsToz+Yzl+c/o2VptIkiYyP9Nq8B/a1vrLf249HhrlYHg5jpgsUwNTyJyeROQCOq26GNXPoeSY4aY0xgycixPMAQgmFMJ7SuPDzSmwdBGH6I7PVEpf9RFCcpTMWpy/8PhX+doNt7O2fDF6Y/kiRVuy2nwyKs3TGkvSKZCoUpx2mxda61wMAIFQkLNXIxofAmJqVueKpbK2E8zU4uu28MEVnXldoKlEf/F5dTyDmuDBGudlLvpOhZkKOWpvVxyOF3DAvufj7SvqHR+s7EQIINVk7xTQACFIMiWnC4Pkeu33w8m4/O+RPTubyH2ZrhRHXWUe3B0SpOtO6wjVzFfu+ez6a9pjsXMm0g6ef5oExp7M0CAd3utAnX9efHBkoIDz1qaITAACb5/kzdRe0plzmvDsZt9ZLrKpIboF/3eMR6f8zvdswKD+IXf9439pUCNskdc00bfLd+3VR/NNkGNPs6u/33ZTD+btl9UcRKNns+e775oS1PzF80oEQAnCLTh+WSQFAHMktYWROSc35oakgYW9k2M6GH1jXZuBQr6T+KI3VkZy53i/mRzTPGj9uRiPz8KLpGrAmr3DdUoZDZ/TbPr20GUuMceFt8166SSEIBY+fcdtp2e1fLWjsHhMG5W+Y97eNGrHff+xcrwOL8vOMX/2qvkRT/ZV/+ziEAJjak71SCQDQ2UXGXFm45lh/z+DlLT3x72ZSJv7sAYWosf+zHtHsAt3aW+blyE7c/n9udvCeFn9h7q/XyRmn6+BJh5tB6gTtksqcP6ZQ9zzb3hizPxijebcWv3qLSuT1Havr68eC7Fz93V/SL0o+uemfrtCoezGJP3NuLv7rbSpZOHiyzmphBbNy9Xffq1+WeXrTa3bvYJjJ8nAQNdICuDyYneyGIoSsbgyA9BqAqegcAgDAHJ5UWAkTEpPOUWrx+eqPtng5AKCEad9etKAspXBFq21XrF3AAUQaSf2Jj7eOtrOyxfbvmPfoIRSpbquuBgAAdeqKCdt6EKRuztRKmN5Xjx3cE+QBANOGBxcsX5s8Z0NHz9uB2P1VLTSrKa7nL4er9nHRmiCYl1W+QSlNl0JnCBDy7mk4smdgpJWYJnTtOnt4gv0jtPmGZDnra/zl8ZozUTu06aGKZStTC5a12PZwsdq5omlnjilqvhgqXW1/wKfZ8bGkx4cm8Mcr2f1nCQAA8MufuojO4RS55JXHlZ0RAMD6tfZv3x9acnP4/QZptDWjy73LU4Fp0P7qZwo7BwB8xt22h/Ji9nUQ6SLP2hzOuc/4qz9KgggAsHSu67Hv+NbdET74kiQCCHXJtr0sGxiJlrhk7Yo3fjvBPhTZUs/KDOw/aXjxJambBwCsqnQ+/lBg9abQvhekI8bPk6QLAGNZ6PZ7/Yqw5N2/yNyX2kAJjP+1RiGI9P/y/516zYYBQJ6d9cZj2tE+Gx+9SSN1WB7+af3+AAIALNM++1Tx7bdmrNt/ZmcIEAps+1vdtoF9H8ZcmWfLn85NZd+HIE14/MXDL7fxACAwJv3xqbyKlWnrt53ewUXPy28olQsi9qd/XLs9ei8wvfTW/LvTxXkGaHTE7I9Qd1ellOnu/J+fNx4auKfanz5dvHFFxi3v1WwNxuyPzPTNm1Qyv/3Hz57ZascAgKWqp39Q+sUl2V/62P5Kb0x5OIwYSwHc4ZgyKhjGAJREHG8GD4AxomQCWZlKDDjQERhfDQmxENNz4pS7fYdnQIt4pmO3LQxImTZRM3txaE/HznF2UqZ9KU5lmEWBz9YYbegBAHH2HS3Nx6y+cHzz2xQFAMAxgxPrCLG1rYdeqK2pimeVBfE9rxzY/uCRU1GRAwDE2U64WECyJGlc/sTANKUdoaBk64uaOhdXsNH+nVe6v/+M89YbwnrhJXrVfVDeMdgq2PcqGjmgE5ihZTZTWkQEqOFTed9A2UCtO+Vd8b/BIDUnLAJB7Z6oyAEACtYqam0gygmmxmMnbVZQAOjs7qjIAQDyVMnP+kCQFU6PJ10AuOBeV6kWtb2jrbIBAMZm77f/3vnit4M4nrUaszJbDGxdz9+sA/74mjp3dIwugenqOWLoOtEdbaABAAX63zoRALGmNC2OqGKH6rT+rXVA0xhbz/YGDJQ8yzwcgKYAeC4yEAQQ4qreP/uNlxt3OOKpO6zj+09UVf646dDwPe3f18wBJc0wjwo5iT+ZmtkCcNV0R0UOAFDQ8/oH3Xtq/EHFYJgrnocXB+en5P2wqPDpovzH89LKaN++dsuxOAcWhEFiavxYJuwf0Y9wMWEAhVwUd2QsExlvRxG/nUkQCMQAfcyohSurteZFK8Q56Hcd7fOtS0t5qGJFmcPe7nO3e+x13mC8s7UAgJFwljG9WKnQCelo+61VUQA0Ne2vo5m2tAOKtChefUyWsShQVhbKK/Qvv89fuU6+5QXtcWu8nUrkcQ9N2SHEoWAIQMJLBk8rlDwA5XWi4TBugTf+5/AkMh6Aytrg2jycfD5RBiDFcfXJRGIAEPhGLTTSPg+AiR9dVi+eLiya7dm0lGXbNG/tFMSzCD0WpUAD0O8OccNxMVbPaKWUCuQAkJP6k/uGZyBlKUIAWnV5tnRFPBH3sD/Y7WcBaNlwv82/pyb4H6vNP/mRcOUZT4PFd77VdbwzEoo/HzASzC1PqEyVmuUD1cWUhgAoevTmw0n8kVJSgG5vZOQlHYcaHz0Ew/XiiufhJPR7XSd5BBhJxJJMmXyuVlLj83muhifXP2QDzwVBCJ9r2vciM/u2xITFqcalCAEAE+rb3XDsDZuPj7mtx5TurrKlt6uEY5Zn4urTXxUQ4uj2KmV7lQLTfO7Nznvv9G/+uqj1GYVzeqOZ6NglZA5CAMCnL/KNGXVhJj6Jv8idjccOX36zV4uE+15X9HJT2qyIJop2TP5QAADazMSNmWOC8ehqvNoPIXx0W82j/syvLNKvW6m7CSEAiPQ7t22tf/5oMI66I1A++t3ir2YIxnat8GUY2cSehzzwEGthiHqO418ARVa39YOBzhbKTMy+R2de7PR9FMe6C2GI6dG5CzRK135LPgkIB6rbjh5vxWKxMk2hzdGmrU9LXD+7wn5oz46x+xwvSFJq6W0qga23+jfnO1ojbLSSl+Tf+kTyZfR8ekGIoxvf0++e3X17QaDYqNhrn/ya2OE4AODp4aKIMYWF8TfPGAOAYOdjCbvHr/jHIzMXKbbxFGgkECKE+Iz1rnvXDh4ThdVxWBiAwwyAaMT4BWM0doc5DwBw7t2Dmz8YXy6vzooO4kKf7Kjb+z6WqWU5Kcp5heZ7Vhr+48tFlrbjr/XFaiTrhrwHM+ju4/WP/5/1nJuL1p0V/1n58uLL4HHseRiBIIBSFlPGquUAgP0xNxcTu+ZkWACJRkj2W14aMbUmAqFYPqLya4RigIhvaA6AY0MAUpFEOPwmU0onFgIwIXaMHZFsnB3/qLmE6YBlwwBKoWTksYSEsu/NXXK7+lKUFyEUifianJ07m6p+0+EFSlukifWJTYxxtlJFgedAa0szM1BRMUYyweV55nOa0s4ufdT26NOenFHFA7ndCICTX0JTfVH67AIAnJTBDZUNKjucEL/OhQIUAFZM2b1IGADY0XY4hQogRMW29WAkfPpCf9mSwb9yVhF/I2UN9wJoUhVJw/mjKEwebSfI+gE0ymlfA5gqCKGgJ1h7zvbG1trHPwmAQFmeG+udxRgXpikoCOx433LGww/XHUn8ZSPIBwG0o/MnozL3D/89+79yB3M19jzsxT0AKjPSTdaTxxhnmhAAttjidnkUIkQBYIaI3CUSU4nh1Wk3qwbaZUqYtsYkBuzt8g+eDtibGKD0mTcpBsKIFLmrdQgiznPBMXYyblSOtdM5biDuYSMAQr3kUseaHnsTDwpTzhrpQOowbbg5M6PYKKXj0VQsSHuk4oZfzM42DU+iCVRCAQDnZ7nRYSM+BgBE49caEUL9kTCAPFcjR4O1QqrMWambsLxe0E6sTFPaKS9E0nI9q9ay1GDfhTYGF8zGEBZ1TfdT4p4aqYWDlA3OG8tZhZRTZYXuvCsomnh9Dvl9AHJeM9H2tc7z4giwc9eE5INPVlEp3kde7Xruh76xGu9DIQBQcMqJ4mhvlLKAi9YE1YN5qKr0FymAbRZ3xJEs6rOfpjx2z8i/5G89pu6Ov6fldhzswpCW9vxGQ46SVmgVG7+UvUw02k67+1QYkkqSVymG7pfsoSeWHvtt8X3aMTEyniAACLWquB2JHSw3Pf/MgnceSkodrju0QUED8D7/mCm8C/qDEHJ4IwCS4nzpUN2Rp6feEbNSDtPmOsOCpiR5s2GwbEjV929IqiyS0kPrsLHnoZs7ZQOUJlgxaZ9KJ6xMA7Bx1e7JQl4cKU0B8CFu8pCEiYhJS8L9ofyS9T/td1ixOEtnTBKCrfPcJ4PvVkTY9q+m3rKChLvKbyixOx1InqvXG6jwyca6M6OXnXkvM6d0/dx+hw2Ls3XGxKidyNhZgTZblzUtf37+qicMTtdApejfXdfcjBBWZDyYoo86LVTIASDBPPdr8ujt9x1qrK/lELCdb7XOystOeLDihqUOZx8vStWZ00XY1nXmw7jev8jYzgTnVZqLf6ZIOuMOBDGtlOvmaKR8sPWz0e8gR4g52+/idfo7y5YXeMIsAEC4pvXkviACgHpLS3ty0ez8tS+ZbU1hTixSF2j4+v4wGMZGeHE7VzLt6NTb6spCd959vT+slLb3UryUSS+I6CSo5U3VqQFDOGmlqzI7ahKbTQDAzL3HZY7KqU26/T1xbLtSEbLI39np/69bwmu/1Rud4et8R9WW7Z49QWDh6Wrhshv9d/wEFzbRA1LYJt+yS4gQBA+pdq0O37S474l0WXMHxYmZjKKwlhYe+VDmGpV2hPzixnbIynF948mIxQcAAF7ph69Jo6/HDVapPlkbXFti/+7PJedbaNBEcgoYaVj80duS4FWYBUQo8Jf/a1/93xmlN85750YAgGB765stmq/MGxEo0PebHa7yOxJe+qny2HmvnaFTZumKdVR7Vef7zjFp5w7Xe9kczde/U1zaGWEAANj9753fbouOlqS3fTFtvgQAhHNFAKC55/78GwAg1P+/W6ytsQ8mfP1H7Lk3l+b+8xnDkbaQn6c1CepF2WLO3v1e/ZjUXcyf4/stDUsyF961YMd8xxkHL9EqyzK4E40RmKhsXAy/7bcfpJTcZnj6RxU317t7GMGsPH2eErqrWv7eO5g/ceQh3nGY33grtfk2etcb3IXewIAxWnmLsJCG2oNsyxTHYRIBBcCGic5dIjHpHGLafnNG8+CszDK5GLGeUx11/9s06uHu3u6DTzOFd2ekFhlTcoDp83a901a7rc8/dvk93PJyu/qB7Iz5MjGw3pr2uteaJ3hInHWfe+EMuj8rNT8hU0ZFq5/lXF1zMwBIzSuTU4UjLtFq0ldpAAAwdnS31NdygBDf1PrpM8HCO9OS8/Sp2RB2BKwfN53dZnHG8aA0AEKhT85+ymfO2WDSFSeaJcD5IoH23rPbmxtOc2PttLcf+b2oZKNZNz9RQCOEccDddXJfEACA9dY/X83enZ0xW5mwUM06vLYPak81GlfPnyjSi9i5omnHXYrff19UebuvtCCcM58XspSjVfbRv1V7jwiG3jFhKPJXLBx5i/nMJb7MqD9N9EfviWNek6Batph+cTZUOi+sBIH1jPRIDXPPLRM71vqW4R+U+4YFweLlIKAAAOMT4i27hAAI8YI9z5n6N7mXlQfzywH76b565d7tqkP14x/QFuz5nUFxv3verECxBBDC2EHtf01qBwBAiBN8+KzRdadnSVm4sAJDWGCtVR7YpjrccrWeXgqeb/3iM66NC7WzVODqcb1X5Zj34KjNNgjhho9O3dOf8c01prJCswwzNlv/mx+1/+kzd/84nxt2nntKlfNfpeoV5bQAIcAhx97z2wcm1kTzFyaNeE2JfOlSOQCAFz7cYm2N2WGEmH/96QR3W+a9JZrKCr0ccS53uOF4y1/f6Tg4rvdzEX+Y9vaHXmL/5/akhcn6tWm8tcvxt9831ZaWr4rZk6H8Ob2j5j5n+jdWmUoKzbM5xtrn+Od7ra/s9w6pVFx5aNkX/mep5L4SyfPu0DM7uL7xL8Gh0OKbxd8uRqHOyMtVU368m+EwgEAnpnAcu3gIQ6CioqKLnB5471fv4XvPdl0xnwiE4H++YZ9j0Tz/hLKP1OoJuOXhFc8VB1556sgrVpI/VwespB97WHSTGflt7Cd7md8e4bmBFUQ8q0L04CrBfBMKWZnnXokc9E71HmFaZv56hk4DTKc34GD8x3o85L7HQ2wz3aQHQbiCYJzEGCng7ILpfYBhpoCxLNOMgA92Teu+V0JcIC/3q1+FX/iM9WoEN5eOepyvsFRYrsEnPg3/94vTIHIAgLhA3xvtfaeDWCNXzdPJtZNfQhgJeX6OcPXBWB5ee3do4MVhAi6hKJgAdM1+EUte5wcAgLFgxU3ZqwcWdJE6WbcsEezHez4l+XNVQQy/673Ino+ZeQkwcuns5Eeh+3o5SwhN4+3BHr/jvdbBL7aSux4fROcI1wIyZs4KX2r0iVoGea3SA2+rdh6myUTCAIKCkqSNGQgAgOe97sCJz5p/8a8+D8mfawA+hE+2DU96IYS62sj7lq8tJlmfIxAIBALhuuZqvBSIQCAQCIQrBdE5AoFAIMxkiM4RCAQCYSZDdI5AIBAIM5mxOidJlEwYjkAgEAiE6xEyniMQCATCTIboHIFAIBBmMkTnCAQCgTCTITpHIBAIhJkM0TkCgUAgzGSIzhEIBAJhJkN0Lg6wAJUsFH5vHS3A+Gr7QpgJYIwXrRN9eSGVIJjOEoUxQuY1dMU3hGueoI2krBI+71yv3yvAosQvFxYVgO2ts6eqmSvxanBttuB/viisNFLcudCLVyA+wucDbZrg3kLhHauYN7cwbzZPgyZhrKBXvCwqy6cohHGEbX+e65u6VQLhOoY2mUwj/xcoBayPvVrexI7MXPqddINGZlAGzu/38pc7OnWe8MUHRXOE+KPt4R9/wHl48tENwjSAEDp/mj3twflFwlXlAlUnd9Qx+VWToPuS5MZ1yPtJZOsj4d0v8w5SVgmfd67X8VzA1V0b0uWC/aiLudCnnjAWFqaX3JNiTpWIJRQCAGyv/tLJZibOr3ZhBf3d+4TpLP/q74JbLBN8OzGx8NFNmZpxsQfPHX1hrx0BAMaJS1d+tUSOsOPDPx06EkEIALBqzf2Vi6m211871z50lUBROD97frYhUSVETNht7ztxqOGolcEXiWh8dANH6KIbV98xS4hw3wd/OHKMHZHq2P0RKucsmDU/W29SCAQ867bajh86d6iXRYN2UG7pk+uThBP449z114MHAjPxA2nq1BV/yjMO/Ytx4MNjO173oHjDREEMPlnFPNyCX3xEdPuXhHXPhff4p5ZpujSEADf9k7PaEfkKGoFw/eocCjQ/W9Uc/XmhMDJT2eM5KaKQ/bjFEooe8nviHfphjEvXiyqk+MTb4S2WCeLCGPG+pnMdFIBAZ55jFnl6uppdGADcze7BQLRJKwUAAGVSIkBURgQqgxKgy2cbMiU1bNhYVq5F3j5Hc1MEyTVZKWnrNukUW/fvtmE0IiIAoLXmuQkir6WzaTCSEdEBAIAqrTxLEAiGZRKJUgnQP/JcbP7ITDffUVqqRr4+R3NPmFLpslJS190up948eGDwC596vVKA2b42S2dwdLaw/c0zUuQAIOLr3tvljf7WatKL5ZcYZiSshX12J/XaRsFX1rN7t3F4KlnHRjAAUPSlWyAQZhbXq87FQqZWJ4fwJ3Wf/NE5otWItwWh6DVzEfiZrQcn/kYwQtja8YEVAOO0lWvmmNm26lPb2wZiGQyvMGoReENuhTjRrIB2PwCATmFA4HP5AtFgmMpeUlyu5Vo/PfSPM34eADDSlS/6+kLN3HzNblv/cEQAgHHKitVzEyLNx2q3dw6naNSIrTg9DfkO1gUXl6gVijE6F4s/dF7l3FI117b/0JunfCwAYCp1xbL/nKOdl684cNQfzRyTRgbgq/2sdr93hqraeIL9jX8czM2S/OQJNSyWMGOwHmT3rResmUsX/4s7OZV1upAXAJBIPQUTBMKM4jrTOYzlmys2bFINN6l1De8/0xmaMLCYEgBwoSmuNprpAgUwtfzJiWVuBEKTVgzgdtjHnRGoDErgm3ubU9PnmbQi8DMY03qlBqDD4RkMpCvIFEGgvSoqcgCAsLOt+6w5Ak5mvEWzVgLgsl9oNUeYsDBfxnefO9Kjnl8iUioogBFNZyz+CEzzZonA3bzr1OB6LeI7O52hAjHQQ0MFmVFPQcjde72IHJYX/nphodF6+Fu9mgdnpedJhOGwt77n9OvtVicenIxVzf19ea64u+or9b1DF5bk3/pEMnehucfpgeOqm2HNHHqeCU5ap2An5OMBaLECY4yuk/tCIFxWrjOdA2BabK17PQAAQkXCUo1szGmMRfMz58yXAABoNQIAqih9/teGdMLf/ueOPi6uyq9GWgCXB7OTXqUyaAEiXqtvXEidwoDA67P29KWVGNXJ0NUGYNQrKAjbHUPLi7RIBBCiEMJ4aNrK3v7uB+0wgcCq9BqAkNc24dwgxvLCzEIxU1/b6fFL/ABKuRQgEJ8/Rk0CBWGL0zIy9pbaX/yhdtgfSmlUA/R6eybJmYuCk5beuCRzolk2ruvA32ssKMYwcSDMeLhQLXTZq32SWXpjRfbSNMGnjzfa4ysY0w1CyOrGAEivAZiKzlGIAsD8dbCbjEC4MlxnOodQpLqtuhoAANSpK8brHIAwy5S5anjAR6ebs9IH/8H2/r929HFxRSnGUgB3ePKAUqVJjpDVP3YTN8aUQakB6HC5OnEQUjQpctzqB9vhvQAAIABJREFUo0xaCYBzxIDM2drFz05NWrvM7j1osV18s4xIaVIA9Pou0ByqFs7V0Z6Wwy0syCN+AK1CMqxzsfiDsdCgUgN0290TxxBFq9RTwMuMq1YrRx7uP1+3v5ONWTP0+SULygXj0osxK6z/e40l5jAxQ6nFdcc/esvHAQAtyX5yYcnstLxFzfaqq/2kWTCMASiJ+BIvx5gCaQpdvAwBw3XWkMEcgRDlOtO5SUHIv/Xotq0AcKG5pstW+Q0KPcYhp9c5bvhl1MkpiDicjC3oioA5MZGGRoVJh8DntUaG/InU7K1JvW1u8dzShwuLert66xvajzZ6AhNuSdDLdQDhfq9n/FAPYzors1iDO/e3dWKEAkEfhmSZhAYY2oITiz8JegWCSF9/+IKztRgjnUKHEK01lWpHHufqOs7EkW/o9Ks/+86rFzoZe5jYobztO71stCSwwdb9juLZJkWyDMAfr6VrBZzzU9mta6PChhkLe+i7bE3PJeQMgTAjmWk6d7XAWKJTKgEs/d5x56iBtTQn8JTLCkkJZgW0qgxKgG7/8OZGhLC3d/s/HEdnpc6bZc5JTV2enragqP7v25stY+bTMBYalGoAi8M3kSvi4nmJ8nDvh2eDAAi4sDcESC5RAgwOzWLxR2DWigFcfRd9wlhnUApxuPrdXe93jRXja7qFZcPhobllhHgPwwAIJdf1/kTXceZ0CAECsRmllwkKbuJOH8TjiyKB8LmE6Nxk8MBDLO22SScHYB3OwLjACqOOgoDXFkIIuy0+qDBqZTqJHoGv3zs2NGZ6G1t6G1s+Fsrnr1t0Y0buutmW/z01dp+NWadAwNidwQkc06fPT6H5fiq5Ij8JAECYgADkEs2wzsXij8qoBQh6+oIXG/4aNVIAj8M5ad4QYmNgQBb/aw9Q33vsv98b+J3+JLXpNtGCd0N7jk+vewTCdQrRucmIQBBAKZtM6IRmrRjA0zd+syWtNCgBLNHn0twWO4ZEdaqGVgF0D2+2HAfjP37CsiQjI8GkBhijcwJjdEA2Pi5MZZWkmRFCuoTFuhHHebFiaHtLLP6IlQYFQl2+3nExjEBu0tEQ9tun+JzcVdiHMqlLFzh8udfv1HIAwP6Jtw/HCt9v4QFoVSLZb0kgRCE6Nxm9uAcgz4x0GDsv0mqoDDoAxts3foe9XmlAEOj3+QAQcF02L2RospNY4dDmRoyNxfNvzRW1HDi41zJ4OcaURCgGCIUi4+MyagHCE222lCZV5Ij5zjMvvdvuH7STe8P6u/Ik6qEdl5P6AwAamRpjLhjyDQ0YMTYvXvbleeKm3Xu3NvEIACilQQ3gGDH1eolc8X0ok8CxIQCtSCLEOLobCGNKJxYCBKf6jMpFwRhnmhAAb5lijoqkFACwYSJyBEIUonOT4eZO2SA/TbBCzfzrwsMvqdIoQ8g6bgCEMaVXagG6okMlhPp7XUFImZUeAfAPbbbEUnmyWSHN0R+wOCMAgDGSGdcsTJDgwIn6cftaRArjhJstMdbNSc8WsE3nun0jrvGGIgAShQIgEKs/wPEcQrRJl073tHMIYUzrM9fOVoqY7tNt3KAWKg00MP2+C2dKbFz5fSiTELA3MZCsz7xJ0fGunwcAkSJ3tQ5BxHkuODash40ASPQSAXguuI03ljAAADphZRqAjat2Ty1NEiUA4BBZnSMQBrjOdA4rMh5M0UedFirkAJBgnvs1ebT58B1qrK/lprnVQwjvOMxvvJXafBu96w1uzHBNnbhmvkEKACJ1IgBI9EtXyxBAsKN5V2MgGtKgk1MQsfdHBhqvXk8PUFlqKfJZbdHNjQjZ6zo7igvS5lR8M8nRYQ9xInlSilYnjHQcOvFZ3/gBokIPEO73jW0Oaf2CIjUV6jrRNOqVn/5gBECpUgDYYvMHAOzdZ/qyVhoy7rlH09Lj5yTKlFSVCvuOfXCunh0Y4iCdQgfA61NuXj3qTeAAvtOftrRe3WfRpgLCtn819ZYVJNxVfkOJ3elA8ly93kCFTzbWncFjE9Vm67Km5c/PX/WEwekaWFfr313X3Dwi+bGEwRitvEVYSEPtQbZlilknlgMAH5lq/4NAmDFcZzoHUvPK5FThiIZAq0lfpQEAwNjR3VJfG9/DcTFh2Rf+Z6nkvhLJ8+7QMzu4Pn5oKk+Ykrqo0Dj8DT+1sUwNgHG3s3HwEG3SykatpYX7ezyQpQboHzEgc7W8+S92dUV6ToI2T4eYUMjR1fbvk01HLZGxexIwFuqVaoAep3fMcdGszHkK8NR2NvKjGkqfP4xBrVCIAJhY/QFf1fZj/JLcknTVrFw1FwpaW5p3H2067RzuRmj0ChFCyJhQaoRRhDrr91y3Ihelt/vg00zh3RmpRcaUHGD6vF3vtNVu6/OPfyiFdZ974Qy6Pys1PyFTFn1XOLacq2tujicMptDim8XfLkahzsjLVZO+d2cymBACoLUZGJ8hU5cEAgCgoqKikf9LEiWhnqmtg89EsJJ+7GHRTWbkt7Gf7GV+e4S/fscrhGsHjPGsCtGDqwTzTShkZZ57JXLQO9Vyhaky4QO/EapZ3H2Eczr4k89zfaSsEj7XXK/fn7vCoAg+dJTvFUFBjqBUiv95nOgcYXqovFWyMQGf2B/56RvM6dA0FCqEe3DjOSxNpcyFdEoB7vhf3knKKuFzDRnPxQclQfMSoLaV6BxhGsAYp2bSfC9nmQ6FIxAIE3K9rc9dbfgQPtl2GV8eRvhcgRDqapvyghyBQLgo1ORBCAQCgUC4biE6RyAQCISZDNE5AoFAIMxkiM4RCAQCYSZDdI5AIBAIM5lrXecoc/7VdoFAIBAI1zHXus4RCAQCgTAViM4RCAQCYSZDdI5AIBAIMxmicwQCgUCYyRCdIxAIBMJMhugcgUAgEGYyROcIhEnAtEBWbEpcpkAYX21fCDMBjJF8WYqhWCagp7NEYYwoWbHKfJMhbZNSSsrqMOR7BYQrARYlfrmwqABsb509Vc1cT6/np9P05ltMah3NN3b2XpIFrCxz37sxhOs0//ibZMqfUSXMDOgklXG5RrfEY3+/29nBTd0gxlJ58tcTElNpCmHMeN1bvcGpW50hEJ0jXAlkhpwNBi2Adr3xXLXluvmQL52VkLZZL+ZCzg97HDV+fEnfY+LnrvXlZABk+Oe8LTlI2h4CIITd2xrZYoN5pc70H5mCt1ptLVOWOnGlISmVCp/qbXrbF/JgTHpUwxCdm1FgeeGvFxYarUfuPdN5tX0ZRcDVXRvS5YL9qIu5kp9bWzJ74zfNvncOf7zFH3ekWKZK3KgXcwHb621OGx7jNsZCruQLnsqKULKeB7/A3iE5/K7qYD01rn2hmqql7pwgnBc3BS5H2vnlT1luG35tEMYO5W+/qWm79IgwNvsef9GVdNLw2C+lV+pTi+yyH/TeVkAf+YV5Sw01rZGqU1f8Kc849C/GgQ+P7Xjdc5VlALFM4HhPW0ck7f4E3cbk4Cvt3sDUXJIkCAEY12feoJd80XAMROcIVwIUaH62qjn68yq7EhsYI/nyRIWED3zU6bSNXerAGHErv9d7Sx4OWiT1RwVYzmQUeTcWBbN+b37j4JhmGll36X+8K/rzsvhqqVYc7on+5DIrA6bLEsllBWtXu9cXYO9B7fZpFjkAiPi693Z5o7+1mvRi+fSanxLY5uj+RJm9XmlaJvN8GEBTSTtmeIApWZi5EJ0jECaCkikLBBDst1dPNAClyzxr87Cv2vDLX0u9GACwIMv76NPu4k2+PQdVlivraeNOTePA79Bd5dedzmGsDt6xOSD2yd/6myQ0/c10sL/xj/0Dv0vyk68pnQMA5kSfZ4Vcna+RfxwITGXvCBfgAWhaNm2ezSCIzk0VjGSl6bO/kGhMEksUFO+P+FrtrVubGhtYBAAYi9aV3PyAnt1X8/4rjuFSjFTFr5TPUjtOPnSyyYPQ4Hzj4W/1ah6clZ4nEYbD3vqe06+3W50j5sEwpjMSCu5MS8mTy6QQdvjdNV1nt1mc3rGdOGw0zL6QHYxldyy4cbOy+7dVbVmFs5dqlDIIdTs73m08eyiIR8QlmJU0e1NqUq5MKkVMv995rOP0lh5XcDCuWHzGWL65YsMm1bB7dQ3vP9MZGuUrnfX0itLZ4/qhmO/67Z6DB4aiw1SauXBzWkq+QiYFxuHrO9R+ZpvNy464ECN5ZXbxFxKMCULs8Vl3NdX0XvIOSYNMJgNc7wvyEw3DNMkRCUDdCYmHB4QAALEt8r2fMKV6SkoD8DA4++dOHr5Y/N7Dxs/co9KYcKf1O7exp36XWJ3humlJWCcFd7ekept69ymaH5kufXjdl1wVRawMqL4G5Y6/Chf8qm+eVfPCd5W2OIQBYyFXusm9rDycoOMhJOg5J/tsq6LGEh1CYVzk/smTPuWAQQSljpfenNB5jKXswjs9S8qCJg2gEG1tklZtVR1pHRqKxZiugcDlDzgL5Ojcq5qTHrik4UjM9WJSO4JMc+4XUlNz5TIFxTgDrprO01stLt+oMnax+h57mGE4n68dq/NkMj0E7JeQ+kHYIA8gpGUYYzKqGwNtMo3q/gmUAtZ3DW0TQAoD9k/l5l9eMEa52St+kGVWcp6zDtt5j9eNFEWmtKU6vrrb7kEIIa4Ha9ebNEng2Wlz8wMNCi7MmL9eTZ9qO7bHxwMAiIzrU4zyiCA7xSzx2hv9rEqpzzOklVK23Y4AHriKmpW58kf5qWmCSJvD1uhnZEpzWULGQrHrsz4vEy3ZI+xIo3ZU+jz9KDsAwsLknCIxI1dmzxa661weN6WYpU1YaFJ2Wrq6+WhcKCd75Y9yk5PpUJPD2hhgVUpzSUL6POj9tD+Ex8V1IZ8BkFQkCgf6Wz39Xbw4XSK0O85/6hlTwGiVCDs8/a1Df0GUIBcLeHdVW5dlMO0Z6ct/WpCWQoeaHLamAKtSJS5Iyijkeva5QkP5Myd31eNpeiX21Tns3bxsQXqijJGkyNj6ruaz8W7yTNAY50j5VqezeaLqwJhDq8tYgUN24BQ9KOpU7ynZyUOi/iFlpbBcQTnaRF1tQkbNaKWChg/k7eFRdhRF/iX5fEDKLCrkLQ0iW4BPzAnlLw5Jzsnq7WggXYhd/5RtbQEP/ZKGOlFYF1xeyjN6RuuXHNglHr3uyM6+JZDMiY9+KHGNkxNMs6t/0LdpYUTgkjaeE9kDOKXYX76MidTIWt0IIQAxNiiQvUvY24dVCZzQKak5Je7tEvZ2CXu7xA3HxQ52wM6Gp623ljEij+T8WXFfiE+ZHSyujMAZWZNzoIWNIV0DXskrXA/cHuHP6F/9uyh8aSIXQ70YJNGQV6nCTZbzp8bFhTGVk7ni6fy0VCrY5LS3BBi50lSWkF0usO91+Adr7iT1PcYwI0EI0alaTbIgct7u65+CPtHZGnMOFah19luIzo2BjOemiGqhWU1xPX85XLWPi5Zywbys8g1KaboUouMWv63lGJNUaUyrEHRWDWyqMi4xSYHrOWCLjBwsUGpx3fGP3vJxAEBLsp9cWDI7LW9Rs70q2nIKUjdnaiVM76vHDu4J8gCAacODC5avTZ6zoaPn7QCMsCNpqP7o/7wcANDSWT+sKC4YaScK0mr9+x9rsAUQwli0ePbaRxNSv5B85mi7HwBAkL45XSuK9PzhyMFPIxgAKGHatxctKMuYs6xj/yfcyLgu5jNCkeq26moAAFCnrliqmWBSBWH7jvrhrgxGqk1lqyQQPtVw+vjQUUHKXVl6UbDt+SPHTkXzmTY9XLFseVbRou6DB6L+CDM2pigQY3nl0KH9DAYAkbLgh6VGuDREFAXAMPzEZ5ljipovhkpX2x/waXZ8LOnxjW9ZEPJKdv9ZAgAA/PKn/Jm6C0WFU+SSVx5XdkYAAOvX2r99f2jJzeH3G6TRyOly7/JUYBq0v/qZws4BAJ9xt+2hvLhTJF3kWZvDOfcZf/VHSRABAJbOdT32Hd+6O8IHX5JEAKEu2baXZQMj0RKXrF3xxm8n2IciW+pZmYH9Jw0vviR18wCAVZXOxx8KrN4U2veCdMRYfZJ0AWAsC91+r18Rlrz7F5n7UpvmmOvFJNDmG5LlrK/xl8drzgyWsYcqlq1MLVjWYtszUOYnr++xhRkFZngAARJdYgZgjCiBQWqeKwI24G0mIjce8pz4FKEoAACOGZQQhNja1kMv1NZUDa008NZPrUGgEypNAwWZ1qXMF0Owr/3w6KEC5W3f6R04xAZb9zswIEXykDSoDLMo8Nkao5UZABBn39HSfMzqCwvG2vlgcMzEBlo+G2NnAPf+TlsgOueGIgc7u10AaUrtwEm1PosCX19TVOQAgGc6dtvCQGlz1fH4HCcYC+fnLb5DTfd0Hvm1ZcQ+fpV+Fg02W3NU5AAAcbZdNi/Q+jzF4MVyVTICr615/+DNCHuaDnkuSwlHKCjZ+qKmzsUVbLR/55Xu7z/jvPWGsF54iea6D8o7Bsd59r2KRg7oBGZonsWUFhEBavhU3jeQz6h1p7wr/nSl5oRFIKjdExU5AEDBWkWtDUQ5wdR47KTNCgoAnd0dFTkAQJ4q+VkfCLLC6fGkCwAX3Osq1aK2d7RVNgDA2Oz99t87X/x2MK7Z5pjrxcVBfM8rB7Y/eOTUmRFl7ISLBSRLkg6FiqG+xxRmesDq+7Lnv5S74KVZpT9INsl83X+x2pzTG8XMgIznpojraJ9vXVrKQxUryhz2dp+73WOv8wZHzpYghE93d1hT8uaa01SWJjfAbFOyGiJVVsuYSRU2HB5aCUCI9zAMgFBCD54WCMQAfcyoDqHVWvOiFcasILHhkHeEHfcYOwOEXSMthWwHrVKjN0xhzCMEFC0ZF5eLCQMoRKMb2El8jgeMUWLywm8kK0KOmp83WoMjM4cWSgFAk/u1/OGugUQhAhDKh8RFJJaP9hkhxnOhAdmUQZEWxauPyTIWBcrKQnmF/uX3+SvXybe8oD1ujbdDjTxuajgPORQMAUh4yeBphZIHoLxONBzGLfDGv7ggkfEAVNYG1+bhLOITZQBSHFe/RCQGAIFv1EIj7fMAmPjRI5KLpwuLZns2LWXZNs1bOwVTedgr5noxKRgJZxnTi5UKnZCOFnOtigKgqeEyP3l9jy3MNBE57+6LUACI1oqVOXL9Aq+9zs9MfzzXO0TnpgRC+FzTvheZ2bclJixONS5FCACYUN/uhmNv2Hz8UMn2tuz35m3SpS0TN73PmBeZpBBp3efgrp1N9ihieeOMBQAGNgJcuE5evkkRqabo8TyzJND68zONPWMaPoQAQKVJW6UZdRhj7nL5g3mASe4PQhzdXqVsr1Jgms+92Xnvnf7NXxe1PqOY3i71RD6gS9hegxAA8OmLfGNGXZiJrxheJMfjscOX3+zVIuG+1xW93GUsVTGDKd1dZUtvVwnHPNgwcmwZS32PtU0YSfRY/PcUBQ/b2w8P/FZuzshbZEw46O9sitvQTIfo3FRBOFDddvR4KxaLlWkKbY42bX1a4vrZFfZDe3YMdjER8n/SY9+Ya1iSqNjpTZ0vAmdn++kJN/JdI1x44ugyveIRi1K/MSc/BTv+fupkzfhtaRgDQEvjziejy4ejuDyZGME8AB3byBQhjm58T797dvftBYFio2LvtO6c4jgA4OnhqooxhYXxz1tiDACCnY8l7LaOOxdPHl6kBMRTNpBAiBDiM9a77l07eEwUVl/skstKUmrpbSqBrbf6N+c7WiNsVJBK8m99InlUsJjqewxhRkJJBAAcH57gVOzwYScDIBHrEW68tBf3zGDI+tz0gBCKRHxNzs6dTVW/6fACpS3SjGoi7Za2MzxkmtNWGhOU4D/U0xd3WWTZMIBSKBl5LCGh7Htzl9yunm7x4bnQuLg0QjEAE74ME4EYqTbNLSsXBarOHNgRmCgCjgkCKEWSCU4NwYYDAIoRPmMsUF2CHkTpi0QAaIOEnqhZZ5c+anv0aU/OKOPI7UYAnHy6m+o+uwAAJ2VwQ55Q2eGE+NMVClAAWDFl9yJhAGBH2+EUKoAQFX9Lzacv9JctGfwrZxXxN9DTUS8wxtlKFQWeA60tzQw3tLtSJpi4ozNpfY8xDABgTIsNNAATmWLviBJSAJiPEJEbD9G5KYEFaY9U3PCL2dmm4YkkgUooAOD87OgX1rEdn/UxoMy6wyiFQOc+T/yReexNPChMOWukA3cN04abMzOKjVI6MqVUTIDb0cyDwjhrhWhw07wwbY1JDLzzvPviV8YNxsLyvMV3qKGp5dAf+i7QUnrsjRwYzNnzBQP5jJFyY9ltr69YvkE0mPM+TzcGpSl7qXDAZ5EyZ+kl9wC83oADIEmlUk5wkvJCJC3Xs2otSw36QxuDC2ZjCIu6pvspcU+N1MJBygbnjeWsQsqpskJ33hUUTbw+h/w+ADmvEU9wrvO8OALs3DUh+eBTblSK95FXu577oW9sLvlQCAAU3ERph/ZGKQu4aE1QPVgOVZX+IgWwzeKOOJJFffbTlMfuGfmX/K3H1N0T3y9J7qav/OjlJ370/TW50rHn4qkXHjYCINRLxs5jIYT6I2EAea5GPvRVCqkyZ6Vu9BxmDPU9jjYhilqjSgZw+PzeCZMeM7SMAuC52DeYfo4g85ZTg7GdCc6rNBf/TJF0xh0IYlop183RSPlg62f9owIixB+2dP2nOVMvQW3N7e2X0OdiO99qnZWXnfBgxQ1LHc4+XpSqM6eLsK3rzIfT/t5EtuOttuyCrMSvLbphmaPfCZJsnSlRyLY0n9vPxhEXVmQ8mKKPFjKhQg4ACea5X5NHa7vvUGN9LYdAmfelZAXFuV2SrK8UZI24OlzbdvpQdIsa2/V/LbMKc9IeW6Q+1+928QKT1pQroXq7G6rCg/5E2t7uyv1BatLXF61d7nR5kDxPiy1eDKOX9GIEoYjrREC3VqZbq3L/yzNmWQWdeltdWejOu6/3h5XS9l6KlzLpBRGdBLW8qTo1cDNw0kpXZfbAyovZBADM3Htc5mjTa5Nuf08c2+47hCzyd3b6/+uW8Npv9UZn+DrfUbVlu2dPEFh4ulq47Eb/HT/BhU30gBS2ybfsEiIEwUOqXavDNy3ueyJd1txBcWImoyispYVHPpS5Rt1ThPzixnbIynF948mIxQcAAF7ph69J7QgAIFil+mRtcG2J/bs/l5xvoUETySlgpGHxR29LgpdrFjl9/rJkpRggs7Qsd/f5U6POxVMv2mxd1rT8+fmrnjA4XQMTB/2765qbEaq3tLQnF83OX/uS2dYU5sQidYGGr+8Pg2HE9bHU95jbBADAmFauNkgpHKjuj0xxHCaQUAAcN9HE6OceonNTAqHQJ2c/5TPnbDDpihPNEuB8kUB779ntzQ2nubGllnV0nmAylwudh3o9l9AeIMQ3tX76TLDwzrTkPH1qNoQdAevHTWe3WZyB6Z6pQIhvavnsx6HZm1KT8owp+cD1+3s+On9uS48zvo0fUvPK5FThiEu0mvToXhKMHd0t9bUcAEUJAZBAU54ySpEwDoQspw+Fov7g9vbPngoVbk5LyTek5EPE4bd/1Fr/TnffyJ2lpxv3v8wXfyHRWGCUegP2T8+e6EzcMOdSMyFyrNs+O9tYlJLm7eza62VHvMgD4S7F778vqrzdV1oQzpnPC1nK0Sr76N+qvUcEQ8EMRf6KhSN3WPCZS3yZ0aQ10R+9J465RaJatph+cTZUOi+sBIH1jPRIDXPPLROGRK1vGf5BuW9YECxeDgIKADA+Id6ySwiAEC/Y85ypf5N7WXkwvxywn+6rV+7drjpUP/6VkoI9vzMo7nfPmxUolgBCGDuo/a9J7QAACHGCD581uu70LCkLF1ZgCAustcoD21SHWy7fk1sdJw/15FUaoKfm5NhNFnHVC9Z97oUz6P6s1PyETBkVnZy0nKtrbgZgvfXPV7N3Z2fMViYsVLMOr+2D2lONxtXzR8U1eX2PvU3AlECxKi25SMD3WHuPR6baR+AZABCIzQi3kanLMaCioqKR/0sSJaGea6hHQJnzeWv91fZiesDS/F8snp3iPvWNY+f7SUG8HsAKRcK9qVoDxTt87gNW26ngNdKCBP/zDfsci+b5J5R914Q/hLjAGInnmU1LNAo9zdud3X+3+H1TvY8YZRuLHtZIONZbHwx5Arat3iApGwOQ9bkrR1ZSWhrgc5ZOInLXC8jn6/1zc/cRH6dSaOeMWxm6SmCcxBgp4OwC8kzwdYt0jl6h4vyHO9v+PA0iBwAINzsa/uRwdPLiWQpDhexS364yIyHzllcIjPUrE1TA9x6wXrZFDMJlALER765232dC6dX7DgDG8vDau0MDLw4TcAlFwQSga/aL4lkrJVxTBD5rbbIF2cjY7xpOBcw09Lc2DC4CkpIxDNG5K4RAl7FIAiFbxyHSNl2H4AgT6LqcD8lPgoyZs8KXigAA8wzyWqUH3lbtPEyTiYHrE4Qw00U2Rl45yPocgUAgEGYyZH2OQCAQCDMZonMEAoFAmMkQnSMQCATCTIboHIFAIBBmMkTn4kMsS7naLhAIBAIhDojOEQgEAmEmQ3SOQCAQCDMZonMEAoFAmMkQnSMQCATCTIboHIFAIBBmMkTnCAQCgTCTITpHmDYwnUjNeUi4eCnG+Gr7QpgJYCykFj8jmLMA0dNZojDGvDEtVDwvsLQ8pCdldeZDvlcwM8GixC8XFhWA7a2zp6qZK/FWe5Ryn3DdA0KtFDf/LHIF4iN8LkDIfINo8QZ+wT724+fYrmn44B7GAnbRGs9cPaYQxpyk66jEMXWrhGsaonMzE5khZ4NBC6BdbzxXbWEvd3Qo43HhbZtorimy6//jzh5F5HsxhOkAoQj7/h246AHR0luEd6Sgdx9m2vsnv+ziqPN8c/W8v0P58TGRI0hhUlZnPkTnZiYBV3dtSJcL9qMu5kLfu8NYWJheck+KOVUillAIALC9+ksnm5k4VQrLNohu3kRztZEt3+D6JogusfDRTZmacbHLhp0uAAAgAElEQVQHzx19Ya8dAQDGiUtXfrVEjrDjwz8dOhJBCACwas39lYupttdfO9c+dJVAUTg/e362IVElREzYbe87cajhqJXBF4lofHQDR+iiG1ffMUuIcN8HfzhyjB2R6tj9ESrnLJg1P1tvUggEPOu22o4fOneol0WDdlBu6ZPrk4QT+OPc9deDBwIzsUOgTl3xpzzj0L8YBz48tuN1D4o3TBTE9vCnng1aOsVffFhw8/e5vz7OB6eWaToNi4BurZPYQ+RTkJ8TiM7NTFCg+dmq5ujPC4WRmcoez0kRhezHLZaBTw76PXycEWFM0YsfpsUhbvdTXB8zUQDE+5rOdVAAAp15jlnk6elqdmEAcDe7BwPRJq0UAACUSYkAURkRqAxKgC6fbciU1LBhY1m5Fnn7HM1NESTXZKWkrdukU2zdv9uG0YiIAIDWmucmiLyWzqbBSEZEBwAAqrTyLEEgGJZJJEolwKhhQmz+yEw331Faqka+PkdzT5hS6bJSUtfdLqfePHjAMyBger1SgNm+NktncHS2sP3NM1LkACDi697b5Y3+1mrSi+WXGGYkqO8NZn8FvWapaHFpcPeJKU0YsCwFANTMzHzChBCd+/ySqdXJIfxJ3Sd/dI6o8/G2INQCKscIoZ1sbe+EmooQtnZ8YAXAOG3lmjlmtq361Pa2gVgGwyuMWgTekFshTjQroN0PAKBTGBD4XL5ANBimspcUl2u51k8P/eOMnwcAjHTli76+UDM3X7Pb1j8cEQBgnLJi9dyESPOx2u2dwykaNWIrTk9DvoN1wcUlaoVijM7F4g+dVzm3VM217T/05ikfCwCYSl2x7D/naOflKw4c9Uczx6SRAfhqP6vd752hqjaeYH/jHwdzsyQ/eUINiyXMGPjTb7KVZYKcDfTeE/xU9o6EwwgAi8RTMEG4ziA6N6PAWL65YsMm1XCTWtfw/jOdE38gXkwJALjQFBfvdPMoGcD5I5ifbBJIaNKKAdwO+7gzApVBCXxzb3Nq+jyTVgR+BmNar9QAdDg8QxEVZIog0F4VFTkAQNjZ1n3WHAHn+GGkwKyVALjsF9phIExYmC/ju88d6VHPLxEpFRTAiKYzFn8EpnmzROBu3hUVOQBAfGenM1QgBpoeNCQz6ikIuXuvF5HD8sJfLyw0Wg9/q1fz4Kz0PIkwHPbW95x+vd3qHFzHwqq5vy/PFXdXfaW+d+jCkvxbn0jmLjT3OD1wR/jOCOTMoXTAT2XnSIhBAJxQhDEmC8mfE4jOzTCYFlvrXg8AgFCRsFQjG3MaY9H8zDnzJQAAWo0AgCpKn/+1IZ3wt/+5o4+Lq/IrDBQA9tvwpFepDFqAiNfqGxdSpzAg8PqsPX1pJUZ1MnS1ARj1CgrCdsfQeh8tEgGEKIQwHorL3v7uB+0wgcCq9BqAkNc24dwgxvLCzEIxU1/b6fFL/ABKuRQgEJ8/Rk0CBWGL0zIy9pbaX/yhdtgfSmlUA/R6eybJmYuCk5beuCSTnuAM13Xg7zUWFGOYOBBmPFyoFrrs1T7JLL2xIntpmuDTxxvt8RWM6QYhFvtcADqkBJiKzkUTwcc7Q0+4jiE6N6NAKFLdVl0NAADq1BXjdQ5AmGXKXDU84KPTzVnpg/9ge/9fO/q4uKIUSRAAZoKTBpQqTXKErP6+MccxpgxKDUCHy/X/t3fn8XGc533Af+/MntjZ+8INEARBEOABgLcokZRIiZIsS4pkK4rdxHGTNLGTOLWtxnX6cdK4/aSxndRp07iu7SaWKymOpVgybd0URYmXCEq8CYLEfS0WwGIX2PuaefsHiHMBcCGCBLB8vn/oI84OZp5dYOe377zPzPbwGIotxQbeERZcVh3gnzIg83f0KutLCu/f7Qud8AzO3yyjMbokwBsemP1h046NNjHY/kF7GoZkBLBKusmcy6YeztUOkxno843OvocxVqNdgJLnvG+fceriwLUrR3vSWWeGvbp+21ZVxvPlPK1ufu6cJ+t1siaYtVc+fONnYRmAqFv99R3160vX7mzzHVvyK81SMcCKWdp6ssI541qDvL5EgaL2DNJg7s5BOXdnYSzyYuNLLwKY61zTLXvzOyQ753F/yJ8x/HLaDAKSw/7UYGwkCXdBgYgWyWVjCIcGkhP1JM8dPlfy2Ma6jQ1frKn19nqbr3Y1tgSjs44j7QYbkAiEgplDPc7FilV1Ft5ztLOHMxaNhTmK8nQiMPEBP5t68u0SQ3IokJjzbC3nzCbZGBOtrgbr1OXyle5LC3jd2MUf/tV/+OFcD2a/TvaEUNdrofTYX0I61nF0uG69SyrKAyIL3dJywVft8j9QPvanwtMh7UfvSk0Rara8c1DOkduBc53NaAQ8gVDGY8L1uTQ/FGFkAIX5bgkdJocR6ItMNjcyxkPeg88PN1aWbKp0rykp2VNWuq22+bmDbZ4Z59M4VzuMZsAzHJ6tFG3dpgJDwvv65RjAICdCcTCDzgiMD82yqUfltmqBkaGZg9NpbA6jmic+euXtX/bODONlfYRNJxIT55YZU4KpFKDWzXZWdMUIerXNaQBQS6lid2pNZbK5XzfrnwfJRZRz5OZwBchmFOiyGYD0sD+acZCXnDYB0dBgnDE+6glju9OaZ9PZGcKB0My1ecrb0u5taX9TbdhyYOfD5VUH1nv+6fzMPhu3TWJI+fyxWQLFXralWFQCQtH26kIAUOczwKCzTOZcNvWYnFYgFhyKzffEnRY9EBxehHt4kDGMAQoWfvqUDbdJ741dZgNevD3wicpI3TXdscH5f4rkDMo5cnOSMQDQzn519iS126oFgkOZzZai0WEEPGPXpY16fBwF5hKLaAL6JpstM6QiH57x7Covz3eZgRk5p3KODcgy98WFivpSN2PMln+XbcpyRStNtLdkU4/W6JAY6w17M/YwhcFlE5GI+G7yOrkl6EO5YUlzLL7l83c6ExDliZvbyEiIAbIkcT5AU3R3CMo5cnP8vTIg2isYPzFfy6XJYQNSoaHMDnu70cEQDYTDAIPcOxhCuWV1YVo90dzIubNuy6NVmvbjJw57xn+cc0Gn1gLxeObNNE1OK5CYrdlSX7h9jVbpufTdV7oi49upeuDBp9fqzBMdlzesB4Alz8y5HIuHJwaMnLvv2v35TdrWQ4dfbFUYAMHoMAPDkZseNNz2PpQbkNNxwKrRqTkf6wbiXLBp1UDsZq9RmRfnDmYzA038JgfIGhGAkJYp5O4clHPk5oROKf4/Egv2CMbn5LknPPRGZx5jAxkDIM4Fu9EK9I4NlRgLeEdiKK4sSwKRiWZLrjcUuSX9Gvtxjz8JgHOW59y/I1/Ho2eaM/paNJJz1mZLzm0bylar0q1NfeEpPxOKJwGdJAHRbOuBrMiMiS5bmdjfJTPGuWhfdf96oybVd7FTHs9Co0NEKhCee0yandvfh3IDUV9rCkX2VZ+Qul+JKAA0UtU+G0PS35TRdRtMJwGdXadCcM423mzWAQDTA2IBg/+sEr6556TRcYClbnJUSFYSyrmcwqXy3y22j/1S1ZIBQL574+8bxg4f4ZMtzRfkRT7qMdYiXziv3rtJvXtf+tV3ZnxGNhfs3+LQA9CYCwDo7Pfsy2NArLvt7Zbo2JoOm0FA0hdIXj94eYP9ECrMehYeGBxrbmTMd6Wnu25d6Ybtf1w43O2LyxpDYbHVpk52nzzz3lDmAFGyA4lAeHTG4VC0b6s1C/HeM63T7sEZiSUBo0kCBrOrB4Cv79JQxb2O8s9+1tLeH5F1xuISk4mHT7/a1Jy+PsRhNskGKPbiR/a5ptcXvnikvWNpr0W7GYwP/rzVu3ld/tNbH6j3+YeZocpudwiJsy1XLmXcE7lzsHegtHpL9X1fc/hHrje0Bg5daWub8vSzWYdzs7j7M6KQlM/9642v1JyfVi0DYmKWe9SRXEU5l1v07nuLStRTDgRWS9l9FgDgfLivvfnCwi6Oy4py9m9S636kXvcNbTSZev8oVyZO5amLS3bWOCe/49Ds3GwGOO/zt4wvEl3WvGlzaYlAfxAVZiAwZUA20v7Cz9P7tpetybeutbFUPD7c2/nW2dZGT3Lm1b6cq+1GM9DvD81YrqlctUlC8EJPizLtQBmOJDjMkqQBUtnWg/Cxg6eVXVX1ZabKKrMcjw20tx1qbL3on/wYYbFLGsaYM7/BiWniPc3vrNiQG+PtO/HnqZrfKC+pdRavQWoo1Pty54WXhiKZ7Ujp0aZvXWKfqyipzl+VN3avcO5putLWtpB1uOASd39LW+3gAz9Mnffc7Ag1lRYBbjYp3Ces8F8EyRKrra2d+m9dgS7eP/ttopaE4K5WBpqXuopJ2rziRLR3qatYdrhht+ZTf6ly6Lj/VLrxe6lLV2nyg9w8zkVh/TOqbferbBL3vZJ86b8pkZv9u+KCM/L0/TGjIno9mpGY6lKjbpj+VnOc6HJNO6uiMqrS4Vv+dWXZY5KDRzL75paMSm2SUzc745J7WKpLvnyMq4vF0h2irjXV1EQ5RxaDVtzzLbXDJ5/729Sr/6QkFuGPivGoumNI0Euy05HOt7O+S9oR+lvNcTSeWxgaz82Pa0pEO5M9XZRz5OZxLgqFmzH8Ic84QU1I9mh+jiwmluxR+kEhRxYFYzLvb1zqKsiKJ9x4FUIIIWTFopwjhBCSyyjnCCGE5DLKOUIIIbmMco4QQkguo5xb2dIO241XIoSQOxjlHCGEkFxGOUcIISSXUc4RQgjJZZRzhBBCchnlHCGEkFxGOUcIISSXUc4RQsgdhDOb3v6Qq6CGc359CRfzCj5rs69RMb60td0i9H0FhJDljhs3HfjMY2W4euT5n7aE6dswPj7RsM+56gGjXssDPx0CxmONiYbN9uKtloKLgY5/CUTCS1rj4qPxHCFkudNuuG/HmpKCNfu3bchb6lpWMMH4RFHVI5LKN9L5vzrbT/Lx789iLB1s/6+9nSfTqvX2qj90GA1LW+eio/EcueUKav7kU6ssMxZyHmtq/NZhHwPAecE99/5evYHx4dd/cPJUkjEA3LT/c3ffJXQ+++OmromfUkk1W1ZvWe0oMKlZKjHqGzpz8mrjQIrPs6PM3V1fItY+vO/JSjXjQ69+/9Tp9JTvzMu+HrVxw7bKLavtLkmlUtKjA4Mfnmw66U2z8e2wqoavP1ionqUe/9v/eOJ49M7+oj7O1c76T+y9e2tpgVWLaMjX137qV++dvBbhM1+WRNv5ttHVxWi52hoFFv9FM+z+068+umZKYf5T//Cnb3V+/B1x7tr71f+6u+DCy8/8/aXb9Vs23/PMHzxaFW/8n9/72cVUxk65aou74h4Nbx+6+r3RmDzjZWSKPzb0L13hoZK1n7RUPB27/KNIOnf+OCnnyK3FOVPCrU3dAqCyuTe4NcH+3rYRDmC0bXR8JdFl1QMAjIUFwFiMqEwOI9AbHpzYlN7x0BObt1pZaGi4rTXJDJaK4tIDn7JJLx49NMjZlB0BEK3ujfmakKendXwnU3YHADCVbq1QRWOJPJ3OaAQCUx/Lrp481yNPNjSYWXhouK0/IZhsFcUlBx43CC+cOB68fpSx240qnh7q9PTEpr8s6UDbHR9yzLX3y59/pFIT93Zd/SjE8xzlNZt/7Zmqih/98P81Rqa/OGzg8PP/5fDY/96KYlKec2dOecf+37hqR6XzVuzk1uLmPY8eqNKETr38y9lCjrO8wkcM6mS06yejMXmujbDY4f6+6vKy9c7C1eGutpz5wmTKOXJrMcYHul8dADgvvXf/Bne686PzBzuvv3/G30WS08oQio9K2gK3hK4IANgkB0N4JHz98zsXVu+q22qVO46cfP5SRAHAmW3rzi/ssGysthwaDEzuCADnxXv3bcxPtp2+cLBn8r06bcRWV1bKwieuxO6qN0vSjJzLph5x7d0bG8xy59GTL5wPpwFwoWTv7t/eYN1ULR1vjAAABJclDwhfeO/C0VCuHDIWjbjp7v2V2uj5n//N9y6HOACuKt//pf9416bHtx9uPOy5rbUkW9/6Vev1/6/89YYVl3Ocm+qffKJcG2l68V+uxWf7SxOqJKsZqcaAb2T+zwpp37uhwjUmy9a8rrbYPOutKJRz5HZRu6xaYHTYl/GIyuQwQmnztpWUbXJZNYikOBftRgvQPRwcX8m2bpUG0a5jYyEHgHF/Z99ldxL+VOYW3VYdMOIbnquW/B3VeUpf06l+85Z6jVESJmfks6xH5dpUqcFo29tjIQeAKT09/vg6LURxfEN5TruA+Kh3OYQcN9T83Y4a58AHX/ZafreybK1OnUiEmvsvPts14OdTPwEIpe6ap0qLq6U8PVLD4aGTXZdeGgylr5+8rfs/Wyu7ml7+b/0y5/lfuvfuXbzrW0cazzLGHNue3eQ4/OGrPx7N7slaCh068OZzV4IKGAPA0p2n333fWWdL6q//PsbO/u0pnNxg58Gv/uT94NTN8PzH/vCrn7Bc/NH/+qjkkYd2lNh0ydH+njO/ePOdSyFlyvNi1qoHfmPvtmqnAdHBlvOvPTe47a+e2DD4/nf+/L3BBfx2OFc76x+9957NZflWDeLB/quX33/5/fNeeez14dWf/OZXGgwTG9z0xN/+6InZiudcX7jj8b0764pcZi2Lhwbarh7/xbuNXcnxP5Usn9cYactv7l+njzU9+8a5EGb9Y9NV6NXg/mtx5UZDYuVqNJw2Wcv1esTiszxudqu+Vifkg79/Lv3jgZXRn0k5R24Xk8MKJEMD4Yz3oU1yMITCA/1DpfVOcxF6OwGnXRKQ8A2nxt+WokYDxAXGOJ+YP/d1vfJqF2Z545rsFiAeGpz13CDnhppVNdpU84WeYEQXAYwGPRBdWD1OS76AhMfvmbr39gvf+f6FyXoEo9MMeEP9H/MVG6u28J6Hd60SZ3lE7j3+3DnPAhNUXf7FGrN6xPdRWFdpd25ffU+p6sgzLb7xw7RQXrbnm2vs6lSwydc7Am25rejxje7qlne/2TWqMIZI0Au480xAAFpjAUvHBWORFmeTcBgkDcK92XfqBUdCCvJdpYUiepXxZWdf+OnZqStFPReOnekBAJV7/cZy65xbM+x8/NcLVR0t1waNRWuq1j3wJZf+O9//RYty/Xmx/ANfemp/kZAY6rrSERZdmz7zO4Pehb1yADgX3fd95fMPr1ZF+7uufhiGKX91/d2/WVNi/evnjvQpjAGjvRdOq3UAtK6qja68QM+5iTPn8A2kJrZT9OBXf2t/qSo+2HX1wzA3F1Su3/bU2hLL3/zjWx3K1D/aeZ/X9a3lbXnok5v08Su/+vmxyFyfqFRmEZDTI/xGH7kYU+RUGDCKaiAj5zjntSWsSMMAtruEPetVbrjB5YByjtwmeqPLwNhAZGjGcs4Fh9ECdI+M9PAYii3FBt4RFlxWHeCfMiDzd/Qq60sK79/tC53wDGbOQEylMbokwBsemP1h046NNjHY/kF7GoZkBLBKusmcy6YeztUOkxno843OvocxVqNdgJLnvG+fceriwLUrR3uyn+S3V9dv26qaZcYlrW5+7twCz+8JZu2VD9/4WVgGIOpWf31H/frStTvbfMfGPperip+usGtinX996vR5eez0rOuL23fvqajd2XfiuAykg54kKvWSwP2yZHLHhq4I9iIDkESR3oBET0866xm01Jmz559cU7/nic+H33j1cGt/WMl4joyFWw79pAUAYNj9p/PknFBs6P7+N470JAEI9vs+8+WnV+16cN2vWi6PJajYcM/uIiHV+vbf/e0HPhmApvzJz/27NXNtbU76bfftX60OHP/n7/64LcYAcH3to1/+Ut0Dj687+Q+Xk2Cs/9y//vDc9ZHoRldez4fP/WCWPpS8nffeW6qOXvjFf//ehVEFADPu/PQzn1+779ENR//H+SnpcoPnBXCur378qXWGROcv/t/ZeUbSgkYAUulENs9STicASZitGZ8xdqmbd1q4G8rxbr4iQg6Uc+S2cUh2zuP+kD/jQOi0GQQkh/2pwdhIEu6CAhEtksvGEA4NTJzGQfLc4XMlj22s29jwxZpab6+3+WpXY0swOus7zW6wAYlAKJh50OVcrFhVZ+E9Rzt7OGPRWJijKE8nAuNHjqzqybdLDMmhQGLOwzrnzCbZGBOtroaph2cuX+m+tIDXjV384V/9hx/O9eACNgQAEEJdr4XSY6e20rGOo8N1611SUR4wNqFosleKGBxsGws5AEwefHswtKfMvlbC8VEAo54oVHmSE0gajPpo9xmWv0vSc79coNfycLA7++fF4s0v/f07ui/sXffJX6/+RNzX0d50+uzxo+2znIbOYmt9jae6E2PPS/a9d771qVW1LqcLGBu0OYudGiiXjzYOXX/uiY63L3kO5JctcDfFq4s0GDn5/ljIAWCxyx9d8NXtqSgpxuX2rLdTUlEgInb5yFjIAeChk2cuP7V266riUpy/lvXzArTrnnqo3pLq+tdXjw8B7Db0eQYH039x6FZs+BainCO3A+c6m9EIeAKhjMeE63NpfijCyAAK890SOkwOI9AXmWxuZIyHvAefH26sLNlU6V5TUrKnrHRbbfNzB9s88vT3M+dqh9EMeIZnPYemrdtUYEh4X78cAxjkRCgOZtAZgfGhWTb1qNxWLTAyNHNwOo3NYVTzxEevvP3L3plHnCX7FJxOJCbOGzOmBFMpQK2bOCsqqvUALFW/X52e+BGdpAHUBvXYj6R6wgnkS4VAOk8ajAS6heiTeUZAKTDAPxCMLeTYypKdx//vn50v31rfUF9ZVV29++mau/dd/OnfHTwzmDm2m58cntw1Y3IsFge0Gt34w0ZJD0RDAWVyneBoUJltS/PS6TQAVt3/yKcnx1yafD2g0y/ouj6NRg2MhqdNNIbDIcCh0Uxbcf7nxTXr7n/iLqPc/e6Lb/kzLsYgEyjnyO3hshmA9LA/8/InyWkTEA0Nxhnjo54wtjuteTadnSEcCM1cm6e8Le3elvY31YYtB3Y+XF51YL3nn87PnEVw2ySGlM8fmyVQ7GVbikUlIBRtry4EAHU+Aww6y2TOZVOPyWkFYsGheQ/rToseCA77F/pSLSHGAJgspfdNvwqR88nPEj3RMFRSgUat6DX93tFuIWJ2mQxi2q1BX2Rk4TuUI10fHOv64CgXTWsOPPabj2946t/2d/31qUV+1Rib1mkEAGzmgqw2wwBD2daG6QNBztML++gyZ8M+W9B29FserLeywNF/PuFVZm8/maQsZOsM4CujwyQ7lHPktlC7rVogOJTZbCkaHUbAM3Zd2qjHx1FgLrGIJqBvOJix9rhU5MMznl3l5fkuc8Zsuco5NiDL3BcXKupL3YwxW/5dtinLFa000d6STT1ao0NirDc8byeDwWUTkYj4bvI6uUXuQ7nBzjiA9pbXvj52LcU013c0HAnF4M7XmyFFesNyVBwNSsaSvHQ+i50Jpz72UJUxOdT62stv13z5saraTY5T787VKvuxyHIaUIuThzvOBVFc+N2gOOeA543/9KNDgxmPLeSJ87lShC8ofEWVWmBMXbb/0c/uHV+mdZpnW1VJckBQZzXqFNV5QEKZ8yq7lYdyjtwWJocNSIWGMjvs7UYHQzQQDgMMcu9gCOWW1YVp9URzI+fOui2PVmnaj5847JnouuaCTq0F4vFk5r6cViAxW7OlvnD7Gq3Sc+m7r4wfxzmveuDBp9fqzBMdlzesB4Alz8y5HIuHJ45unLvv2v35TdrWQ4dfbFUYAMHoMAPDkcwD4gItah/KDcipGGDU6Mbn62YTDXpR7jJZRE34eBQQwl5tYYmUdiDUO/cPZXLc/QeP1ps73vj2uy2Th/bo6GgayDOYgEXNOZ8vCBQXlJr4xeuX8AurCgoWHsnxeBLQG0zAzf1ak8kUkCeZpi6TJCOQSGb+Pd+IsWzLxpnjy4yVYkNJQKcrFHmzPO8HL86NGp0B6E7OdlHBCkU5R24HvdGZx9hAxgCIc8FutAK9Y0MlxgLekRiKK8uSQGSi2ZLrDUVuSb/GftzjT2Ls5g7O/TvydTx6pjmjr0UjOWdttuTctqFstSrd2tQXnvIzoXgS0EkSEM22HsiKzJjospWJ/V0yY5yL9lX3rzdqUn0XO8dvqGQxOkSkAuG5x6TZWdw+lBsI+lrk1Q3u1Vs6fB+mGQDOjE823PeYceSnJ468nmQAEAv2ySi3Fehio90yIIc8KcMmR1qMD3Vn32wJjIaYs3S17d77LrQdGlbGejsdm7fVqJEY6Ft4y/8Nntelds+TxcX3/9pDnteONY8K+dUHnqxSzz5giUQigMlk1gIZmdPb0pvcXbVhT9XbbdeiHAAXCnZ/4T/eVdh75NvfPjWt3TEcjwEwGIxA5jxxd7tHvnt17d6N5qaJfsuGWgPSF3uy7+QBIu9/+5vvT1sy3oeSsWqqORZ7VCetN6gPB9MZj06l2WyUGGKtsTkG51wUDqwT8gH/gPyroZVxdpNyjtxC5oL9Wxx6ABpzAQCd/Z59eQyIdbe93RIdew85bAYBSV8gef1N5Q32Q6gw61l4YHCsuZEx35We7rp1pRu2/3HhcLcvLmsMhcVWmzrZffLMe0OZA0TJDiQC4dEZb1PRvq3WLMR7z7ROewNHYknAaJKuf0S/cT0AfH2XhirudZR/9rOW9v6IrDMWl5hMPHz61abm9PgFWzbJBij24kf2uabXF754pL1j/s/USybd+9P2ypo1pV/ZaW4KjI4oKpfVVaUTvH1Xj012lob6I9hmc4j+3m4ACHoihicdihJo61nIrpIXXnmvs/qBqqf/3X/a0dU1EFX01tK1JTZtvOPFI+fHbzoz5Zytyu0AYNv46UfcYw2ZQ02/fK191nt/ZGCs//gv3qr+3QfL9v/hF/YDQKL3V6e7KnbVzrLywKWzgXseqH7iz56uaR+/B0DPRz873M8YYqcPH9pb/vD2T3+ttKutJyTrrGVrS6xqf+NbF6bfZoSxaHtrr3D3PqkAABexSURBVFKxes8XvlLiCcsAEGl94/mLw2OfFU6+++7e0v0bH33mm5taOkKwFFZW2fVJz5u/vDTbpPLNY6x/dKjdUlphK9kYbr8wV5sP5wap+F4dS0eHTsx16Y5gY4+VCwbw17tveM35ckE5R24VztXFJTtrnJOzIGbnZjPAeZ+/ZXyR6LLmTZtLSwT6g6gwA4EpA7KR9hd+nt63vWxNvnWtjaXi8eHezrfOtjZ6kjNb5jhX241moN8fmrFcU7lqk4TghZ6W6W/ycCTBYZYkDZDKth6Ejx08reyqqi8zVVaZ5XhsoL3tUGPrRb88sWWLXdIwxpz5DTPuIRXvaX5neYYcwBjv6nrvG/Gap0qLqx3F1UgOR3xvdDS/3Dd5wpmxSF8krTWrvdHRNGMM8d5ISm/VDkWD8QU1W/L+k9//y8Fdj+xsqHJW1hvU6ai/68Kbh95790xg4n4fGedsTeU7GsoBgPOO4Tdfa8/63Fq6/ec/+psrdQ3rnUbEBq6ca7xY/JmHZl1T7nj5n18QDty/pbRul04UAHB+vvNnh/sBxpTBw//9/wYevfeezaVrN5fwaMh3rfHIG8dOXsvsSBo8/MNfSL+xe2PF2jqtyBjn/sjx5y8Oj72GsueNv3125PE9d9WVrttaikR44FLjiYPvnupcaKNp9lJDL/nt/95u/zdFqWc9fZfljP5MzkyG4t/Jt5uUyGtDQ8NzZViZXZAYU0bSh2d+kly+WG3ttI80ugJdvH8ZnZcV3NXKQPNSVzFJm1eciPYudRWT0g6byreSGvoIWSbWf+7//Nr6/ve+/RfvD62Qo/VN46pa19rfMuvVSqw55P2Vz9fHx++Do3E8Yc9vkPR6JXbSe/VfonPcx4Bz9tDd6qetuHIx9a2ulXHSEvT9c4SQOxDnBQ4ngzIcuJM+JbL05cEr3/V6r8madWbbqimPCHrbLkkTjXif72maM+QAQECVCUgr7/Uu/OrDpUPnLQkhuY9zw5r9T1Zfv5pEpc+vXuNG+PzJloX0zuQApnjDvd8P9TvydFOfthL1fK8z3pqW+Q1eDptQKSLULZ9eUa8b5Rwh5E6gL1h/d0MJA8CVdCI02HPi4Fuvn17QnGLOYLIvFgEm51yVdKRl/h8ZU2QXTOBvdinLtJFqDjQ/tzA0P0cIISsLzc8RQgjJZZRzhBBCchnlHCGEkFxGOUcIISSXUc6tbNSEQggh86OcI4QQksso5wghhOQyyjlCCCG5jHKOEEJILqOcI4QQksso5wghhOQyuo9zTuH21ZEaqxAKib0dmqEEW1H3WiWEkFuBci63mPITNeWcMa5sUl06aj7uESjqCCF3NjpvmVNYx3HbD35qfemkLqJOb2hI2Je6IEIIWWqUc7mGcVn0tek7woAkm5a6GkIIWWqUc7mJMwGQkV7qOgghZKlRzuUmRacBksIy+sZcQghZGpRzOYhzBpUKSCGx1KUQQshSo5zLSQq4stQ1EELIskA5l4MYY6q+IQHWxIZCWSNyzpe6IkIIWTJ0/VxuEpqOm/TbQ3X3BTYyAJzLurdeMHbQtXSEkDsO5VyOktzxqgI5Part8rOkzKCogktdEiGELAXKudyUrmuIGxP6V1+Teicm6mgwRwi5E9H8XA7inMkGPRAVR+SlroUQQpYY5VwOYoxDVgAV1EtdCiGELDXKudwkJpOAmmuXug5CCFlqlHO5iSWSgEamnCOE3PEo53IQ5yrZnAfIjKbnCCF3POq3zCncvjqy3q1YXKl8FSKd2v6lLogQQpYa5VxuMeUn1pYgGhFbzpkam9QyXUtACLnTUc7lFNZx3P6DpS6CEEKWE5qfI4QQksso5wghhOQyyjlCCCG5jHKOEEJILqOcI4QQksso5wghhOQyyrmFSUR7l7oEQgghC0A5RwghJJdRzhFCCMlllHOEEEJyGeUcIYSQXEY5RwghJJdRzhFCCMll9H0FN4XrdzidhUpiOBn8MBQNM0bfg0MIIcsL5dzN0VSZXfUCY5w/aB14tq/7ikJRRwghy4nocrmm/ltlVKXD6aWqJhOTHDziW+oq5sQS5/39h0f8frV5U565mI8ci6Up5wghZBmh+bmbxXhKiX0wMhIAbGr1UldDCCFkOsq5xSICKYUvdRWEEEKmo5xbHIJKB8SVZXTGlxBCCEA5tyg4Z6KoAeJpyjlCCFlmKOcWB+cKwATqQSGEkGWGcm4RMMZjwU6OfMm9TiWqOKdpOkIIWS7o+rnFkR581qN62lX4+6vyGQDOU6GWZwZGaXxHCCFLjHJukWjXmu1VankgEuhNyWmGdCy51CURQgihnFssefmflHSx0avfGQrJ48toMEcIIUuP5ucWAeeCqDEBo8k4NVwSQsjyQjm3CBhTuJIG1KK41KUQQgiZjnJucShyHNALdBqYEEKWGcq5xSHLcUAn0MtJCCHLDB2YFwHneq3OCKTowjlCCFlu6ETbTeH6HU5XpUpXYTBqkTgbDi91QYQQQqajnLs5miqzYwNP+hO+14Y978Q4XUtACCHLC+XcTWGjP2n7aKmLIIQQMjeanyOEEJLLKOcIIYTkMso5QgghuYxyjhBCSC6jnCOEEJLLKOcIIYTksuWec8pA81KXQAghZAVb7jlHCCGE3AzKOUIIIbmMco4QQkguo5wjhBCSyyjnCCGE5DLKOUIIIblshX1fAXc+pt5UiVAf73wz7fUzRt+DQwghZD4rLOdg2aLedD9jjO/6PfHsNxKHj1PUEUIImYfocrmm/ltlVKXD6aWq5oaY/93UB8+n2jxs1b2q8rW49pISo5wjhBAyp5U3P8d4jA38Qm71AoXMstTVEEIIWd5WXs6N4YIKiENe6joIIYQsbys155jWAEQQW+o6CCGELG8rMuc4F5hGD0SU+FKXQgghZHlbkTkHcHAZoA4UQgghN7Aic44xrnRfBMrFhl1Mp+OcL3VFhBBClilWW1s79d+6Al28fwWcDeTMIe78M83WuwQ1A8B5Mn3w7lQLjfAIIYRMs9KuE59g3CLWbGVyZ7r9qpJIMqSVkaUuiRBCyPKzUnNO3PZHKnMo/dK/SXVNXNVOgzlCCCEzrcj5Oc5FZnQAg9yfWupaCCGELGsrMucYk3k6BeigWepSCCGELG8rMucAIBEBJKZf6jIIIYQsbys153giAhigXeo6CCGELG8rMuc4lwSrFUjS/S0JIYTMb4X1W3LnY+r6BmarUxXlIXRQ7l3qggghhCxvKyznYNmiXr+HR7xy0w/Sx3+ipOlaAkIIIfNZqfdDIYQQQrKxIufnCCGEkCxRzhFCCMlllHOEEEJyGeUcIYSQXEY5RwghJJdRzhFCCMlllHOEEEJyGeUcIYSQXEY5RwghJJdRzhFCCMlllHOEEEJyGeUcIYSQXEY5RwghJJdRzhFCCMlllHOEEEJyGeUcIYSQXLbSvk98UXFueGr7Q08a+//h0LGjbGV8NXlBzZ98apVlxkLOY02N3zrsYwA4L7jn3t+rNzA+/PoPTp5KMgaAm/Z/7u67hM5nf9zUNfFTKqlmy+otqx0FJjVLJUZ9Q2dOXm0cSPF5dpS5u+tLxNqH9z1ZqWZ86NXvnzqdnvJiZl+P2rhhW+WW1XaXpFIp6dGBwQ9PNp30jn9lPOesquHrDxaqZ6nH//Y/njgeXSG/QULIbXZH59yKwzlTwq1N3QKgsrk3uDXB/t62EQ5gtG10fCXRZdUDAIyFBcBYjKhMDiPQGx6c2JTe8dATm7daWWhouK01yQyWiuLSA5+ySS8ePTTI2ZQdARCt7o35mpCnp3V8J1N2BwAwlW6tUEVjiTydzmgEAlMfy66ePNcjTzY0mFl4aLitPyGYbBXFJQceNwgvnDgevB5gdrtRxdNDnZ6e2PSXJR1oo5AjhMyFcm4lYYwPdL86AHBeeu/+De5050fnD3ZeP8SPH+glp5UhFB+VtAVuCV0RALBJDobwSDg6thoXVu+q22qVO46cfP5SRAHAmW3rzi/ssGysthwaDEzuCADnxXv3bcxPtp2+cLBnMk6mjdjqykpZ+MSV2F31ZkmakXPZ1COuvXtjg1nuPHryhfPhNAAulOzd/dsbrJuqpeONEQCA4LLkAeEL7104GqJUI4RkbYXlHOd5T257+Clj398f66yoWX+PxZiHeJ+/+5WWyydjfMpqQqm75qnS4mopT4/UcHjoZNellwZDY+fTOHf+wZ4992kmjpWFf3T/U380/o8rV3/5n3viALhp4//eWqXtO/Y7zd6JLddXP/q1Ivn10796NsiyrIcbav5uR41z4IMvey2/W1m2VqdOJELN/Ref7Rrw8497vFa7rFpgdNiX8YjK5DBCafO2lZRtclk1iKQ4F+1GC9A9HBxfybZulQbRrmNjIQeAcX9n32V3Ev5U5hbdVh0w4hueq5b8HdV5Sl/TqX7zlnqNURIAPuWns6hH5dpUqcFo29tjIQeAKT09/vg6LURxfEN5TruA+Kj3hiFndqu+Vifkg79/Lv3jAT7/yoSQnLfCcm6c7t7a7cWqoabBkMHorHVWf8lkkD/4oDE9lj1Cedmeb66xq1PBJl/vCLTltqLHN7qrW979ZteowhgQbx3o0YoAVMWOglJ17Fq/byIw+iLpxa3nOnX5F2vM6hHfR2Fdpd25ffU9paojz7T45I83NDE5rEAyNBDO+HGb5GAIhQf6h0rrneYi9HYCTrskIOEbTo0Pw0SNBogLjHHOx7fg63rl1S5MHaiN78tuAeKhwVnPDXJuqFlVo001X+gJRnQRwGjQA9GF1eO05AtIePyeqXtvv/Cd71+YrEcwOs2AN9Q//wvDOa8tYUUaBrDdJexZr8Jp8EfInW1l5hyzWiNHv3J1MMoY55q71t//J/klv1Z0qXHspJiq+OkKuybW+denTp+Xx06Lub64ffeeitqdfSeOy2As9M7VU+9c70MpKFWPvH35g5vqQ5m/HgCAYNZe+fCNn4VlAKJu9dd31K8vXbuzzXfsY4039EaXgbGByNCM5ZwLDqMF6B4Z6eExFFuKDbwjLLisOsA/ZUDm7+hV1pcU3r/bFzrhGUzN+9w1RpcEeMMDsz9s2rHRJgbbP2hPw5CMAFZJN5lz2dTDudphMgN9vtHZ9zDGarQLUPKc9+0zTl0cuHblaM+UzxOMsUvdvNPC3VCOd3MKOULIysw5jB7tuT68YCx5oqfvc/mVpUYrEAEAk71SxOBg21jIAWDy4NuDoT1l9rUSjs97ML0l9QAAhFDXa6E0GAOQjnUcHa5b75KK8qausgAOyc553B/yZwy/nDaDgOSwPzUYG0nCXVAgokVy2RjCoYHkxEE/ee7wuZLHNtZtbPhiTa2319t8tauxJRidNRXsBhuQCISCmUM9zsWKVXUW3nO0s4czFo2FOYrydCKgLKSefLvEkBwKJGYZTI7viNkkG2Oi1dVgnbpcvtJ9aebKwcH0Xxy60StICLljrNCcS4zEp/wrPnhiQO8MJQTOFcYgqvUALFW/Xz15BlInaQC1YZam9FtfDwAgnUhMnGNkTAmmUoBaJ2ZsKQuc62xGI+AJhDIeE67PpfmhCCMDKMx3S+gwOYxAX2SyuZExHvIefH64sbJkU6V7TUnJnrLSbbXNzx1s88w4j8q52mE0A57h8GylaOs2FRgS3tcvxwAGORGKgxl0RmD800Q29ajcVi0wMjRzcDqNzWFU88RHr7z9y96ZYUwjNkLIfFZozk3Dkp6fXPIAGBstjf3XZCm9b/rVX5x/zLmwm61n8blsBiA97I9mHOQlp01ANDQYZ4yPesLY7rTm2XR2hnAgNHNtnvK2tHtb2t9UG7Yc2PlwedWB9Z5/Oh+fvkG4bRJDyuePzRIo9rItxaISEIq2VxcCgDqfAQadZTLnsqnH5LQCseBQbL6Xy2nRA8Fh/0JfKkLIHS8Xcm4mzgG0t7z29a7Mc4ILC5455s74Evfwqd1WLRAcymy2FI0OI+AZuy5t1OPjKDCXWEQT0DfZbJkhFfnwjGdXeXm+ywzMyDmVc2xAlrkvLlTUl7oZY7b8u2xTlitaaaK9JZt6tEaHxFhv2JuxhykMLpuIRMRH18kRQhYqF3NOTsUAo0b3Mee+JreTjgNWjU7Neer6BQmCTasGYvGP0ZK5iEwOG5AKDWV22NuNDoZoIBwGGOTewRDKLasL0+qJ5kbOnXVbHq3StB8/cdgz/uOcCzq1FojHk5n7clqBxGzNlvrC7Wu0Ss+l774y/nmC86oHHnx6rc480XF5w3oAWPLMnMuxeHjiUwjn7rt2f36TtvXQ4RdbFQZAMDrMwPCUU6+EEJKlXLy/ZdDXIsPhXr1FNX4FGzM+sfmxZ/fueUgzYySWDKcAaCTNbNuJ+lpTEOyrPiFdn0bTSFX7bAxJf1NstvVvF73RmcdYIGMAxLlgN1oB39hQibGAdySGvMoyHRCZaLbkekOR21q7xq4d/ymW59y/I1/Ho5eaM04LaiSnBAQymi05t20oW61Ktzb1TZ24C8WTgE6SFlAPZEVmTHTZykTOAXAu2lfdv96oSQ1d7JSvr2MxOkSkAuG5x6RTaxOFB9arfmu96hEnDf4IITk5nkv3/rS9smZN6Vd2mpsCoyOKymV1VekEb9/VY9M7+hhLXQ6MKDb7pzfvWRdMpAEgca7j7PsxBoDxwZ+3ejevy3966wP1Pv8wM1TZ7Q4hcbblyqWPfX33TTAX7N/i0APQmAsA6Oz37MtjQKy77e2W6Fg9DptBQNIXSF5/mt5gP4QKs56FBwaT19tBfVd6uuvWlW7Y/seFw92+uKwxFBZbbepk98kz7w1lDhAlO5AIhEdnnPIV7dtqzUK890xrauojkVgSMJokYDC7egD4+i4NVdzrKP/sZy3t/RFZZywuMZl4+PSrTc3j1/Uzm2QDFHvxI/tc0+sLXzzS3jFj3lWwscfKBQP4690KdakQQnIw5xjjXV3vfSNe81RpcbWjuBrJ4YjvjY7ml/tmOdHX1XXqf2vqn3DbthSoRMY4j472nn1/fLjm7Tvx56ma3ygvqXUWr0FqKNT7cueFl4Yit6zBZE6cq4tLdtY4J8ffZudmM8B5n79lfJHosuZNm0tLBPqDqDBPH5CNtL/w8/S+7WVr8q1rbSwVjw/3dr51trXRk5y4GGByp3ajGej3h2Ys11Su2iQheKGnRZn2UoQjCQ6zJGmAVLb1IHzs4GllV1V9mamyyizHYwPtbYcaWy/65YktW+yShjHmzG9wTq8w3tP8TsbvoswuSIwpI+nDM9OZEHInYrW1tVP/rSvQxftnttwRslJwzh66W/20FVcupr7VRTf9IoTk5PwcuZMJqDIBaeW93pnDU0LInYlyjuQWm1ApIuSRTy9tTywhZNmgnCM5pcgumMBPdCm36aYAhJBlLwf7UMidzHMt9dvXQP0nhJAJNJ4jhBCSyyjnCCGE5DLKOUIIIbmMco4QQkgum5lzdJE4IYSQXELjOUIIIbmMco4QQkguo5wjhBCSyyjnCCGE5DLKOUIIIbmMco4QQkguu8H9LbnbnN+gl4PJRNtouD/N6d64hBBCVpQb3cfZarRsNguM8b3ueGN391thhaKOEELIyiG6XK55Hma+oO+oL3A1oV5tNlTqeLM/GqWcI4QQsmLceH6OcS57RwNXk4BGbb0NJRFCCCGLJus+FEEAOKfvaCaEELKiZJtzgl4AZDl6S4shhBBCFllWOcc5E7UCoMiJW10PIYQQspiyHM8p4PzWFkIIIYTcAlnlHGMs2hnl0Jm2SGo9Y5R5hBBCVghWW1ubzXqcqQz3FBbcZdSoGQDOldGXLvc30zUGhBBClrUbXSc+wZJn2Sip5ESkNZ6IKQxKNHAr6yKEEEIWQ7Y5Z9hRYLLIgefbBjomTlrSYI4QQshyl22/pcqsAtKpYeVWF0QIIYQsoiz7ULiS5gATtLe6HkIIIWQxZXuduBJTAEHU39JiCCGEkEWWdc4lZEBkNJ4jhBCyomQ5Pydo7CqAQ77V9RBCCCGLKYvvWd1qFO15xhKBB/3B7ttTFSGEELI4svie1U0mJZSMXxwYOjIUTdO1BIQQQlaSbO+HQgghhKxEWX//HCGEELICUc4RQgjJZZRzhBBCchnlHCGEkFz2/wHU8uxj+TMg5QAAAABJRU5ErkJggg==;" vertex="1" parent="1">
          <mxGeometry x="-365.54" y="213" width="520" height="288" as="geometry" />
        </mxCell>
        <mxCell id="6YRYrCio8crrVP9V9YGO-2" value="" style="shape=image;imageAspect=0;aspect=fixed;verticalLabelPosition=bottom;verticalAlign=top;image=data:image/png,iVBORw0KGgoAAAANSUhEUgAAA20AAAE0CAIAAAAwjkyLAAAACXBIWXMAAA7EAAAOxAGVKw4bAAAAEXRFWHRTb2Z0d2FyZQBTbmlwYXN0ZV0Xzt0AACAASURBVHic7L1bbCNZmuf3Ube81bWr2KPuUXWn80jZ3bOznuU0e8wZ5YAhIAHJ+WDDdpgEFvuQQwZtoJDvZOSjH/JQgAG/CPnCoJALYx8UHYbtF1nCJqwgkJqlp7gVmMt61ime2WyMpotdUffKrLxJDD9EBBlXMniTlFnfDwVUKhhx4pwTQcY/vtuJGYYBCIIgCIIgCDIgU6fdAQRBEARBEOSVBHUkgiAIgiAIMgyoIxEEQRAEQZBhmDntDiAIgiDj4dnhX373D7tTlxbOf/Bnc+9emZq9EP3Y9ssnL744ePqbB8aXzQu/4M/96I+nZi9OrqsIgrwexDDPBkEQ5DWg/eybJ3/1P79s/R8z5y4+fn5hOv6rt//gX8699/OpmfPWHoZhtI+M9gswjNj0udjUDMRiRvu4/eyLp7/9f54c/G8vv/6P52efzU1NPTfI23/+P83Ff36qA0IQ5BUA7ZEIgiCvBe2j46dfxI6//O7JV+cuzhhff/7VR//p0pX//sIH19rPvnnx5T88/+53xosvp46eALSNqQuxuXdmLsZhavrpb/9v4/HHsy8/nzr6+vnX38V+8Pbxs3PHT34HqCMRBOkH6kgEQZDXgdjMnDF34cWz42+++OLSWxfeWpiLHf/9V9r/8vKb3xx/9Q8vHv8Wzp+bvjh3bhpihvHixfOjp0+On788MuDSG99evNR+/umTb3/3xdGLF7PvXDo2jiCGrioEQfqDOhJBEOS1YOZC7OL7x21j7tzc00+/bj85emPpZ2+T9x9/tvfmj//ZD36xOnXxHZg2oH0ERhuMIzCeHr/49vl3j8+fe/b5R3vf/ubTl8+exmamwIDY9Fxs+nz/MyII8r0HdSSCIMjrQGxqGs6/fzx1Yfad9ovHT75tz87MLLz/4z9/44P3jNkLsekZiE0BGDEwAF4asWdgwPTs9IW3zr2cOnr7F9eOnh4f/+Y/QrttTM/MTL09NffmaQ8IQZBXANSRCIIgrwkzb/zYmH37/CXjSWzmvavJd678i5m5N2Ox88fTs7GpqVgsBgZArA0wBQbEAABiADB7DPDm2z/4w18eHx9999vm7PTUi9k4zKA9EkGQ/mD9SAQ5GXQ5R2jjtHvxaqIreULycuu0+3HmmXnjx7GZ94++a5979ydv/+Q/n734PkzFYOplzDBi5h4xAIgZMQDzP2jHYu0pOJqamZ59N/6DP/gXc+/NP//myfTF92OoIxEEicA4dGRLzhOqubfpSj7okanRs/kwaFBCXtln/Ol3XpdzZFyPea1M3MMZqXGt3GtmdCVPylroR31OqlFCwg4PoLW3WwMpeybv/1FoUP8kaGVCcrIeuH9LzpPwT8eALud6tK/LuX5XLbyHWrnfrdiS88Peq7qSJ35ysm7eaaG4Tjd17p2Zt3/+5Mvn7y79avaN9yE21TaODXgRgzYYBhhgGIYBnQQaA2JtgGOIHRtgxOZmzr3//rs/+2dPvno6ff69qem5YYaBIMj3jHH5tSWeNOl+NTNv/qnvbatSjcAWE5PdnbQyLwHAPS1TSozlrLqSTxXV4Y7l1utVPm6186gJwJGFoRpqUJKVou8udOakJeeXRXWoczo7/3qh7VQAAJqPdEiOPkBtpwJShUgFhflvuQY1bx75Zue+7aDvbauQpive7SMwn6nuQ35ZFG/LK5uZCV08rUz4StAHaarc2OVDvyxc98s74P0MaVrfjP511uXbogoANVFqZJw/DgD9vxHiMhGDPxEUJlqdaEhiDbj1lXi3TXar86mfBiV3Sb17RcweCor/GrXkjQpw62Xf3dJFP2QAqrhMxDStb2biEb7jgutH0jEQ8/dtGwASImP2wDVK+OD7GQAApmcvnHv3Jy/e/9Hcjy+/NI6Ov/3aiE3PzJ2fO3/OmDJgKgYA0G7H4MgwjtpHL+D4BRgvIXYUi7UB2rG5qYsfzF/6px9MzZ2PTaG3CkGQ/oxDR85nqmyJEl5cJsz6TYxnNtlSmfDZPLGfT7qS5yueH81RifNVxgd90KAkK0UXW4dNFUBY8okJOZcSawH7+0fh3dKgJCsFbuz+OZ+pskxYlyyJHP7AiIBGCR+gCMwn3LCNTpjEWgGkCixeHksHEyJja2XCV3jy0DNqjWYlz2PbwSFzaBHn64qwVSd3HXdFhSeWbutIsZBp71ATU4FyaKRrbZEoMVbybNPlXEoEWODLdDslXvWexSs9kw7R4qRBSdb5rjgUDUmsgbDF1u4TPkvXPJMf/I3ozCfHpVXV13/v3vclAOGW64sv8TkSfM+35HxWgrRw2IL4vPPCSTyx/2l/X/QHuyoAFFOk6G7EceHiSbHKRGhQkt3da2UyPb/jpm7uMZagQw6aAML10Bk4/u7zl5/9/aX5pb/6tx9/+/XsN59+NvXdVz+9Sn6RWpx+6x1jeiYWa08BxKDdfvzsm0+++Oqbx9MzsTfjb7+78ObchfYUGLGp2Td++pMnn2oXnvyX5y68N1j3EAT5/jEue2RC3KfN27C2oANYP9eJkiJUNqzPGzRVVLn1+hhF5PjQdioA6RBzpEd1DWqtGbZLUlEFEJQej0y3qUPKkm63nH12qRNLUpwRTH3mUdtBSmgkEqU6fZjavQqHLYjb9nI5x0uhIhKgsSNBRzFwdL/KmCWkyEI8s2lKA4dlqEFJtulqYTBROPnrcnXJuh8eHuiQ8CmqRd9L1AQwRVtBEZMASUWo8KHyznnIsri4xeqP8qkirN5ht+4Rkgt/EWrJGxVwqkBhi5lm4FQOfEdpdFlUPV9w94XTyoR/aP1TKgLdZ24Z7Xpn0MqEN19XkiJjUWbEj0O/mqRXXX8eMhW41XDPycsvm+0nh2/+5BeffvV46Zc3Wv9Ba/3tX7V+8037+G9+/ic/n3lrrj3VbrfbT/XvHv6HL757fKz/0z++fPH00sXzF9+Z/dWNX/zeB28DTF14b/6rT/7hxZcH597HOuQIgvRhfPna85nqpvkvtxnP4YpSO6/yZ8Ik5u6n20o0XrvpoJgBAMJWuDMOHMYbt+3T8eQ76xw21Uk17fcn1kS14pFq7md2957U5bt+Y7Yu35WgoIxkjTsJNEp23Ha+Q1YD7sYCQHzpKoD33tAPHnZfokLd4jbhnmWAgqIA7zjc/kJZE2uLNkulJcR92lwWU+WlMMGtK/mULd30R9bGRInVlXyK7AZZRnX5tqgGKPhMdYuRu8zxImG2vyFF/iHSyryUpvWJX/1Av7b39dV5FVy/VIbx7PE/GbPPZs7Pzl2cmYLjz5vs6effvn/lZ19+xl5+93j2jYuGYRy/bP/jw396/w9vfNb64sn/9+jp1189i00bsTcAjgCOAdozc+emZx6/eHwIhgGx2KTHjCDIK83E6v6E/0CfGaFjGZbsx9Ww8WEA4DEH9tzYnwblKzCg7XbY4M7XlRB/ovdaB9La261xq3fcN29DEmscvZPwKq2uXxvEZbK7Xq8GBlqcGI0dCSSpvNbVUq2DJlhxAguLHFTYYcdlAGCqTChY1spexuBIfm3zcI0S3i3RTLudO+jQChjlCfiUn/kakKZ1FvAbEuerjNcoIcQjGRuSWBOUwGDNpMg2A9vpMRYHDcpXQNg63Vdfzjv5Pre40T6C51/NnI9NTb1Y+v03Wn+7Nxt7fC724tzc869fPoep2BRMA8Dx8dGXv/3mh3/6e0+eGM+/ffr8889j5+d+76cLF9+aM4yXYLTBeDkzcwxPdaN9FJuePdlhIgjyioH1I73BkcPl3AwTHxmMGbcHajFFL0eyieqPmv138p+mTEy16g0hNTvpEgHeONGogaduo6DzKKcas9W29Zg0P+pvDw5vfES0e6KapmWXWnIYI7tKy+vXth/zcSvAMFoelbDFxGTHVz4ySZFtAcny+UV7Qhye0PjlRQBppyEmOnPb2JH88XbhN2qgPdJ3n++4D7ZFpD+KoCMlO9Gr1qRxdJ9VHZfAp/kSImNigxLC255oXb4rCVvMpyKDopxrXfUP0D8IYe++BGkq+G/I1kH4dy88TLaXEbSfX9v87viVNwAAGMfPY0dPZmdiM9PG1eQPL77duvTGD9vk3Yvvt9/7fTL17ltw/sKMAcbx86lLsb/b+V8vvP17P136yW+e/vbdD9792Z/+9NKbszHj2IBjA47nZqaN46fG8XPUkQiC9GZUHekQBL7X5dPGcqP3eUh4gyNDcm5OCK3MSyDQ9aY4bB56RBLXBahI6vaezjsfabp8VwIA4UN7Y5CkUIspUgwPLjQb8qXSq8UU2R5PPMMkG9cPHrqDHNK0/iEzjZGDtdQrx8ISNxMJn0iKSkHiiyX5WjUzD9p9qZt4vkA4dy58+FuT7+scaI8Muj3cLza6nOMlM1uckIDepmmd1fdyqVTu29tw504NhC126z7hezjQPVR4Yr54bDJoUOLSYYLCBIAePwKRIlNXSowB6Eo+D+WBXlcCoiP6nC7Erx0ZA4wYtAGOp6ZnF5Z+/8eLYMSmjo2pL3/37de/++a7uaczc9PHT5//8kZyZnbus3/6/Mk77/ziT24s/OKtc5diMWgbxrHRPorFnsdi7fZgZ0YQ5HvKqDrScoT58wzOANx6vXpZIlmeVMI1buugCcDdWOnY3pzhYieMruT5Ckf3xZUHeWvTWJJkA0kKNC2JNTOr1N7Y2tutQdf0YiZGgPsxbFmMJN7pPPVgldRxTrupnMSSslLl4+ZtE9X0OGDjg7TlxxntsGg+1LUyAdsU1yNfO+oZrAnsI8RHIVFShAov3pZXNlcOHjqSbOZXVtMgNjue7QmUNwJ9bxu4NKg1MUVEU95lAAAyPZzItjk2b9732v0IIdSmV9cj1JIiY2vuyjj6gbt7ci4gaT3auFS1FuAl4BbH82vh97MP4HkHAIDY9Dlj+vzL4yMwjmLwfHpmajo2/eLZ8Xdfv7g0O/PRv/ubz3/z2ey56ct/+JNfXf7V8+MXb/3o/PuXL0zPwPnpY4AjaL8E4yUYLw2j/eKoPTV9MTZ9bixDQxDkNeaU/dp94/p7ESUlNikyJsi5lB275n0w6Q92VeDoNXt7a2/XWXwuMqPHR3aSlzPz0CmArC8I9fVSapmI4YMd1oAaX7nBQU0VHeU8zcomHVWt3RNV8M2zXQdRrexopURQn0yjpke7xzN36O6yqDbd4XkDM9HGg7GjBjVK+I7Q7JOvHdb7MZRzitRlcUuQsmKpLEANhA8754ovXQXoXLhed7sa6MLulWdj0trbhdXVq6oKVLmx6yvu4yl/2Kca4ilQcbu8ASBt/i+e2axDLiU6apmNkV6/hGla/zBSI7Gpmdj5949+9+IYXkwBgDEVM9qPv3z60b/9uz+9/l/87I8WP/r0y/d/9PbP/vzyzLmpFvu69clv/nnqyvnZGTBeGMZRzDB15LFhHL98bpy78H5sCgOfEATpw8R+JsKK5JlYP83jL/ISRDyzyTINSrJ+b6y+t606LUmmkBIGL144anxkg/or4ABAfD4OVlZBT6vqUMSvrXKgOuSgVWzIrr2nHzwEAI7e9D3j51dW06DW3JF2XQ5ZDcKESEjdmehEaLxfHGq4GOLofnXpXueJrprBatZ1aR00w0quRKzz0pJLRfWEasib9uaKBCDccpZVukm5irihCFU+rt0TVRCU4M4M6dfW7olwo77UBLArVm4oZLEo2mJxgaQd90BgdKZJ7x+QTi/77jEooXV/ACCe2VQY4SdRSd79S6hRwrsWcWhQ+1/6wUMz+z6IWOz8G7//4sX54xdfxWbfjk1NGzAdM55/9823Dxv/7xsXL779zoUPfnZ5Zib2+aHO/rY5PXcEz1/G5mLG1DMDXgIcx9rHYBwbLx8bLy+cu/T7mKyNIEhfJpqvvbLXcSHZdeDE5Cnla9uGSZ445Z1dL93OtDXdfAEB9X1ajhbKFbKnaaPqmaCdEBkTlHyQYXIER7xHDprpEYU1u3VTsQVWFowvXQUIqtAO0Dv5YGSiNB52RezElz6e9BJjJadfW6OE0C0mmlN86M6e8dUh729i9xeythlruKRto+1eUACwXdtFSbtGNirArQtjtQRqOxXhFotD2e7DJssAaE1Rsl5X4is3OCha0RT6oyaAsBY45Ih+bee5nTNvXxdhqx4UlTk0lqG3R7mi4WnJ+eXd1T7vioesBosfhk7MzLtXpy6Rp58135ificEMwNRbP5jl/ts/+pu/PPjkk3+MzU393V/+9W/+9s0vvvzqxz+P/+yPfnrx4qzRPobYkWEcgXEMcGwcv3z6+Zezb/7h3A9+NuYBIgjyOjIJHdl1/LEawFXvx4nSsDV6RyWe2WQrSj7l9kwlSoxdN62VADCIU7uf3auHX7ujGAJrcQf3nq+ya3J+mScVh1XV65rUXfFw/ZrMfCiINUm6r4nJhHZfclsfF0gaoNY8aEHCV6jPNFUGq9f5pUWAScX/jdC4GcMgFEDyr6TSi8RaAfj7mnidqbB4K5nJWNkzwT7ZXib2wJC+iWGFJVR4et15d1kXnV8GCDVGwnB+bV3ZkAq3RADP8tVmUpf5umLmjLNDgHl9b1uFwq1x3STO8ANnfKTs2usw8EdpAJKiUmge+I30o3PIVABverYH82XvriyEiOy5dxbeWLzx7cfixffeiU2fj8HU1MzxO+/B8toVw4D28czTJ0fffvPND977g7nzsenZdmz6GzDabaMdM9pgtAHaYBhPf/vVG7/8r2ffxlpiCIL0Z/w6Ulfo3jUxM2+nsIwpCH1cBIeuW9VS/Cuq9STQ7mVqhTSn1lQuzamwGm5WMbNDON8iGeHMZ6psRc6luguBHDJ1KEe8PYQ1ASSpsqPdPNioAKRXHSkXptFR3X2gZzxzYqbjhC6CYgrQMK/3iAzbeEsuFVUoKGJpgTxM9UoS8pG4LkB2gwKMUfRMGnMZUihQ+lAUPbrZTOjusYYTwHB+7cMmBERBgDtPPLkmgNR8pMPC3q4rdtPNJP3aI/4oJUrViLeBGmh7TgfsadP9TnXfQgsKK5mBE7p8W4I0x9XEFGEKE/0FAWIzF+Z+mIidTzz/bev8/Lux83Mxox2LxWbPxQBihtGePT/1xttvTU/HYjED4NhoH8XgGMCAdhugbTx/8fx337Tf+NXMD/84NnMh2igRBPleMzXe5rQySTXXrAW1H+yqELZQskYJoY3xnnwUNJqVIM1xIPEkL7eGbaZjcPpwEQAWP6wqV8VUTtaD9tXKKbEmKGzQkMd4ZpMxW5uaqwkHewYjkVgrAIC0c4+pznI/5mc3KWc+C8sOA5PtHQ53icZXbnAAIGXdl7gl54PmtvkocHrCGKxxV5+txVTimU1FqPCuQYWjlamWFGhalSoqt7igK3liwUsAUOHtP0leGWggk8RMaU/TeimT+VAAkDYcfTMlJpfmoBZycyZFFvG2TIqMdY2diVLIUWYExfaeDmC+Cajbe9qDXbXHrZumddaTfcpF6KCXxo4EoDYPhzg0gEOmhv7EAQBw60GDCHmx1B81nVdK2LL3t194rF+MzWqV1Wk65JcqNjV96Udv/tH/8OQz4/nXj4+fPzWMl9B++fK7x8cvvgPjWWz62fTs8/bRN23jsQHPwHhhGC/h+Hkbnr88evbs8csnX86+8c//x5k3fgSxMT8dEAR5LRmjPVIVl0k3St00//SMNXTWsTtVzNWWOXrHjm9bJmzwSDWXh9qWOPYybszvhx1DjlFLHj3EzUy8kCpBenQ+U17fTRXVgCTWgtLDORvny3Q7Jdb8nn3O6bZbWOQAVNWxjHUU7RKx8S4dEdl9fidEpgBxlL8OYadMJFAYxBducFBTFy/H48mOPXvSucamuXpwD75lI7QXj7HKSUoab9Uw6tZaalCS9S083bN8eohfu++1M/PEzaV0zLgXXc6JYfbdSKEvvcpzuk7tqPFulUeFSic4ZHwV4L0kBl1j21wmVC2W5Gu3vJ95a0XZyeNBv1RT5948/8G1l1/8y2/+8d+8ZbSn3jxvzM48/Uw3YlPnLp2PTceM9vHR4+/Ovf/m1OxMzDDAaE+128dHL14+Mb79dPoS+VeXFq7F5i4NP3QEQb5PjEdHmpWHu4mo1pOMo3dCHtKOtdpOm45z2XoQJkqsvmjGUJYBovnXur/yAQ6vOF9llykhZOyJukH5tp3FlG1C65jYWNk2wXrUXoPOuTJHFMHXyZEPXMC627jSHKLwU6TGAaBT7ptbrzPvzCdEVie5lFXj0PfOcNhUAVTpIa1vJsy8fi7NSSPWfBkoCMEMHvBkyfTDrtDuUp+mXXmhpdFlXnJePrvaomsSwvTZaKVMvW9NrZ5O7fGgy7kU+7B7cbVy55uuUcLzZNTKrMOtfRXW2MFD4NbrZSillnkAEOwPOtK/6rpLzRzB/A7o/lpXU7MX3/rjAoDxuPlvjB88Pf+jty+8denJF19/e/ilcXw0NRObeevinHEM7ZjRbseMY+Oo/fyzx4+/uHDpyr96KyHEprBsJIIgkTHGwKdbf3El9+tPDcMwPrpzxeLOx85dPtnKXbH3sXbLbX0yjpMH8tGdK87ThfLxHX9Xu3y69RdXrvzFlquVj+5cuXLlzkeeFpxbAnezW4vUK+PTX+cC2vQQOEbXeT++c+XKFeocXNCIXk+s2e4/WPuOdc+2a+o+/XXOuknMnQeawE+2clcc0JB7LaRjfe4BL59+THOB3TPvqLCem5/mfv331qQNh2NoH9POuT6+0//IK+avwcd0+JN3J8ox4Y7ZM+8H12+OeTrHNyikq6GX++M77k8do47Ep7/Odbv0yVau8+8hbjM/7Xb7xZPHBzuf/vq/a/3rha/Vxecf//LlX//Z0V8vH//18tHf/Pnx3107+ttrL//9r57cX/zsX//4k//9v/mW/V/HL54Y7fYop0UQ5PvGWOyRXd+QvkAEAPAbeCwPqSPq3Fyt+DSxVmwL92wG+bwcuTWdJap9tq4erelyLspqjf0x17sr83HwrBNYUMa/1N4rRbfW92aEGTYvaIOSLJG6efSJ7mVuyaWiKmxVE/bOupIPNVH7L2tU96uXoSJf44lS1e9M1cqEr/RK5+omn/Fjd/ImIpfFcq5dPiIuk7lVDyhN68wd/tsp1NB0XLVe9SP9S2bbwQNRCViq3uyna1V3855syXlC1AiNBld7iMVisxcvfPBnc+/+Zy8+/fffPvo/H3/yn2LTn83OHs3OxAyIHR8bL59NGy/fmXnrl5f+5L9664fJ6Td+NDV7cYDRIAiCAMQMwzjtPryOBNYhR15BtDLh4eQXXBl6+T6ki6Uge7+zOUrbniYNSkGcSB+MtnH09OU3hy8+P3jx7W/g2adTx08BYsbMRTgXn730wdx7S7PvfBCbuYCJNQiCDAHqSARBkO8HhmG0j4zj5wAQmz4Xm5rBFWsQBBkR1JEIgiAIgiDIMKAjA0EQBEEQBBkG1JEIgiAIgiDIMKCORBAEQRAEQYYBdSSCIAiCIAgyDKgjEQRBEARBkGFAHYkgCIIgCIIMA+pIBEEQBEEQZBhQR74+aGVCCKGN0+7Hq4Ou5AmhWq9dNEpIXtFPqkcIgiAI8ipxBnRkg5KBycut0+72SaPLOULKoZpHV/LmEnCv/EqMDfrKqmFdzr26olOXc5HfQzzXaAyXbJCzIwiCIGeGmbG0oiv5VFEd9ChuvV7l4+a/B1iKukFJtjl0B5wnfX1oUGv4FZ5UAj73T2/PGRMUJiZC9nk9J3AstA4ZgFpMkWaUdbE1SngpUrvW5egeaS4bPQh9r5qulMQaAIB0VxY2M+O7wLqcS4m1Pl9wrZyazNkRBEGQyTIeHQkA/qcdgKn5pCGVR4OSrDSAvgSO7lcz8z120CjhvQr09AhTA4MMGcBWe8GT3KAkK0GaCr4G43yV8WA95oHW7Ye3ruRTRVd3upfVbG28NCjJNvtduDHjnnmVJ/0GVUwRc04KCisl+s9DZDVvNRiO73IAACRKjJX6dHkwWnKpqEKaKjd2+aJYUlZGe1VwS+SCwjb7jJGvALder16WSHb0syMIgiAnxxh1pB9dvitBmpbxqRBEgBpoUJJtkoUBGjElUbD0bMn5rATprkYcEe2+BCDcOpGrKWUDxN2gCjuMzszrSj5VXAx4/+miUcI3AzR635cWN5OQ4GNDo8uiCoKymUlARmkSvliSrw2s7J2XTNhizHGlesyz+y1IZFtAsqk8oM0bQRDk1WD8OtLnDBVTRPTtFWS8HBVVXA44kwduzCcdBY2SnTXHPOiPmgCLS/OWKzCAmmnoMkVM1+oTqLrsQ9zzP7SsbMkbFYDC2rivWjDjkoyTRisTHjw2RY0SXupnaLQIsVy6WRy+f/0x7yKO7lv3YaJUpw9T4jJdCviGugyN1l2XpvUPAXpessOmGjiKAFN6UqyvN1NFlJIIgiCvBhOyR/aSiYGuunHwivm1obEjgSSV1zqC47CpQnp1AeKJTZbx7q3LuZR4taNONEo2yL4iLAdZy1pyflkE73bThT0k+oNdFTh682Rk5Eki9fVrc56/kyJj1j8TpTrNpQjp916UFBkLmvuh/NrjoyMinV+ceGZTYYTnCfgGlbCG4Yk5adCeZ9EPHgKkPXb20LjJOF9llynJRgwzRRAEQU6TM5CvbaMreVdOdlYCACnrztMeezJsS84TQnKyDu7M8eDMaM2VW97dJzDbNHCj2QLVACApsi0BKrw9KG2nAnB1KZoRJiGyMNGsy7dFta8D2hpsSqyZNkuLkOQbTSqqULh1klGMJ4WgsB4oQp/D45lNVl9v8q9crnFLzhNeAkEJuJESIqvTtMT3KYpks0A4AOl+yL4NSawBd2Olezu25DxJiTVBYaaI1OWce/aSImOKUOG/l5UZEARBXiUmZI/sa+MJcHLZmR82YRkYoU/rkfzahx53fIUnHn+lP8StwpOKaYiKr9zgoKZK9zUxaR/S2ts1U1BdGw+a4PAOJ0WlIFnhaIc7EoBw3WluxSs4+AAAIABJREFUjBSjpnayQFyEXIK0/Q/LQtY3z8bcuOHo2+h4Hff+CxfuqZ9ERMQw6Eo+tb1qzlucr7Jrcn45Lw+aMHRKfm0r+MRlDTVtk53pjWc22VKZ8CRCrtt8pry+myqGj6Wg2KZx69Jz63XWec9pHTIAKUvAdaKEyJig5FPLRBxfjC+CIAgyXs6uX9sOFox+0hH82jWRr3F0n5mHW0/ZyoZ8027QzFlxB4FpZcJXJL68xkqJ+LVVDlS1sqOVEubATUcwl/ZvdAmyREkRKry4TFlBAhDWzMZbAGk1JEbNN2yn/7pXkvvQfm19b1sd5rhQ4pkAx/0rRpyvKk2SIqI12/OZqjkm81UhIqfg17ZiHKNEoCZKjN2U88uE9JPv3pfAQFpyfllU/enb8wlxk62VCe+VkmazupxLpcjuCSf1IwiCIFGYaL72KJjaReUd4YM9iPQYg0Q3rs2LS4PG+TLdTok1lR0CzAMAaPdE1ffoNSWg9PBAh0R8fmU1DWqtedCCxDyAFexIyx8upmrSTkNMJO2NwLkjxRLiliBlJcmZxTKfEO/Q5rLYb/iuEXXK2UhZuhbw1I+k3oJSIuKZzTrkUmLnMW8Kgn5NhdBH7pvK6QRFw+DxkTZdmeWTg9xi36z7REjIpIuwG3uwEpKd7nWUXPS4w/lMlWV0JZ8ixCc9NUp4iJ4R1ZHaQSRKdfqwtPtIg6Snb6/DWweCIMjryhnya7toSGINhHXaLPr8y67dhi+n4jLjpVdXXKolvnQVoOt41Q8eAoQ5W2vsECBuu7Z3H+gZPm4GO3LrK/EF4ACaj3RIWht957K92xW349j2FdLrEZ7T1jxYRiOtTPgc8boCR6rUaOVeWAq1pyAYnChyZABH/4D0trT1y82az1TZEiWOy3TI1F5lAcKT8Qfp6pAlJIe9cE452ynIIGV3FMYSEOG9IpJyjWc2q6gXEQRBXi3GoyPtROMOzmeztwJfBFedVXhS4DPxy4xkw6VkWBqsfd6o5Vf6cMgiPPgt1/b2ns5n4o0dCUC4HIf5ldU0iI6NroQDu6s7QXbEOF+m24EWGseRll1KsJ7oXZnSreds7VNQGFvQ7awFd3mmwNpMHhLCOicVpQ1FGGtBFo0SXkpTZUEHCGvW3EdQxnfWseKyCuuPmgCweDlsLL2sayduix0Quw4A25JIVhK2XPo7ZLkBfzTFQEr6rITDIgiCIIGMRUfqBw+7icZWzgGhtwKXt7m/xkp9fNBaOSXWOLqfiYOZ1Awky+cX+y7sNrln8AJJA9T6xV9arm12CHB4vxPsGF+5wUFxd6+VWXnUBOBWr3lHoSsbEnB0fVEsSm5Hdg8LTTfKrWOXsqRhmtZZJt6gJNvJv+n2PN713QevZ9PDYRrnbwlFVTI1cfg0DEAUN6u5zxnKtIgkg4JN195RjPFV50TomDNHykyP4qfupOMIr8jUIAiCfE8Zi448ZDXgbnTMkWbdGVi0gwI7aPclqEi9/NTdBVocii1SaWJ9b1uFNPW6jIPzYQc1cphu7o7POnS3lRsc1KSdxho4gh3jlxcBpN0HGgT2sCWXiiq3Xs/w8aWmxFeiObI90XWWX9uRKvSoCWAKl5W9XCq854esBlBwFxvylvrrnnStAFLF9OOPjL1mJguf0qC04tHxLGw9yLqIpiIPl0G9lhfy09gJyoIPLjtw9pc1D6kbAAAAVwdqqZvTfcaHjCAIgoxDRzZ2JOCobWbTysHlhcEM6rpOQ/3UdpRVYGlipUl4U0peDuyDJPr1EEQMzOpP4roAFUn1allvYF/88iKAKt3d4Jz6ILkmgCRtb0BAD3X5tqimaZ2PQydxJzhLJhjbfNhVkJ2K5fV1SBXZIWQyHwpiVtL4oDZbB81xFvSJTHheuWUobcl5IqqucY2LSAkuQ+DIcyJSfwOqLt+VfElXMPCKi2eGyH5tGzu42X0bDJBOjiAIgpw6Y6hDrt2XOrkjupLnK8Ct10OfAUmxvs5BhfcV+rYVFQt+fiRKdZoO2G52gZrZNgHNjomkqBQATKNLF95ryEquCQBQU9VOBR8A04wHNVX1KTbLg3+nIzgS4pYABbLQv/ayVeR8Y7HOGGN2KWmtTAgpwR3mUs9JgaYl3qy17mnlwa4aIGVCTxq0MMlQJEUWcqGtyvBmHF5orXX3zqNedF3OeRoxpzdaFW57f/POZ4zV1zmrtHt4x3SlJNYAQBWXv6+lts1i49ZaA1SDTml0ju6jiEQQBHk1GFlHNihfAeHDTNzhhXSZJVoHTXfaQZyvKgVwrONibc5sMtbLhBPPbLIQg4f17DGXh5nIsjemMXWfcq5tnQU5unutFQDAuw71wqJ5nFNcWprb5cEHgKTISpm4Xzy19nZrzmoy8cwmY6w7IVqZEEJ2rnc15WFTdeysCDUx5dPue9ueVWqszPRg/AuTjBNLGdsKMvBa+47x1eMc6qSp3Rt1dnPBcdPEM5uM7ZMN4l+RyItWNpcFEhS7z3G+yljPu7FBLX89q9O0Ki4PpFlfJxIiM79WEk8IWRbV4PV1EARBkDNKzDCMUY7XyoS3nNS6Vi7xcMu0hLnSgQN8fLqck+COkJmPD1W7p+P7M0Op3K7AiA2ecn5D/2I3umeJnaAOd/bx+gEDUlg8C5YEZSa5F+bWlXyquCgUJMmOMR17yJorrWfwZBqtTPjKUCm94UEUPuzEmkLY+kY9O+A/kXmgq7WIKcwc3S/D7TGUDQrCe3v0wlNDaix1f4Ld3AiCIMjZxjh1Prpz5cqVOx8NtH9u6xPDMIyP6ZUrf7H16cS6dob5+M6VK1euXMn9ujv6j+kVF/TjgMPoFWv2PtnK2fu4DnTM56e/zl25ciegldF7TwNON0Qzd0KG2f+owcf1MTWP+nTrL8yuD9JCZ7Y/2coNdLefHFGmpTN297R/spVz34reQyJfI/PGOJPzgyAIggQwqj0SeUXRyoR/2Mf+Z9ojz24Bv5acXxYX0XyFIAiCIKcE6kgEQRAEQRBkGMaQr40gCIIgCIJ8D0EdiSAIgiAIggwD6kgEQRAEQRBkGFBHIgiCIAiCIMOAOhJBEARBEAQZBtSRCIIgCIIgyDCgjkQQBEEQBEGGAXUkgiAIgiAIMgyoI5EzQEvOk7zcOu1uIAiCIAgyCGdFR+pKnpS1zl9yjjj+PDE0SoY4ry7nCCH0RLvbkvOE0EbYxwMNRKMhGk4rn9C49Ae7KqjivUin0sqncm8gCIIgCOJlZuwt6ko+tb3ae+FmLy25VFQBFrVSoruUc2VDvlnNzPv31ijhpR6tpalyY5cvqv7tg/UqIq293RpAYW2gRah7L12tlQlfESa0sLW38caOBCrcllciTI6u5FP+iQ2joLBSpBHE+TLdTomhV9yJdvCQgxpPKiBsMTFpDqf3IZOaSQRBEAT5njNeHanLuZRYA0ivDnbUbVF1PezjmTt0d1kU72mZACGSEBkTAcCURKCwElDCwxYTk519Mox3HaOVCf9wwNEE0pLzy6Lq317hSR81A2dU0CRFtgUkK5aUlSrfR0nG+Wp3YltyfllcdE27TYOSrMQtLng295OhqrhMxIDtHN3v6MtEZrOaAY2SjeYjDZKJRImxUmiLupJPFXsMCEEQBEGQ4RmbjhzMUuU6sCTWQNhyC6z5THl9N1Xk6fUgmTIyvXobrAhtKTOfqbJMd7MpKyMb3kJpUJKVhHBNNlkNmhSVgsQXS/K1vuZAB4dMBVgM+ECX70oA3Oq1QFXqFIX9cQnB7iwlRFaN3FEEQRAEQSbCWOIjdTlHTFkmrFNuoEMbNFVUufW6Xz/F+apSACk7ufQLQWEeFAEACt7N9XUurAntnqgCR29OQuBJPCGEEHKX0AJAmniNe2MlcZNykSMU+2A5+m9FEosNSnKy3v1bo73iPhEEQRAEOUOMz69t2uRacj76IaalraCEuVMTpTp9mBKX8+C2YLmtibb5MEvMoMlgq14UWgdNAL83Nnx/eaMC3Ho5c0jJcq+ITQDH/HTd4ipPJKvD9l6OoXUNkFo5yNnrpnfAZX/mM+X13VITdAD7YugHESIBpPuamHSdU7snqgDC9YCOuNzi0Alt5PZaGfP66sqGBOaltIbvOcRJuFF5MJMngiAIgiDDMRZ7ZDyzyQZ27NoisueB8cwmUwqquEzyiu7+SFAYUwqm+VARAIQt26A4NKaj9nLEVBwrrPMWH4ek6LVsdtgye2TbLOcz1a6N0zKIiknQHzUBQMqSVPMWM8flOFFXz7XkvGmkXBZVAClr/jEek22cr1ZLCe/gw+2gZp+hsuE+u7ZTAUhTobeUb1BCCF8Bbr3OWFfzxfmqPWkSHynl3GdU3hrpFkAQBEEQJDqnU/dHV/IRRKRFosTYlqAWU5OuQWMJo4g0JLEG3LrQYwDWMEFQWA/zmCMqYKufHLdlKNunnCWdGQtrvGI5xi2x6RXi40LdfeBoubEjAUBNTIWeV6OE2NPCgk3RSZGxOk2bQ8C6kgiCIAhyRjkNHdmgqaLaXzM5sYSFxEdUFR27nU2/0jAAoO9tqwAgZSNIrpacz/Z2ZNvqME3rfXzN8cxmBCva1aWBKxa5Az375mL7OGS1Xuc9bKoAAl3n1KLU1fcO06wZV+qw75qFNnkJTDNkxGlRxWUsGIkgCIIgZ5Hx14/sT9Kq2xOh8p+JGe4Wz2xamdK2ytMPHgJ3YwHgMPiw9XpHPPWt+2OnjTPhUT5VTOWhHi68TI92/9aiF1A8i/SJFtUPHgKkyQq/JhT5DUXwTZcmFVWXg7t1CFc5gEFqiyZFxtYo2SChmUwST/yCnovYPIIgCIIgo3AaOtLGUflPl3MpEQLqhPfSmq293RosfhgHAJKG3Uc6hMfkJUqM9eiKWQi9oIhJgGS1Dr2kpFZOiTVB2Scby73TXwRlLCKytbdbM+XyyXLIVOBocO0esKyVhaU4JIR1LlWUNN5lXzQzZoQPHRd0PpEpVTP+lvrQu8SPrxxSg5LsIPEJCIIgCIIMy2nqSC8BLlQzxWRxKSj+7+DBrgrCrSQAxFducGIxRYoAAAPnWfgyfuJ8uJRsUL7C0X0xAbK5IVzpqj5T2WB5xAdK3lqVJ03rA3ulB0KXy3srJZeI1+5LAELgzANYcZBmUra5Gg1fXnMYX33GSOfJBig1ipnXCIIgCHJ2ORs6chiTmyQWgVsvm8rFrg6jURJSJCYESwX6HNAdKUkvM5cwTYqWYdMO0wxcT2XUKjwAALDkKHmjK3kycoMhaOZqQC5LYUveqPRa7NFUmWuWTDTXH+Lzi6bs1uUcLwFH7wT7r4NK+WiU8NIrHQaAIAiCIN8/Tidf24P+YFcNXf4kjPBs37CzKHlPusZOmfAVju4HZ/zYhdDp3iDdGhR/r8JpHvhyjHQlP1IudoMSsrPGvBU3zRqQvpo+3c93PCpzPlPdEtRiijZMvz9w62W0IyIIgiDI681J2SPN+tvpgAhIK1E6TVcCZMchq4WVMAxMsADo7deu7GilREf9rJWYGL40M9i2Rl0ZoLb6IEg8sf3pjZ3eu5rJ0ZaX2VopEdQskQoKY1UA0JWBT68r+dT2ap35rkiD8hXgCgJUJH8ReLBiH32r+CTF+nozZVaDT9PyZB3xHTDPBkEQBEFOjRPSkfqDXRUAarudlUs6aOWUWOPofpAPtHXQhLDSM4HrTffyax82VUivnni6ig9bBfZYd8fnK7eSoxe6a22z0RzAzY0cgRt1tumbWrOkUZqWS5n4TZJfFr1S0s5Jcl9HXc6lxJr91xBVioZkksuOIwiCIAjSkxPya8evrXIAkF5d8YpIwldA2ArOpeixwt7g6AcPh9Q3h001LNen5yFBNCjJNum+tYxNl+SaACDdD3FwmzXPb6zEreqMoygnbacCALB6JygqwGM2ns9UrQqOnbKd1io+rlT0BiXE9GXXrXXKgSeTXyY7zldHmwoEQRAEQUZi3PbI+UyVBZV28W+3Vpp2JeT6c5+59XqI0a6nX3t+aRFAah52F4seLJXHbV0DELYi6BXb0Gj3PGipm06ajpeEuCVIWXutcB/OWphO3DPmzhCveFoTFCYuKBtSiA3PSqP2xB4kRbYFJCuJy3SJiWAZj+3DO8uFu1NkEiXGSrqcI6Tmq+LZo2Kot8OOrg+7ZvpZMUIjCIIgyOtIzDCMkz+rqSfCtFFfwrOhrdRjMelVdQDgVUhIB1sOhsk1XclLl6vigpxfFhetfSyp3Vfh2VV+xuGAblCSlfqcsSNtLbByEIIgCIJMitPRkcjZwdJ5WHMHQRAEQZABQR2JIAiCIAiCDMOZqB+JIAiCIAiCvHKgjkQQBEEQBEGGAXUkgiAIgiAIMgyoIxEEQRAEQZBhQB2JIAiCIAiCDAPqSARBEARBEGQYUEciCIIgCIIgw4A6EkEQBEEQBBkG1JGnji7nCCF5uXXaHUEQBEEQBBmEU9SRupwjeUUf/nglTwjVAj9ryXlCSDn4QxcNStx76kp+rKpOo6TXMLVySqwBt17GNaARBEEQBHm1mBlbSw1KslLnL269XuXjvY9YusqJxRS9zMQkQGeh514IChM7i0AfNlVIry4E7afdE1Xg6M3+C0Zr9yUAEK6fztLSupLnKwAAajFFiv7PObpfRX2JIAiCIMjZZDw6UisTUw91UIspsk3rm5lwLRlPlMoU9pYWdIA4AMT5KuMBAKAl55dFcCtR3yn0g4cAV5cC2m/JGxWAwq0ICkzbqQCkqZDst2OD5h8JVT4OoMu5lFjz7zGw5jNHJGxZMtqJJakjDQFBEARBEOR0GIdf29RtaVpnNlsCAEBNLAX6c02nMyGEpMSKyC+nSE/PLwBYqtHFIasBtxhgjtTuiSoISskyMepKnuTkwNZ1ZUMCED7sIXbtDmcltViSWwAQz2wyD/V1DmBxaQDNp8s5wlc4uh8gIqFBU0UVCgornY6VFEEQBEEQJArjsUeubrGqUw8lRbYFJCupzUPT1uhiPlNlmc5fpu1t8XIfLQcAkCYLHve3wx1sGfZa8kYFhK2u+xsuL3I1UWpkfIpNk4pqBGOkRpdF1WlubMn521B2mFptD7tGCS8FtmH1U1CYmGjJ+WVRBQBQxWUihp22whOn/RVlJYIgCIIgZ4xx6Mj5zPDu15ZcKqpQUFwi75CpAFzIEab7W1fyqeKiFS7ZDc3U5dsirNedrcWTYnm9mcrSNUdsJdjGyGDPeBdLGgpbXZ+1/mBXraklZcV2u3c87AmRMZ8u1Cjhmx0ffUvOL7Nb+xSWxUW/R7tBSVbyebrD5SmCIAiCIMjpMb48m6FwJMRoNHcgOIx8vS2UviQbjiyAVk6JQGkzRYj/CJUvrzlMeprUJ6cHHCLSJezifLUO+VQnQ6i1t1sD7kZgwo+P+UyVAbTk4NNlpUjBmgiCIAiCIGeACelIXb4bIQ+6QfmKVfJGK/NSjSOtiKZNV5KN/qgJAPCA8hUAEMVaUMpLS84vb8g3re1auZ+F79DyPgfmwcT5Mt1OiVm6xsSFB7sqcPSaw9zoNnyGIWVJQB9qYirc140gCIIgCHJ2mEj9SLMmotdb7aEl57MSALd6LW4GNXZqKFq6sAemCdBOsjlsqgCLS7xo570E5U3PLy2CKt7TACz9KqxTLvQEqpgNFZEAABDP3KEcSHyOStsqpFdXumeU+JC0Hg/ClidTh6P73gwexhhjihChNQRBEARBkBNm7DrSzEQGSNN6r7wQM3kFzFwTsiyqaVq2q/wcNlXTT+3gkNUcsYyHTDUFKIBlm0yTfn7lxFoBuIcHmuk+LijitaDed5N4QpKpO8xnyusc1CSpBtyNlbi9sbolhCaqO46tsk7jupwjqaIKoIq3AwVoQmQMk2wQBEEQBDlrjFVHNigh5uosddarcqRGCS+laX1LAOCEAgfgzHcxS/z0KqOjP2o6djhkTiUXTqLEqpuZROugGaxxO3oOIhaDjPNlmgboKloAAEiKSgHsIkF90JU8ISkRzJJJdQpiyrcGT69lexAEQRAEQU6PselIXcmTrAQgKIz1WcmmsSMVlI7QJDerbEuACm+rpUNW62NfjF9eBJA2TJtfY0eylZyu2IUpAzEl2nym6te4lgLm6L7pYo5Ga2+3Bn47YqKkCADssIdJ0lxTm6S2V+uMsc1MHDRKUmINoMLThmufEpQZExZw9W0EQRAEQc4Y48mzsddfiVbjMCmypG/LPsnfZtAC/cGGBP3si+b+yynSpPShBGnqCE8MNCX2LJ3ToCQrdRZyDFF/upxLieBaoccseE7Xm2JRdJQBAoCEyKrBzVjFIzm6z5jdSWupnoLCSgldyae6+TfddSDjuLANgiAIgiBnjHHoSLsG5EgxfPOZ6iYAaLSoAgi3+q3NDfOZKluihBcBuPX+Tu1eJIPKPgZSY9266mayzpaYSeqwnRKLJflahHURg2qwO/XiYVMFMDUlUMLvNMQElgFCEARBEORMMga/tv5gV+1b4sdcC7FfIrNZG5xbF7xttQ6a4FsFsXVg5nWrRWny4YMeb7udrJMEO3c7LEsmENuvXVxUGGOWiNQoIRuLdaUA8PBAh4Swzkl3o7eJIAiCIAhyooxBR5omNCkbHJRoRvuZWhNqu3s94vzMdaWjGCMBzKVr1DStszpNSzzJR8lrGR5Ts1rJQLqc4yXHEt5m7jZ3dSlCQxolhJAU+9Cs6WMqSFNW7qy5Q0vj/C2hFpB5gyAIgiAIchYYXUea6dV9iF9b5QDcdRbd2OUk6X5AEW9z2RtnWrRWTok1QdnMxCGe2azTtCrelg+HGoC3q5cXAdTdBy47oKmDTYOoVjYzclz9jPPVaikRoH8bO5JrbZ6EWeXSWfSHkBLc6WpKx3wmxH3KVfh87ypCCIIgCIIgp8Ho8ZHxzKYj4i8Md1ygF3uBbMcy1p7MGFf2jFYmfMWp5Kw+6MquWZBypAVhkqJSkPhiihTd2wtKlTdLpvepCmTlzXS67l7v272PK+EGAKAhiTVHxOd8proP+eUU2Xal+CAIgiAIgpw6p7y+tom+ICgFaee6s+53IjT5pUH5Sjcxxcfg+do+EiXGSiGf9RbEfQ9vdZdbtPfR5VxKrHV36WSOO864IudSKcLCR40gCIIgCHLSxAzDOO0+IAiCIAiCIK8eE1lfG0EQBEEQBHntQR2JIAiCIAiCDAPqSARBEARBEGQYUEciCIIgCIIgw4A6EkEQBEEQBBkG1JEIgiAIgiDIMKCORBAEQRAEQYYBdSSCIAiCIAgyDKgjEQRBEARBkGFAHQkAupwjhOTl1ml3BEEQBEEQ5NXhlHWkViYkJ+uerS05T6g2vpNQQvKK9ySOPqTEGnDrZd+q3GM6fZmQcQ4HAEBX8k7h6/lzYFpynhBSHqWPGh2mBVPBj3ly+tCS84TQRtjHww0EQRAEQb6PzIyrIa1M+ErnL47uV4eUZS05vyzCOoUGQHJcvQtFV/Jmt9ViihT9nwcMRFfyqaIa3qSgMDHR57QaJbw0UEcLCiv1a7XXuXpdEf3BrgogXB+u/RFo7e3WAAprA51YV/Kp4mLYJGtlwleiXAIEQRAEQUZlLDpSl3MpsebcoorLhG0xcWAhqNFlUQWAoqiC6PvU1Af+05kMLF5N7SsE9dMSi4Vb/gbjfJXxvRqMik8ahigkXc6l/HPRi5acN6cRAAC49Trj4+F763vbKqSpMGnV7u5VlwpP+k8aSkMEQRAEOXOMyx7p0nCmnJKydC342a/R3IGwmfFKm5acX2a3GAvQTA1KspJtuIpnNlnG/bmpwJYGEJGmGA2Rng2aKqojmABPBVVcJvbUcXSfVR3j0sqEf0jrm5l4qAoXUyRUrHLr9aqtRHuZY4MVoT3J85mq87qZsnL0SW5QkpUCXwas2wY1KIIgCIJMhrHoyHhms+r8O1FShAovQfOgBYkAlbYj1SRoZJwP/l7OSlMNpGm9Izhacv42lB1K9LCpQnp1oYe/2HJbCwoTE13DmFN7+fCoorMgK90mPavzBaW+CD3NsfrBQ/eG6GMxwwy8+JWZRgkvBVtYgxvW7okqcPTmJKZU4okEAJCmtADiQ7IwgXMgCIIgCDK2+Eg3CyQNEGD0AgCApKgUJP6uLGza1qkG7YhIrUx2rndtS7Z/2SVQ9Ae7ak0tKSu2kUw/eAhwdSkOCTHAnKlRwjc7FjXT6rlPYVlc9Buxgo1bPnlqGbpOHNukZ+qzjnDUld6HHbIaQGGph297VFoHTQBuMbJga8kbFeDWy5lDSpb7zaR59V0aWjWVorDVvdwOQ2lX5mrl/hEBvQMuEQRBEAQJY0I68pDVANKrKyGO5sRNyi2LUiOzZv6dFBkz/6UBCFKWSGla31zZy6XEWkD8Ypyv1iGfKqboZSYmrXQN7kY0ETOfqTKAlhz0mUazUpRIQf1RM9D+N1h85PiIX14EkHYf6JmgOEhd2ZAmnUZzyFQA4XJEparLt0UVBIWPAwQpfxNLrNs2S5eG7so+XWkCgJQlUkFhrOq+BA5DrNuUq2ZNiyVH96srgwwUQRAEQZAOk9CRlvVO+NAXAdlhfmU1zTHw1+JJJEoJdpPkl8UUAW69zjaD24jzZbqdErN0jYkLD3ZV4Og1h7kxmm1JssSEm1qvSEGTw6YKIPjDMRMlxkoRTmwSHE1oWdq8XO3ZlGniDU45BwDg1uuBOU/hwY6DJS3pj5pRdwWAhiTWgFsXelwju2O9Qxu7sZ7B8ZFOOtGZLTnvNkUHVIRyXxpneCiCIAiCIB3GpSM92Rt9MxuskErtfmAjrjSRELdjPHOH7i6LfA4EUCFNHbZPic+Ruj+Px4dTfHg8xW48fm1tpwKQHjnqbqz52oNJWBdeydgjqDEEfW9bBQApS5p9JVdLzvcJCbBvgzTtdxHjmU2W6RtjcHVwh/5ZiIVFEARBkDPPhOqQS/xgxaU1SgghKfYhY4wxFs0SNp8pr3NQk6QacDdW4vbG6pYANbEUXnjc2o38TN3KAAAgAElEQVR1RKQu50iqqAKo4m1fUXQAgITIWFdYtA6aMJQ6GTuHcv4MLMOjKyUz/KC+zqnFVI+S77ZHu39rUFBYhDcBBEEQBEFOkXHpyHhmk3Wor3MAEt9X4jSoHcqWEBljbOB6k3G+TNMAwK1ec0iOpKgUQC2WoggsXckTkhKB1hljrE5BTPnWMtGVvGvNlUOmAkCFJ8FMXNhpZVv13oWyqbkbNKQzdp96q+pRaMmlogoFRUxCnK/2lpJaOSXWBGWfcn0aFZSxmAPNwNno2T8IgiAIggzCRPJs7DwYVbynZcIEgdO/GVahuksnatDthDUXRAFVvC2vOMxXiZIiVDbYoQ7zYSYth/OUVeMAXed1jadWwri1D7deZwz0FoB53mRoasjgHuEBsdPJ64v5VBHoHZfFLiRGUKOEHyR6ceD+OL3AnRSoPPgc3A3KVzi6LybASnIKT0vyB4kOFq95oOR5M+4zTesY2oggCIIgk2FC+dpmBrEa/rlGl0W1oCjA8w9dqbjS5apHDPUoy6LdE1UQ6HpTLIqOMkAAkBBZ1bc7AHQ0K0f3GXMXTjf1kK7kU938m26gZzyCiAnLv/H1YcAqOR1sCas/GvjQseOcNOd2Zza94Pygk5Vv22sDYzrHUoVnybHmkK7kCZb1QRAEQZAJMCkd2TOBV5dzVs1qrezavretSrU8iWh5alC+AsKWmEnqsJ0SiyX5WoQD3auq+POCD5sqgCmPgBJ+pyEmonrbfeW+exKyovdQ+doAEJZ+DgAAXM+OBBVj73kEwE6ZSJVQG2GcrypNwmcpWe/dzEjoSj7VvMWuR9k3oCS+eem59Xo55BgEQRAEQXozhvhIXcmTnCs9pVNNpluzsCXnCTF305WSCI7FabrEM5t1mg5LdvGg0axkhuWZudtcaJZMcK/lHCGEpIqLCmPMEpEaJWRjsa4UAB4e6JAQ1jnpbvQ2ASBSHrf+YFcFELaYh/o6ByAovs00HenM/gYZY4wpQp/jOLrvP6qPIl8r9dknUWKMiRMrzSjxhKSat6JkVR82VQB7zcwGJcuiCiBlSap5izGGBX0QBEEQZGjGZI8MqrnorFloKieo7e61MhmHz9GHVc0nVV7qKRF0OcdLzmyM+Ux5fbfUXIrQV7u85RZjm84GU2JNUBhLAHSspHH+llDk+3WmQ9RlYw6bKgB3Flbri/e6FmcPu8RPj2qRPl+5fvAQIE0WumttM3RwIwiCIMhYGIM9Ms5X2ZbH5iUobktP/NoqB71WuOkynymvc8LiQg8roFZOiTUzY8PVjWopEaDhGjsSwOJlZ+ikMzfcNEyW4E7HKul0TyfEfcpV+Cj5zlGXjWnJG5VoU/Hq47IFDnBIEA1Ksk3TdOoSkck1AUC6H1Jmyqx5fmMlnrQuO4pIBEEQBBkXY7JHhqcwW7ijEnsT56uOtvS9bRXSq13jXUveCI/MM/EkAgeu5mLv40q4AeistuIoSLkP+eUU2XaXxQ4qf91/VRUrN6jnYj9eDlktMD7Sq8+GjY/sz2LUBQ/BV5EehK0I0s09mcFL3XQXz/SQELcEKRu4OJDZWnBpdPdN4g5L9S411LeuPoIgCIJ8H5lUns2IeNbrE7YcqiuCJO21uItdY0jY6uzjlT5e5TGfqbIVOZdKEdbVE32lczDaTiV0lULnbu4VdDoe/O52br3sUTbjq/vjPnualh3N9nOFxzOb/S6P/woOOZkjHT7CCkAIgiAIggAAxAzDOO0+IAiCIAiCIK8eE1oXEUEQBEEQBHnNQR2JIAiCIAiCDAPqSARBEARBEGQYUEciCIIgCIIgw4A6EkEQBEEQBBkG1JEIgiAIgiDIMKCORBAEQRAEQYYBdSSCIAiCIAgyDKgjEQRBEARBkGGYjI5sUEJIXtEn0vj3A13JE5KXWwEfaWVCcjJO7vcAjRJCypp3c4MSQmhjkmcOPoUu5zr90eXcoPehLucm3G0EQRDkZJmIjtTuSwDc6rV4/13HifMhBwCvtJzV97ZVSK+uzPs/0gAEqIkpv7ywd6BnUGWegPR57dDKvAQcvb4Q4Wrqcm6EW71BA9Tq2Gnt7dZAytJIZ2rJeRKsU7UyCXvFQhAEQU6YmQm0qe1UIEQDedGVfKqoeremqXJjl/dv7yIoTEx4trX2dmvA3VgIPqJBSRYCjup0ukz4CghbTEwGdFPOpcQaQEFhJUcDLTm/LKrA0f1qJniw1oGeZu1RB43C6q0k1kDYysQBADRKeMm/T4UnFcefaVrfzMQBoLEj1SQpB9afYYe7cfTQHqwbbr1e5ePB16vHQIajQUm222Xz1GNsHqBz7Ww8V9bGvCui4LzE0Y8KwO6JruT5CnDr5UwyDqBRskFCbjPzonDr9fI1e5N7AvuTpvXNcV7AYOYz5fXdVFHaaYiJgG+ZE12+LaogKNY97KAlb5jTEuHnBUEQBJk0I+tIz/O4Q01MEbHPsQWFlaqMB7AevV05oiu7YepEV/KpYkBj2j1RBUEJERz6whpN8zxphmu+cBqSpasqO1op0e3S/MpqGtSauvtAzwSet7W3WwMAYc311NQkS4qFPVB1+a4EaSo4PuqppXQ5l+rOdVJkW0CyYqq8xEoJgITImKDkU0UIGrupGj09dOuqlpxfdl5Kl24eSTMF4W9QLabItq2Sx4JfZlV48jDsFP1Usnd+IFFirBS1L1qZ8BXfq0iDmtLQuugtgLQqLtMlT0/Mb19BYazqajQpMhb07WtQkh3qKzAgve8KKUsCRa6wxcSk87VH4js72q9J+oNdFQCKKeL5EQh5E0AQBEEmysg6cj5TZZnun+aDLT3Wp35Lzi+Li8GWwg7aTgW4dSHsSRKfT2Q22VKZ8MuE9WnK1/R9CYATCiBVpA1FcOi5eOZDQaxJ6vaezgeM13rmFdZcvWrsSABcQYCKJN2VBf9ENSSxxtH9TNwauDJAX02SolKQ+AqfX7SESJwv0+2UeFtecZ9OK5vm0rFaE0ehJW9UHLZVsDVfTSwpK+O0SvqEsjr2UwxJ1/jd7cx8QtxUgPB8jnRmRsoSKU3rjDkmqpfFPSJOCWgKPmFLgazDpH3VsbfrddGjhkewUrtFoVYm/EPrn1IR6D5z6+BIFncEQRBkEozZr20qJ+FDj1hx2Ronga5sSH5j5ALh3LslSkwBwgeqt1C0nQoALK5dB6mieiVjck0ASart7rUyflPf3rYKwNGbrnFr9yUAWLy+BhVJDThQo1kJCkpmHnRlVwVuEQ6i9tRBoqQIlZ01p+TdVBjhbSMldPQKt14fSFX3oadHtachyvr36harOvtjmVcltXkIMCaRlxSZ8xSWv1UNOYXDKhbO4nh6Bp2XE2/cAggKU8C8gtcBIDAGo3nQArjXx0IsLod7CgoKM42pDUqyUvcUlnnTbfkGt+KfPFqZl9K0jh5tBEGQM8N4daQmFVWPQ/ZEMD3FwY9yjzhIlBgbqO3GjgQAhbVEcoGmJdGr/BJrBZAqQa5t06ntjRM1VamwlkwsrHNS0XugJYhLCUuGFhQxCdT07QZ587ukPX8nRJbwbamTXIrkaP0OlJZFtYe73CtigOv+U+0lRMyd/c16dIl7e/fPeb8cPwnilxcB1JAPB/Zrj0qYVxpgYZ1rbh9o1wM+0h81ARaX5nt61U/Kr90lLO7FQxSvdIPylU7QMIIgCHImGKeOtNJL75z0D72ubATbi+aXFgFUnyQyCUmp8bYt35UAQLieAICVGxzUVPGelnE88xLXBagEuLZN0yx3Y8W10eyq6em+tsqBqhYlje/KlMOmCqDaBjCO3kkAaDBQfGQvDlkNAMTUMvi8kG76xEeW4d7eSikTn0B85KmgP2qCfZXH1mZwThLACJlDcb5a5QFaMgfQfKRDstOIleDfzTILNwwHvgZE+zoMjifuxYXtj07TeoTQxr373qBhi9ZBc7Q+IgiCIEMzPh1pRrYVbp20Pakll7pP6165xkM1btoUradX3FR+nmybYNe25dR2Fz9ye7qtNB1Xto1tTNIo4aWokxnPbFrPaqeqcyoDh6axrGu6kk8tEzHA2NZtzcKUAg1KiCRsMcYAWnK+IooVpjBxoJySoXBJ+YmcwJycUDv6KH5tv1jXKOH76p5QdW7qe8sR7zFRc3Tf8woXkL4TYI/sndzdoBTE0SWm7s706tyQ0fXrSokxAF3J56F8BsJYEQRBEIDx6UizToc3FrA/rmeY/cAuKPWo4Wa6fFtUC5Q+FMUa+DWQGZp5a9injtemGKT8gl3bZoq3x6nt9XTHTQOndF8Tk+55a+zY3u0Oe5SIveRMmtY3M5aq61gQO15FX0pvnDcz5TVKCG9u6ulb1B81AThi2rvmM1W2RN1pHxPCzAQy/fvjZIDSQifu1zbxhh66sknsyzdZmnfz5OotdlPOE4dvOizPprdv+totmuZdptBhMqz1vW1VraXoZa/65BZDCn4hCIIgk2Q8OlJXSg4rYGD6pNeoYz257VAwX90fx66HTA2x9+hKSawJyubKQS64YwuLnJl8kBjGSuq3KQYrP79r20ym8Tq1fZ7uYAMn6PJdiVuv+5+xwhYTk7qcS+3eqFf5uFYmG4t2WcftoBEEehVdoYoJdyxen9RXr0vUISMmUOXRti5H83uOglpM5SGg/5Gsrb1ct5MhaphjcCRr3/BWsB39cKPM+DhAwh7g8Hk2ZsGEjH2D9blb/LEoVvhvPLNZh1xKzObDqmkiCIIgJ8k4dKRZ6y7NqZaU9EiTUfO1XZYwN4dNoPtiAvSwlOb45UUAiR0CDPHICbIp2spvQ77peIwlBXcKjplM43Fqm8lA7o22gdNVTqghiTVB2bT/PNHwL++1A+gYNQVln2yMvahTGLa9cCJFyMGTy6JRwkvFFGl2a4CHhTb2ZVKBhv3QlXyquOj+lg3n19Yo4ZtpDgAWL4808wdKPmw1gaC8MUdvQ+v+QKfygL+IFYIgCHLyjK4jrTo11es7pDYRwXPYVAGEpSAhmChV+2jTBcIBBDiOI2DaFEMKqnvyrOOuFBwrxdsd3WhuDDEROWyZGs1KANBNtdlaBYDFy0uD9r9DoCryluDxq0NHpi23Xmd8HACqLKOViTkhPQRTWHZ5WN2fkA5PtlaUg4TIFCC8ZL8e9PIam17sCalbJ1Eq+Tu6pP7/7L09a+NK2PB/3Q/3VxCkSLFknO0FKQxesAILCfu0wm732HKzpLdnP0DG7sM2lsNpraM6xLAQGTZgOGbV/kk8sIXhmFX1/wT7FDN6H73ZzsueM78qsWVpNBrNXHO9gmFT43Cz1ZYpxLM6t+eUqkuC5s7WJ3l8AGiiUx0LulEQue8SpJvlKmABAICKp4YZZtqXSCQSyYuxqxzp2VcmMzsub/fSoPQVHh+AmcW30fQwhd/DowdqxWWf6RQzSQRoRy3U8FUQF8Kl0iwCXaavfQxvdkkwaGeHUC1dUYSkVJSVgicV3mEkUjkCQMTU6w4Rake+iOiQts/7EwiRz12e5BA1AVIRWrCrNl28bdDK/DTXP5ITSpC+92tMFNvCrq20rvfk6/n2uOQbx5IYJJxACjjBdm/1WNUbWyKRSCT7Zlc58sn9/VnV7Kbm+NqRildUTj9o0MfmslVYDidqPecJeoQ2XF7+JB6gHYbgnAPPEBn7ydUYMlLtMC9AX8GZcrYL8gLSqD5vHij8/D+aZ8WdUYQ6oHQQxrxH1Ydl62tn5z4UkzieRd+/QI07lhEpjXs7TlUkylK4CkZLbnKlnWAyopEqiZh79S3itbdhTXMq3SdhXsiVg+GKbRESiUQieXr+z0s3IIFndRBCZK1PKMUqr5qtnX1IhNm4BCGyLHVG5d2ZBmB+dRNX6dpeeLqhHrdEs7UtQ0dy0LroAYCD/4yeUzn9oAHA6kskQ2RwPVYgUWy5U1qfDABw+qab/pKZ9ZtcvjWmlNIFaYI2WlBK7R7/YzHScnpgG3o2DbGN2HcauY9819vnZXk9pCdL8QMAosETJDJMPiCuKkvFArNuT7Jfd705rqMoCWUkewoRLemSINS1Nv6/J5jSciLsCaY0W9O/sbphG1JJteKN5O/U5nFV1bcyJalXgMXh7ebKKZFIJJLt2HNdxO3wzanceE2v+eee3dXHoI2GrTdmWsdV1uvxoHXRw/HImDWdg/N27Q7rETNuJGkRS9CTrSNhAdoQj7Pmpu25A0lJiEuliXKRISwDJUTSCSWz0pwqsC6+UyEZBUUEroovoAVMsl45UK58IoB/a1s1W3QJw055iLLUpFnR3PnsqqovY9fOIreKTIZdO0N1GlOQl4rX9r7NHDAuyrqgpPKVSiQSieT34YX1kZ7dRQjpEGq/QkFhSZifnGD93jyuqmSMUwe2AQ5uEK7wW96aSVHPsCPKG/dPlnMxW0dyYpAmAJi3UbUW11NC0qjN4r4TH8YbaIw0ADC/uu4QIYTQ1/OItm+H/Jd2l6xbk4TabGoAV23GeWkh0veFLX30lspLFdMFiZeR1EYLmvSAdInvergYaU6/jkqrwF8EnqmHcZB66OGjj6mTI+zL/s7qee6gX6x6vex8DhKJRCJ5avauj8zSmoiKgvRsOhDrbJLBFodIixaCW1MHwKhgyVLxPVk1sI5W5H5y/NVkUp16Is4OWCJroFiJIv5hCZfBiO4qcoaNdTUGbWRUXpLX1AFw2sgEMKZVfwwAu9bX3pZqqikWyJ8tne9yITaMfb9PfUJ18OxuPdBiZpc7r5ioiDnm1oTpCAQnZ3unQ6Slsln5aQ3EJZ2i5D2+mHJ3G+HMswd4zup5ZhxQRuzLzB+ZxjX7DjRJ6VhviUQikeyTvcuRogSE1RBlKj5oXfSwHl28qxY4OWhN6KnVqeMGAgBj+jwJZXbC+zZzmmSRFEpCGUgdLM46vE+00TA4zo8N3yHIIyZPJEr5xU77cvW1xREw+8CzOrqZMpfvK6QsFaukkfuc0RiVCw2bDQb2OqRM82xUqzuZiT2rg/jlenb1wePd3TjaaJH8YdzOLjggQV7+yPRONeWQIJFIJJLn4n9+/fr10m2IwNab58l0/S9mSdDX80w7dXben9+JjdVt4NrvfhcSiUQikfzOvDI5UiKRSCQSiUTym/Da8v5IJBKJRCKRSH4PpBwpkUgkEolEItkGKUdKJBKJRCKRSLZBypESiUQikUgkkm2QcqREIpFIJBKJZBukHCmRSCQSiUQi2QYpR0okEolEIpFItkHKkRKJRCKRSCSSbZBy5P5YEjR0X7oRHHeIurb30q2QSCQSiUTyb+Yp5cglQQiRZaXjiUAQWxKEutZmjy1L4FkdhDpWQuzy7K64PWJc0jZhfFtNkEx1kTsUtKQ67u0YnP7gKTtNIpFIJBLJf53/fekGhHgAGph6B2UW114S1Aab4nTdaM/u1vtOmatoo8VE33vtbs/q6CYYfttcgnQz5/CenSh+7dnder9mU8z/Z3XGc85QUIJcxVPDbJuzb16r9M16drd+c1aqsvmSoHZ4fyW7NPGMfvsC3xKJRCKR/OfZmxzpDpH+kC/cFKCc4OFoVe/P7jat1oHgAO/QWIwGdYQyBBeN3E+EPwzaSJC+Kt2e9coBqJU50rMHeK6R+0DAVTENRMKtOGhNaMv/xyVIN1Oip3/pPAHa6ddRX/B5qgM9q1PHc4DmWWHT0ld0+nW0Ejcvef4IZhtl3ZREIpFIJJLfghfWRwrFINxAvhCmkftJIE8pBwroE/rO6jbq5M1r0WZ5drfehyIRdgeWtyaA8T5H3ioUoPMor8oNrxcVQ5lucqyT99lPZGnieUwLyy+a/yuJRCKRSCSvm2eTI2MaqUAQUfQJ1Yt+uo7/G9PVRXEiAmgmWrRNMREK1xEG0Mj9BW0EVmlTR3EDdVyFFhciXYJuz0Vm913wfqwAjPMnEbbCh2KMyKqfa0n3UfTJJPr/CbZ7pj6G1Q8PTrKU0Yjc06ikq+iTBXTrfSf3VxKJRCKRSF41TyZH+i50ZpsJYhq5p/SAe/7V3pQTHSJ+eCkZMa2Eq2zX9qVYz+rUMUSM8pRiZqkfGxF3zJTX48Ya9GvBAZ59ZYIDS6zuQ+aLy7hOTJwVO0cWOWVm/ZZJxhuru21TD2sagJN3xElLKPhLJBKJRCL5rdmXHOk9PgDMmUoPAAB6Np0CapvF4RSZMSWGTTGl2Nf5XdCGvnqSKJlsmugw59uD1oT6f2+sQd/RRou9WmmNVFARE3mF5DhlBnpHw44JkUrrWqzarcR65QBoZ++kWlEikUgkkv8Wu8qRvtpM05opXdfyVvCDNXVE0SsJcZPJjhFqxwdAkz9KUNmuvT886zN2mmShK4lY5kwKAq7jZ/ejuUtZzJckJr777XmaQHWmtQXoXVR00HTNviOlT4lEIpFIfmt2lSMDB0d3iJyHPTQoTem46f3Ga3uPpW/Hswd4Dsa0pQDAiVAt6BKkm2LZUUOHAD/KXqu4MYeG3TP1dsQQXkVmLXWJXTP4sDRJoI2GTxWcJJFIJBKJ5Ol5kXo2Wq61WES+fZmJs7QwZlnFlObo5NYs8Xg07fnb48TRWi3VkI01qBjvXJX1qsL5lQNFHVBKF6QJAAA9m+5ViExjtqtkmweXoDoL335WFwWJRCKRSCT75rnz/ng/xApBs41SxmCmg/QeHwTyHKekEVmEb+cNwlPw1YcFpYq38RajQb1RBwB4W3SWjdVtYGhqMHe2a8Z++EZQP6MfxjoaJz/bMQd4LMp+Y3Ub2GyjMq6rgSJTJiGXSCQSieRfwHPLkeuVA01yGlUchnl8PKtTx2/juak3d7M5aB8OU+l/ACDLiMzIS9/NjxgifayR+wX5XMdAhiwVUZilEjvjK+tjjprTJQ3s9Gz6/hY9tRyZoZFdrxwA41jHVE/1A5NxY+IdC7jZaxahg9bkHroN7PRNV8/z4OSelPs2skskEolEInkpnsWuvSTIRx9r5LKlbKxuWFfaszoIDcPC1J7dDf71vs2cctEYnt2tWoZbHdAsazi7rtED3Ii1zVmF4qxnX+1YkcX7sWIhRDtRZPQP4fnAz/dcQ+bguNB9lQmR2mjx1EZ2iUQikUgkz8az6CPTWsMNAPiZq5cmnmvkUgXw+Lfvzoy+jsCmg8O7m5T+EoDp1WYfYpo28ZEiq64on07y/OxsxqCFP1rdht6tLSaRfOnuEOlg08GkKIR8L+RY9nON/incryaARj7uuxTh5rEgemlJmBApHSIlEolEIvk38UJ1EdfUATDeKAAuaZvaaBErdnLQwvewalxZ789mQRx0Cme1Bgiq8zFNW0qi2k5fuDTxHLTRqQKx8jmIRa7wUO5HD9QdxaL1yoHmWYE2MbTsC05AM79K4wFo0DxLCeVV2FjdxuwsGhcfpP/MVnMy+bVQqRyGgcu62xKJRCKR/A48pRyZ7bzo/VixqG3PvjJZ2sUEB60JPbU6dQeMC4EzX0J+cgmLthkzLeaOIohnfTEBjAuh8uzh0QOggZS524UCbaKX+i6IZfG+zRwA6NfRyqYDNZY5fHlrgkbKpmBU1C0UqExMjDk1ivJ0Nski0u3Miu0H0zCxOyu7p5+taUnqfSD3tAVWtyHrbkskEolE8huwN//Iw5oG89ldKfdE1+w7TDGm6JOIw9yaziNHLU08B2MqMkAvb00Av7giS0aokXtKpwaMdYRQ104LZmVxh/WM6yqnHzSY0/XmcRVevQpJA/SazkWJhKL4ZXL4rXWs6I25X81d9YuFrKkDoH3wheaD1oTaRvwQY0rjXo9McAyieeKPNQP3q8ldRQ+OawDmV7f4NxKJRCKRSF6UvekjFX1ir5BeoqIMQDJol0fyAoTeexur2zahZ0eUUup5D/R+HbE6N/wrFoDs67QOMKUYlgS1/cPE/pH8DDHNJdML2l3mySdUhin6kNzU9QZAz55U0pYtbwVZeQq1iUwX2LOprgBgSs8J0uuIcufOJdHHmUZ/gKjzQAki5vsoIpN0TgFG1uy7WSyap+h4AOBFulePG1DhcSXM0ymRSCQSieS18etV8p0cHf0x/bmnwzL5+/KI05n+8+vXP9PO0VHnr+rn+/vy6Ojo8u/YZz//6hzFuPxeovHBh+znqcb8nP7BW/udHB2RxCl//fr1/TJ6TcEBlfg5/aP6Sf6+5P1Z9WJBj+3abIlEIpFIJM/B//z69eulRdn/KktCAIsUnzzLY1ZQuTtE+sOzZGHcWN0GrlXMGf58zZNIJBKJRPKiSDlSIpFIJBKJRLINL1JfWyKRSCQSiUTy2yPlSIlEIpFIJBLJNkg5UiKRSCQSiUSyDVKOlEgkEolEIpFsg5QjJRKJRCKRSCTbIOVIiUQikUgkEsk2SDlSIpFIJBKJRLINUo6USCQSiUQikWyDlCMlT41ndRBCXWsj+M4dIoSI++xtejk8q4NQx/Jeuh3/DTyrIx54kt+JJUEIkWXuJxJJFhurm7EASfbCK5YjN1Z3y+XWJQh17V1W6qqLvfiKESHJJSj3hBurixDKP2YrPLu7Q1eUXoZzpvWliedgTCetg9RXG+tqDNrIEJZ/fB3kjSXP7qJdR1o5hN27sbplrr4kaLiVoJ5//o3VfdKFXDyiqr3anj3Ac2f2TQrtW+MShLYcP78Jnt3N2uW+MlyCMjfkgqOHotUk8lq5w/yzsf1/hSsmry6cH9hKV2pEeVan+EjxbSZO9G3mgIP/3NtFi0gs99XECfEdbazuK1a4/O/OZ3AJ0s2M77TRYqIrGcdk1o8GAADP+oyduXa3aQnkj+3xrM4ALkUyTZo5riMs+LyZLB7t2VcmgJZzqs2hQalhd+sI+30CsCSoHfSKRu7phLcqr0sBNHJfrv0AAN7djePMB9Y79hNWubvoRz2bDlQAgM3dbO44DXKc96QKcL+aAGC2UeKOtNHiYoUdAOjXUT/xo/yxUZ5y95u4dsl64htr0HcAwOmbrp5srWd3630n+8cZQwsinb8fXNI2AVbWx0kLrG4D57Qpce/s13wAACAASURBVOPun9gBjbzjI92zu/XVRU7b3CG6qvlj+zWwJPW+E7xuRU/Ef61ib2VpUnOCj0uQDhUr1JfEHSJ9HPxXaVoozeZxBaDVDrf6cf48lmLPI39X4t1bQNlJYwfcIetMB//ptgo7amNdjQGaOUd4hx8p/Wh1GwiHozf2yLTRgl4r/tXzeiNc1BhLoo9BGy3SfeL+iR0w7Kz2Lwn6ep4xDFyCbs+3WhcUfUhu6nh8ZX2s/o7kTgjJG+c/uTUBjE/+hLC5m81BG51uPzNurG4Dw4jAEuCJh9l27C5HqphSDLy7I6+TS5C+ihwX6fHi1d2zB5lKLMHBohUiJp0wucS/bpn3EHLWhgSu2XegZ+etoAeKAgD6hOqRD094z8GSoPYq+RPhrCo8Mg+ldb2ATh1zWVBpXdOW+Ei/c5pkEVz3oDW5h24D68Osd7uIjXU11sj95PRbSgrZWN0+GFOKD63uZxiW6uqtKPscq8kQfEKk57dIT/ePknjWifM3NW3u1DLXHvECnJbFAdJSeEwE9+wrM/hkA5C14LF5Kt6G2zFA7yL2Ao71boak6NldfQxab+2B8oSC5Oax9Oh3SduMvpXiJ5ImeCvLXCNYXN8eC+7af9xGydNVID2FOriB6N6lmTV1AIw3yZvLFMrTs1byE5cg3RR+uJcGZzdPvOTnU2bqELw7T8CS6GOAnm2Dro918r7gQfPZKa/xinIAAK1JbEHwV/PU8g0AGdv72JHRnnciU5M/7bi3YwAw9ZRWge2C3K8mjE3h3TExemUbE31NkL4SPc2ivaKDG8Lte+EeTHRA9nN3v5oAxrl/C963mQOGvf0G2yVs/9/HDqSvuC+dy07sLkdWh4vn2dZMpunp2SXnxNQK4YrGGZuqBAMie/BlK40i5/HsKxM08lFNKzsPa5ronYHnffZK65OB52ZM1uH7G95FfDlskgVNzTsHreFoVu8Xz1wiPOszdnr25MCzbhyYOxEpxP/qBDx75sydegfKSnuvACY2GVOsAqhTw2xnCljRn9T7NZsuHjt1DGdDemEi1BWvbWpSlklu0gAg+RAFLEm97xjTyRYjjanYYawjroQwbDpZQLfer3chdcW45u8VIBRW9ksoyYlE8z0LRiJiUxl7hc022U5hk4X71QTQkFgdmZhLn0IWrFWYJzdWtzE7C5sUmWOfR9R7OjZWt22yHb4CC/JQx/kPOuIv5NndAQzDF/MQaRk70v2pVOMDI9L5nn2Vfis9u1v3xU11kHF3/I7YDLOucPUiolffD0wT3Dv32++afQfAEYkBAYZNz287j0Z6BdxY3Qa9EG5t2TY1vNBL8gJyZMJelsKzPqdV357VqdNP2w50rhjIkd6SX7lDpI/Fx8dG3sYa9B1ttGgdMEdABwQ7npfeMZxgu2fe1g49AL/TT4fUNpG/XxRKkD6KPiQ3JgUXNo/5htFwemqSxXUL7AGeG/a1CgBcLdoPLOwAXPgGRWcCCq4Pj1+NYSu+KPobaz6R+WITH40neDFa1ft18iZrfHpWp46BdbL3yD9UMV1YnTq6KaHzECrJDhK6hDgbq9s206YlsVITAABqkd8O+o5gXdEn9gpdrRJKR8/6Yu5PiIz1PG9tz17UrsLNXlIFKxJo/OUquY7uhU3gISB6tUOtMyFvMS5tG62C0rqeRP9XB7Yx1k1YPW5A3dm6Hd9ax7U4r8z6zOFrKrlYe3CQ9azXOXYw/x5feq5OwwdboFxUWtc2RbreQRnzhmd9xk6TLHSFCTEOpB2HnsMQn4TPKpPcg5TWJZk18JVtTELdkEsawR1VZEnQl2hHZfuZbCJuP3O2fw4GQ5YiU+DM5n2bOf7SBlGLUP62f0n0uQnLVrRheVspNuCjxsMX5fnlSJG9LPr1sI7nXNMTwMzcAJZAYC+8XqBs26e6q3bM3A3DNxbcr2Zykl0S1F6Re/HElNCDRiay870100cdUFV0UU7CEzTZV0rrmn2rZgouAoWZS/oQuXeldUlgHXi7xhZCRR8SWLf0p3klsvxc84h5a8SEJL5ixdwYuCjcRukZinW4NlpQwfShtK5pa0kQQulp3R2i21AHLNhHhbNMcq6Mqyrj35axa7t/clWxoF8GNLUO5DhLbEGWn8yE6gIVbFqd4A71Vdjbrtl3nOadp+/t3Q/foDyJyrfTDZ9NDXaImgAVXYGz4BaeZG9vpXEMVdpFH24LeyIlBKND4UBlQ+hJvEt3JxAiY8KEiu/JqoGFNhzPHuC5Ru5bCjBHvcRvubFO3FebuAu1v2EzpruvSXytHBYKrwetix6+AgBY0znAW4ANQDPfRs9JWCZ9t5MwyoKbWdoo6JbIT9i23LM6dfw28WqXt2sz7aMWHDPoO9poWLywnWC7Z+pfLOPaH6FLEgiR8bXAn4Je045udzky5qmT0HZo6aNDK7DoXMzLKjHKl6Ted8SCYI5DW0JpkRImtt6QBSPPd+LkHsq3Y43cV3iu/nlYB0ZHqnsLOVOtFv836SlV4r4i10ouFUxzthdUTCeptQfnnBz34Un0ATv4R7IgoeQBohc4ECVXicCOJlnQSVwojy9mJ5hS7A4RakefnQegmVww5SPE+BRRKEcb+WOlzc1ICJdnfQ6eKYuz0e42rbKi3sa6Ghs2TT2EjSBMx4m/78+j5Kil3PWiRCVdd6ibBV5ilci3ZfucYEr3c70qrOkcoHl2ukdhKOEcuV3Mzf78IyOLi0ZGXHvuG462cd4opvQWtFZ8SHUCnVN6AB+0JvSYID0pSvouYWx6d7+a2mhRoWd8E0ew+w02bO5XyPDRAsiPMWX8uJuFa2WM9cpJnMB/hX379YGKrys+Xn8mT9hJ+Jq7JKht6kg8kyfJep1F5iAup/q4f1ZQo6ofidbA5rJ1nryuC2CYbWQ2yeL69K7DFG3Prk7OZXc50l8Xi+Js2Idm34EmEU92TF5MBqzwhZBcihaDTKd4f2LaSQ2Zfm14XEVU7RTMbtpogQX35dA1QM7kvrmbCbUIpeJsBPOvGYoy0W+3kM+EP68S8A4gcPXjJ6ljSD6aSgGST0JyOHmPD5H/uKXYPrvRERL8Whst6P1dt1Hv/v+f4fLSAcOmF7dIL68NNcONsqIOJjYgnY+uPKcfVZ9MdHCHSL9hirdQVOXbNvbbTXAJMXwtPGhNKLhDFNvG9Gz6ESBHfnqFLmhL4vuwlg3bz5+dfavI6zN9+q9qGCK6l5MmnCMzYm6ejdjTWRLsz3WUVmhSYdqBGC8XZ8Mmw5gYxDZyYZNUTBeoU6+jWXJyCHQQTbIYCJrvrNbCHamPd3fjiD4vjrPJ5A2TugpirgXmspg+pcyrFyxb2QefYEoNq1PHYx2Nc6bW1LzRs+lATa5TkWh3M9J434e+9Ct5cHrW1CikswOp6kClH1G3gesoFkT/enheu/byNnPTKdb0eFZHN6Fs4Db/TSnDU0YDUqSDG64A4IcHJ0pEMdmt92sX6W1HtlNzOEGsqZP8Uih7AYBwb5SIz+3W+46fiYafJyWfpbw9ErrbZqwZsZ/zTEBdeJ1mICFvj5XiUD5OfOK+m4GmgeP066hv2BTzDaieY8b1N6ndLgAw1XKh72CWZc13eisluKiD1NDw3Ryjpy0Zr60OKH0f3xluHtM/yQ45fxrW1Cmr+3FJ24QmMU4gy/Je2h4aI+Fy83IkFrm9S7fe40NMwen9WGXH3LwMuc8uqQXQALiENIcy+V/iL1R25Fa+m/IWcMV/mXgR3zEmyN0TNIa9noJ9xSFqZhi7QnloTVObLnVA6UDYBrWC+n15a4JpCjw7mZ9YwjBdNVoufCNKuGv7Xdc2cQPh7Kto0WjU4NOI+3X9xr+8fWWCZvTAHAMAKO/OtN5FYnw6giR3wYPmvl7uV+FNRTMDVo9Ce2KeTI4UZug4wXQKqJ1y7MgwF3IFQOnA7aTpLdM0LJpz47ood4h00U5FFCTkmpGoWJG8kjcjBJbT2WdEPwVGzIwbTLZfxXH7o6JfGH2nyN1+B7u2b0/BZZNK5txOrs1IZEUtjaDDy6Z9ieB9m8GHs9rcgZF9dpNK7pNQwAtDqnch3NiYV7Yx0RWRvjYVBhhNBdfATlTqylnw9r4W7g3mzmWf3ej4rU3fg0iU4YtQ7GfDpw6Xfm2YOoJ9rivJpHfe3U22KSmHp/ePzEAYr82DVEqlYIxSPuHUdvlHOYY9Bb1tZrhTZ+A7xkQVkzEXZ9FcmidpBeqemwFaXdCBWmYTHpn6BFEptaCpTAAoE1JZ1Y9is4a3GsBZBQvkCab0nKArlHC0e7jqIsfpEVL22mHErQED3nsHrUlK8q4Sj+gbGaaUXpdvx8vw7HE2PLgVD+zTmBtZekMQuEWWeuEjhuxLGFTRlKxXTlrHwVRBoiitpIzCcxn414rLK8xpNzOoiOUIMHqGOTYBNLPdRfeTuO5EbAJOn2cHqasq3Mu73Lq1pvO0YriEXfvlJRvX7MPZ/TEFADhsXZJZ48qq1XDfFxYPkQaw+uHBiR9lFckZFkW0B02jRf6O5PJkDjE3d57eSqgEsrY6/hniglTJ5W3P4WhbEqxbZvvWplQFz3tnGw0mfGiFP2c9ozUd52mb+bLElKye3a33TR2t9hUv4n2bOdG+Zu43PVGazHxeIn9kLqox0sx+XkrqTLEpV/zlIkKV/KNCtvt5bHJIuDjH59JM65n/vfXFhJ5hjE0TQOMpY2Ob8KLIpMy8PwCBALBdIrlcDtTWYFJ9zWB+/Ixg4j0b0okCntWJz949/4/oSGie+d/aE13x7O1a78MShTYhzyz5+thzPZvCOBsIdGbM9pqVeS7I1BOsapusbNUJV0jP6tRLxYVFaabNNeWe4sYa9IHcqxn5KZXjtwAPjx6okbwDoYMIy1B68R7MsXZ2OTz7XC+t5wvO9hJ6l4PWZErRV3S4yXX9BD+z//tSN5RtOtmaNZ2D9mErU9zy1uxd0APgW1I+F7u0b5pfXXyiwsHpWRMwd0n0Hh8gK5VXSbt2yIb5pPN59vgtwBib8ZQQvu+mM/vmtVInd4d1PDfse3QVzOA5y5vIszn1Rhv2vcgndO+wHVHPptMaapu+EVlRDhRM6fkQ6eOCeh6e3dXHGrkfwue68xwtfhX4ybPKFTspd0L6hqA2z0sF8Wwm5Si/ED7rkqnoF0Y/TyWZtl0USE476SD3Dg+zU4VOlgDKmxrEDVaxcGA2+Xw6h7GpfRgOPwxyM5ptA68uw5Qmsf4ULWfxTbg2WkyKzEolXZjY+eKmudnZ/YJ8ruNIWYGydm2R9rEyLFFo8HeBbigwRj1NLasqPFk9mzzvY7YjNG+XWBUub7w3tWjGHPdP7MwhoQ8P3pOIFYD5dmTZTNMW7TCWwg/9O7/laczXgq0zT+XDHhs3HToNhMGwRVPhYU2DMfW9mv33ZInVE2AGcW00VIGNBqV1bdPOLRQKZ37Lmc4pPk2UMYuX9I/M5QTTEjPLC/tUbR5XALU3a4LqVaZ5jdwP4YtpfMIAiYqm6nkPzPGtO1BVtklgD5dPvnsyKkb1B2x7GlF8cpjZsak5N+mkNu7tmGcs2+rymW907KgKropVCO59eZv6jqUMM4ykd3x0UXRNvt57293874vypgbg7POM3OrnB4pVMGoX7W9zFHvbZzPxrE599qGM3VA1RtpqBeL0B6Iz3904AEbafSJKfhqBZ4MlzoN5HfXBmIp25odIAzOI/vStQC4+UcEPMR6e+GuSPrFX3dvyXVUKpXVJZn8ep0Sf2HYiW3bPz0MudGEq4Wp54Of9ibYzovJXB5RurC66Orun1G/SFu5S2bikgR1WsughFjtvvpmI0sn9G/0jhRJD1qulvDvTwEkujYwML2N1QG1AiZJQIg1W1taW2VLTIg0zvB4r4N09JBSTTN6NXdH7sQqVQJvHVVGMp/KmBmDeLrEKySQOPEOprkBYzF7F1yosCWokJuGYWByk9adzADBiFoqs6O8Yz5P3B4D7DEBGEtfysv7Wl6cOaGeHais6JMQp2RK4BFiIRpLDmhYILup7A8arxw0cMr1yxjCobtf28bMrkweM4yGWvNbWJYLGLFWDPuk1W8btIbAkVHHxfN4dAtdtYzzA50OkN8gxxeH1/XImOJ3g8r+B96NSxdSSqJjaUDkYPCdLg6bNHaepaXM4ewIlCttWFR6m6JMKo4Tb9DMLhzxNz28HM4zkC0zHNQDzq4tPIGlDY35W05YS2T+rg4kKbnorHpvVq/rDFGvvclO7PAtZ+UOc9HJW+vaFa4HBk7txSdcdRr/07m4cc57W3b4u9iZHrld7eepcwycM0ObhqwJ9eKkGUqF/D5MF36uwsXy/8nC7wzXwXyzjuqXwCkVDcsP91ZQyPnwn5waYQVkOOlCDffPFKqNmXUxHW+gfydS67G+/EOeOCIsF55Kld0wL+uHLKXr33CHSH/YmnHg/VqkgDNZFUVW3sFRSZsYy5d2ZBphvJA6RBubsmws3DvQuMnNSV7Vrhx86fqYJnPCO4JrsAzhr4mJT5kGYYldQFGqrCCEWH1aQ02qfeNaX0AM1HFdvagArALZncGrP156XxLO79ZtYPEFgy4v5kOTX3SmHO9RN0LSmE0kotk2T/Xns2ESO8/Zi8ukW7TntQzjDp1On7ACrr1Zo038lkexligIwo0qsZAsfUZ9oRgGCkprCLWBpAVKdt7w1AbQPp6LRViVCfAeSi1fovbC9HTlrLfDsAQZhKIjCS8F9tk5fged6Fv9nT+dxb8dV5A9mFEtoKzdW1w9QyljSVDw1ABz82ao8U2QEf7EqRuiQ/3GWrNaotK4pZc9vTR1YPW6U0w8azLG5TJwJ3CFCCHXteNN47JtG7qm/R1zTOTirtTrY0elEPe8BAJht5KOvRjZJWqXjSRDFrK0OO0MdzxMzpnubYYHy7G5w4Xrf0UbDolfLJYh5DixSjSzf1PJ4dzdOXIvAPAESbuBryvpw6IpOkuLguMYTsDH5jE7ePc7mWT6gKqa0cOlV9Aml0YnJszoop2IBS699oSuseDqMdZIajUKO32oV7jTBQWtCQxv31Rgg2m/RbwM2Vhdte7kESxPPecngFA5dsz2DOM7pNeMOEUJda1P9l3NcRyj6AgIkKji4pIFhtKB0QZqmvtVT8AtDDCfXlE4Np1/f5mlurC6q47c2jS6EJ5jen80aqOTQZc3h01SnzPxv6kHvFO+uBSH/DL++Wp7cwCI1863eL8OSiLqLT+naaEH93cV65cCcrk/w6yiRwpJGG9nBQM+NZ3fRF7S4JxpoZHo2a2z1zmaj6BOaKSYqrUuizXF9LxPp07AnOXJ5m6xSI0iLGBBTLfCP7C7imsg86YpnyZnjgV1JkuR7ypSYyJTnZ6cHLKtFXjWIQLmlvDvTAMyv7KG6xJ+sbt9TGhUa2CLaNqFnGODgBuGjINCA7ow6oHYv/FcbLSZ6QlAO3CXNK9uDtMjCJCFdbV1Tn3ioHWLaCME6pOgTGiFfWnKHCDEPlTy9CCuEVT0mVMjSjMnEbDGbp7aSByq+pouRBmO93PqkYkqjsy0zMe9TgtmsKUv3IJrT/fS2fjeeGKQJZpuUmGMUdTChUwPGV9UmwY3VRdHz++VuKaVTI6ffWMzvHoY6c5hukmF6jJ2cGwCrH9565Yii5Qopr0biFc/2qnZyb8fbFKFR9AmdGvHPDDvxDi5vTb5XZ468t1VXoWRRkxNM74k21v2tsoMbEUlW7BDpWR2EGrgmHMwHrQm1oZ0jF/qyYNsEALM9gEtKKaXXLSXIlhC/38hgM+xgbronWvZtMt8bYQdYHaSPizw92J4q2+r9/DCNBkIIfT3n3cW/YYK4boJh9MDp130hPi9M8IkRzPksaddrStSK6quLsBsPWxN6QRspndHTcdAajjSjdvhc16vMXuzaLmmbQS0m/lE6DcrK7CLT4f/E7SwsxQ8A5NbbAL64gjtEen9gvSudhp7/Nnk8q2JkfGopoVEbWKZWMxm+4Jp933Z5cHrWBAD4/+zu/+0DiXjd+qftBuoBHgD0Ea0aWEemNiK1PnZAO8tYjTJizVKuhL5ROG04jtg1WD8EReJ56GVpKY2ZgNmTcgnSUeGUKjxJEE1PRZdOuu4Z9n42xCx7hR11A3UAhLnNQua4jmimBTAvKjOSx7HJjHdbx9EbNsX4Omq48R4fYtnU42onnhKvbPrAVCr7LJ8E5vUVKbEDAKmiGmEoRqqoBl+hd5GwWav8cSgeuiqeGqhdd8CvKVwWFjyh5RyRdpCqVBABClMQMCOJ2HhXRGF+mTAvFYhNh7mwe0++76HvP6Sse8nYGt57PZvmFbVTMaWG3a0jHDq6BG9rjp/fQWs4mtUT3mZ+puFk9EPCASnlLpwWWfx5OO0PIAohKpuc7unx/d2TNX6CWw7nYQM91HEbmU1C3mKck9ciw7s6NZFq5H5yCpCXPzIFX4IjW01xbeRM2E7M/ye/Ilp2dFfWuubnVksu8WzcukOE0DOVKFT0SaRLudrrVXhSMH7tzHdydHTUmf7z69c/085RyOXf4SGXR0edv37ufq3whH9cfv9n9/P8nJKpqFnfL49S/CE8Ms7f7HeX34XX+oOfKdkVf1/yDtwv/0w78Zb8/KuTvq0MOtN/fv386zLWqvjzzeXyOz9YeF8/p3+U68+d7n2LLv1+GRu3v55g6Fbn70v2Nn0nosHD8B9N7Nt/pp3k7cTOGT5s0Tl//tWJPyP+UggPZm1Ld90REb0KeYSvCfvtd5L1QpU4T3KMJd/rl32yP//qPMmLHxC+sNU6cNeGsdElfsEzR4U/O23xrPdK3sT1orCGVZ42+ZgXzgPhiiB6U7Z4OwQjJz4Lpdeg9JRVdN3IFLHHJxVOiZ3pP/zfZEsEywprTDhoM9+dUrf26xeb8URPOdF14on9hfifX79+7SSHliqPxopSbO2jLZH854jurbXRYvLGLIqG8axOfQbk4rq1b91IWFkht/x0PBXFixRO/K1wh0h/eBWJ35+RqsXuJBLJa2dnOVIikUgkEolE8p9kX/HaEolEIpFIJJL/FlKOlEgkEolEIpFsg5QjJRKJRCKRSCTbIOVIiUQikUgkEsk2SDlSIpFIJBKJRLINUo6USCQSiUQikWyDlCMlEolEIpFIJNsg5UiJRCKRSCQSyTZIOTKDJUEd69WWRX8SNlYXof/cXUv+A3h2FyFEls99WavTtTbPfNF/D+4QvcRTk0gk1XhSOdIl+5BL3CFCiLj7aVJJPOuLCXM8sP9FMtWSIJSzqrmkgR3QyOXOVdqYPJp3rchVhzuMkI3VFSwzntWJndOzuyUbU4ElQZVJtMElyU88q1NpqLsEoW5qiEbel6IXkD+p/W8ePLubblj5X1ud/UoP3t2NA2Ccl6/QuCQiCUbc4ZlXtQd47sy+Ve4Hd4jQcIcJL+9NLz0np3eV4j7ZGs/q5N2mZ3f1MUDPrlpXk+0ZRI+p+N53mo786yfe4pdYvySSZ+V/93guz+7W+0DuJ62DyKdvj/Plkmgd4Sh+MV/3dgzQO3/eaqxK69qmSDdv7jy9lFwlvvd00eE0S4LaZqXG5Zc53grP6ugmAICDGwinv2+WrwLM5FEAcPCfbqtaFV3P6tTxPO8ILVKl3fs2c0A7O6xyhb1S4UEsCWqvYp9sAJoObiCaOEkTlbwhz74yAbScIzaHBqWG3a0jHPZbbLxp5J5O+IjlRbQz0NJjO6dpdzeOMx9Y7yatgyojnA2zzd1sDs4cJaowe3a33ndEPzPy3i8A2NzN5s8+hyxJve8E3Z7deEa0e73DmgF9vVsTPrLCn4P3YwVQOxY9LDZmjE/F77L3beYAaB9OX6b295Lw7hrrKG91SLGxBn0HenYwSwR49pVZdZ+8sbp8NhMhrBK+uZvNQRsZ/hcvsn5JJM/KHuVIvukXzl8FJMSU6Ly5vDUBjPdP9BoWCS5zXBeJVSm5yru7caBJTre4dwAQTIue1anjt6l5amN1Gzj6t1PctkKYACFcjHn/lFl4/ON1k61qa4LakbWwPMLZGfj91t6EZ1uvdurzJ2FJUNssJV8eqPiang+R3karUfVeAtfMWC8jl1AUANAnVI98eIIpxX5TV8mfCDtfeGQeSut6AZ06bpBjitXgitHWD5E+zpBND1oT2nKHSB/r6CExmJOjNL0LzdqXZkkkEQrl0cfSveCSthl9OkriKeShKDq2V/D4zv8g7ECXIF0kXsd+v1450BRur1yz70CTGMWbHz6ZXxQOy43V/fN4MlChWCNQFiZza8KXgi0NwluIrhqRZ+2fh90RpPfJhc0THZC56WKbW/LOb/ny1gSNfJRipOTfzP7kyKfZ9LtfzWoGqS2oJnh5VqeeXBWXJp6DMT02ERJNLo6e/jhLWirPQWtCW4K2FSmAYzBhNKMH3GEdz8svA0zo9IWDA7wYrer9Onmzd+0pb93tGAACQV8j07NZOxCskxsAf/0okhWeF3VAbejevmH/rekcoFnqh1y58lEF8KzOAC5DgeywpgGYgiH3rPeutC7JrIH14blonLu3Y9BGwxwFpzqgNqArOA4+Wa8cgFrhhdUBpYPI/0uC2qZYKHkqBNJehR8G/41NDMUTxXrlxLXS3uOD2AqUVMgtCWqDeEgsTRxTqmU3uIEdAPKe4pNUz/NLrMoq2NkZh0gfZ8w5G6vbNvOn6/gPXYJ0LvovTQxkQeM/rG4LKoJL6v7m1rO+mCASXiNU0vRLJK+RvcmR7p/Y2U1xKDIBM1lBuCg+hXl3OzzrC9siq0pK8VJs197lwnZ3AMPIArmmc9A+HObMj3xG69l0oIa2tiy1KwAAmO1Y72d0u0CpqeiTBXTrIn1b3MzHr25MFyjnZuNWbM++MlMrSou2fEE//CrL5eCVoA4msbFRZhuwsQZ9RxstWgdsyXdAsFC9tMR80Lro4Vrt0ANI3BEXaN4V3Kg6oJPgn411NS4j2SRgC3kJvRonJsnx1Mp61QAAIABJREFUkd+zF7WrcLj26yim/0vIATEhMvWG5qPGNLdMAq6VkcJqxwn/gXlaIeeawZgBAADvEBmAr2wj1bySncadYSITgkvQ7Xlk1PkW9myzD28n68Ow8xNzTvwn8cmqlBbAJW1TGy2yD4s+d3Z+jdxPWoWNScCsZ4H1Zmn6++qttxYSyW/AnuTIjXU1BhC+clUdXKIsb9k8Hr5+zLi5NwlSaV0znR6b6cosvcFPgkYyZeTO4SmViXuhAbe71d4oILIkMt1AsOZ5dre+uliMQCjmukOkj1O9kSWeZis1FX1C3xDUrqNVbA4NzHzuEOmh7dKzci9nTGngQ3Z342gfhi/jvLUrud4U2ebXwEJnfcZOkyx0BZjCPrE+8QctHskJR72ImvZ8m1vJRR1QURtcs+/kOHa6Q6RD/I6CAZaSbNSPRBtjf5+ZVO149qCcXi08H39zkv4JE6r7XiVRD92UTdkd6qvRgvIDXLPvOM2yPtZxXNI2oUmG0VvON6yztz76mkfcYNyhbvZsGjmbctDCU4rakQmEsTTxvNBPl49hbbQIp+LlrQmmGdFA+xZ2Rb1Omk5SrjsuQVfo3jYausDNI9Xz4RnyGgnhvYNh54nF/LnHpyOADUAFuzbXPobHtE3o2a9z+yqR7JG9yJGe9Rk7Av3Hjpsw/7V8ePRA5S/2mjpljFtPg0i5GJ87xD6LSbv2nqxscS+0inEnij6hAJ4t+m5J9NK6H2aH0sK1M8UJpvScIB2lBdN8hNIwb6GJ54Z9/fJipDB+IrGb0kaLyZvo96mtCIMNnkwPRdO/4iCyb3Fvxxq5r9CpvgQfd0Jgp4IcKVaL/5sUhcsbB9xhJKJLcLPMBBGOlsBbTjzABN4dPizkAsBJahCTVHofox66aaI6VC6+VHNW5kQCYjyrYx5fhy9OvoYyHWRTe6N4dlcfG2R0hZCT/gn+bJ2GjUwIQ+KLBEJkrN9OMJ1CxCuahZiUdLNRMZ0AuER4Oba+bDln3t1mzGbejyJ/18zRpQrmJiZ/Bye3r0wwbKmAlPwH2IMc6S9sKRGhglu6iB93s7lBRit8k/hCq+Rwsx+4gGjY1DjcAAS2IXuQVixpSY1FVPSMuOxEEJtO5uJFPSJGR73QDqOxPkzdWE6CF7sNFK6+fp+U8e9RMQ8cRtXDgAS4X01junjsIN3vfG1kn93okWeR5R+5D8/UCMn4ibjSN/J58alYhGyOZ0hUggkGjDZaYEHnO3QdjlIBzJs5Tak4G4Eyxgy9F6LfJncOvkCzwn0g07NZOx1J4w+Vvqkj05hSXCFCJQoTPgplRPH7uAeWRB+zWbE4CwEjlMX9oGN8wpMHGUuslhPTY0E2bNf9g8nTDu5nq9aWLfa5cEITHJ/VsSfY7pl6f2C9m7TW0RBJpm4s5VuSMfOIp6kS/sSnmFKWyzPqRlxIMmyoSRbXLUjuG4MRHpe/ebT+UEqRkv8Ce7JrZ2f5KuffI2JFnd755M0tntO172KVk9LiqQilJT9DSnD1Jan3gUzJrF3GupLHNvHajIPWcDSr9/UuGDAHbRTJ0zEuGS4dXeyTzoUxYnH0PHyBJkWHDHo2HUyo7lmdeh3N8kTP/Ljank0HKjeYXtsURaxgepZi6vnYZXyygInCPVIgubItisCJ7RBpGTuTcO1fUyf5pUjFwjjBlCY+igmITGXo9E1Xx2rURJh4jhtr0HeM6eT0RxcA4LA1occE6XVEE+Kmok/oO6v7GXhYbnE8RDqOu5ToVo0KxhBulTZOIEv9zDpNLNg1Al9zHpXPj1lTJz/TU1wF6P1YAWjoXQvnvRmHqAn4i2VctxTud0tqfZzV3WZbh1zpXB3YxljHDUJ7kRBJnuWKW07yiZ08LwFCWbs2ANs4OY6gAblvXMTPtR6oM4Kd8JKgtv8h827qGebYBAA4OTeayEh0kWhmezVe/hLJ9uxBjmQW0v3zHtMTgM2jBrPHDagHAHkpLZ4AvnoZNo34+0fwfqyM6aR1aM2yz1EyyHQXFH1Ibup4bEIkdkHRJ/YKccVAtlgTU6eFRnk8sE+FyoZQ0ogZnbNFkNQFRWsqNTvInPtxNj2bfnwUecG6BOmrrbclzwHLLeJkBCnn496OAZpnpwfgDtHt+9i9iwxwrtl3jCmP0RGZ1/P0xO5XLifMPiP6ieKTMjqzQFZTcdzvUdEvjL5jwip4TwX4Lm74BLwfwacqpgvUqesopcQ9aE2u/b9PWOy/KFiKOwOcp7SeAD3DGJu76RpdgvQVU3W/tel7EIkdgm2Db7vfgiCTa7ATCG2jbBjEDeve40PEl3HzuIqotNcrp0QiNuX0gwY3dL3x7rjf7bGZVgdGRPki0UfFU8Nsm2Y0b+KBii/JKjN+P/LbyJYl2IqYbXIuEEAFk0l6+6TxBrQm99BtYL2DiuwhswHCTpOQt3kHxeGukPj9rTn2b+Q61V4ZZyP5l7KzHFmoKsg2j5ZySzo4rgH2jXSZKS32ir+mNsmC0pxrKfoEA/fFjpKyyyQtMtp+2hk2hFm3neZZNJkiVwzEnJ+yCB2eqK7Axuo20vl6MlSk2xNoMVfontIDCONsDk7PmoC/uvgkmicvDPKN6bp4bxs2xWrBaHziEGamkxiRVV9HUK2jov5wdw9gjhHkrtaefWX2bOofEDevsyd1kbl/2FhX40B3opntLrqfxJfkXLV05Dx5WZpTR6biJHjbfTffLkTFxI3VbdAL/3kp+oXR19OZ7d0/sRPPzxfJPrgmY7PYPSPt++kL5Wb71qZUBc97ZxsNHllceK8sNabWdJzCQ5P40X736KqBa+wBReJdijXWaxrxkPYeH0olYvMHj3s7N2zaUiBZeyX6upXSnzHr9jjupOFbTsj7MhGWwR4eq6wBaflP5EOSmfcHAA5akylF7YxNcnibtQs6mQC4QxzTIDbP+B+xgHEDAGAD0COLgQrL26Ibk0j+hexcF/EE0wzsHgAA9OysA8r5th+iJphfXQDu1PVkOckBwNQRQmgAl5RSSrdw4ztoTeL3uBhpTKMZ9IrxBO1mrnWpQo4qnhoAdJ1TEpBXxqvPPiz4E1kS1MAOgNn2a3nxYwZwSenHw70U0HOHCKHbczZI4uIvAHAdyfgqUtvNu7txoMdlI3UQdqY2WlBKaSggauReMNgWI20fDc/BT/+ktyZTA8Z6ldJ20cJ9Suua2j0w24kadBEBYmMN+kA+qrzUW7IInnL8lkWnBbgkUpnN+zZzwDh/DwDa2eWQNB3cqFS3zeVFIcsJkZ7dRZlCJG9w65raPQd/DkvSuX9iB8zbsAdUY6TBWI/1CQ8IG0alz0HfMabh3OIPj8xZKvY+bqwuQvXVBZ0aAIHPt6IcqJhPaA7+M6+rPLurjzVyPzzLOSiLzd0MyCIYye8xvSfaHNf58/UeH6DAa+IQaUELo7NlfhlPXglQxeld1sbqIp7QkfVJOViwVGQOAQBmOWlqqx95HchqaqM22Pyl9qwO0sexyY0f8/Wc0uFp6TYBMAEXnH5dWPHy9j2bjiKCur94xWaPJuFDKuiQAxUPnj9fh0TyWthnXcQYPN8bqfWvrI+lvJszbNbK6QcN+rfuQD38NnPAuHhCb5J96Ks2VrcxO+O7ZFbnJnpTasLXjPsw7WStZU5UhDxgnDBkn2B6Lf4NV7rEdK5cQWhMuaEzVKOGFhklmC4zC4cUoY0WEz9lcdaSktA/efYAzzVy+XqtQu6QhT+3FEgHrhaQTk+jDhbkoY7bXCsZzzXN/eecBsJg2CKPgsOaBuPAq9jX+/JYDZZHcKgCe7hK69qmnVvY5MblRBrLDK9xY0K2WXxJMrwAk6iD6IvBrPyxsiXcf4NpT4N0iYmKPjnh22UIfi5QLDHXQ8MY6yhWiSdqzXdNbnyPZ7Aqf/Xr1Cf0mKArAD8cOF+/yI/X0QMhb3FithQ9hVwXw0QCgYxYsXSOMG46GNVw34wbspXW9STj8YSTT5DMPDJHtZQlQe1AtRz2v1LRF1kd2MbDY6ocDp+W3a/RI8MBqegTqrsEIZhSGnG3SPkNSyT/RZ5IjgxS3LUAZvVyptXHB/EXyrszDfCVjWqvIgLOJUjPtTke15qY100+ZLVWC2vUZlS1Lo7XBgjSiwxa6gZmDVzOkC2yhM6j8uKazgHY2gMEtW/dgZroeUH5itzqOBVRjZFmsirD7+4G8RTKuWR0JsDTOar6RThiEjwr59OFIlGSBecmMgVya695LKjq8bgqMi8qb2oA5u0Sq8DryEWysl/xXHoRVR++VmFJUCPhEhCLefcFRzYw4kmqs6K/ITd5Uw7LW1NQ3JlXvccNNGtqzjyjdN4TwQu0YjzA50OkN8gxxeHuz989YrEr9S6whDie9dmEUhX2uMsp3r2scwWhPCJMB0nydeV4ZerjcoZsUQ52Zlvg+W6Zi3CTLK5P7zr12TevteWjF3kupsishy4IXyutfRDF2TxvpSWJ5El4CjkySE3XYuV97RWqD4+z3MX8bZ9L5wCA6x1YXMfXHuYt198lhdj+2DyuAJy4616MSN1kEwAK6nZwg2ZqJiodrx2mFwk8kDIdgES347u49WwaTK/c8cg2Gvrqhwe6QZp1Ud0L0alivuSe1anTT1sGJHL9U7/Og29yr+4OCQxYH4rjS9Ipo8OlYhf/d78D04KdH+pU70Iif2SsFdZn7ESr1UVO0Lpmzzpu0Cyzup+cG2AG5VjoQGXPYvZhcbEKo3PiP4m+dIX+keZtmImG60f3iPvVBNDOBC+OiqkNSDfnTsYBSbbwjxTBS7yw6ONwB/WmBrACYI6JTi0/19IucGVk2ud1TefpHI18EwjjsragHUhY22NJ8pmLdkaUjBjfyhFKkMFkuBhBvU/X0Gp9MnCbJQfYiZw4pGQ+r4gr8PYR1gXzTOAvLislSn4zdvaPTOISxArDhG+COliQB933wsmAbfentjHH9aRjmXL6QSu+8DDtKFYe5bhCdF5xMiP1I9H4n87sW859s5LK25q1WcHZSNIl5oFUe1Pit8xlqkEvmK8Pm+CYK+TXc0qjE5nS+mSInIriLUnn0N6sjz+RVRsVPPpMlNal340xb78k7hDpUFH1wnI23VN6T7SE110F/FWTipcWdbAgufnt/Arm+ctG3iBhvmJdO949rBAUcxWNKJid1Vod7JhnRD3vAQCY7cC9Tl+N7NRtZpoXimHFsQRes+xmdbNJFtQ2wMGN4qFVzT8yi7x60w5dM22Zn+Nm77DXvJQyEiAwUFBq9xzcQNuO7ZLEBif37gg3RSqeGtBDh8XTsmd1EELoqsaeF38j3KHvmR2dWE4M0jT1LWeV6iwJatALahsAxtSGpOPyXvCsjm72bEqTjsISyetnn3KkZ3cRK2CT3H0qrWu6+DCro6w3MCxRjacGjPXousgDMHuGBjlzR5g2ZQdWj0XzHSsjnlfTgstnLGk5XYw0p1+P+7OHsCjdlP2uJC5hRuTYHldpXU/wiSga8asZc9LnAVL+k2IS5GcYhjJlJI38CV6MNLOdIaYvCQuk8Od6viSghq63sQMswrGyiB/EZ9CpAXNcz3j0Tr+uPyQ6oZiwNw6Oa+AHclVGaV3nx2MpreuseDIeQFCo3mBJZOKDxA3iJm7fx0PW2HNsm9AzDIgE0MQzwuyCOvBD6ACAG+YSIm7gLmle2ZUXRBY0FrtfHumF9Aey4AFwKqbUD0PZeqNSDibGJR0PAIDpfWH1w1uvnK12g2Uco/10kqLNBg/zjzxWP9AHq/6TSgS7bA/LS5p4U9iO5e2x4qdbSrbzBNNBS+DFuLmbzaMbcqV1HRvJbIN0+z6UKdcrJ3KwUONQiXjKpAzcIUJfUBj8xNwGvqAqUXQliPTGYU2D+exuS4WIRPIC7Meu7RsjDJuKTGYAEHFVRimnkESMAnMsY3lnfM8zik8APqJugxm+Uyv35nG1vUAGEKbPzXKtC4mVlI0QxJ3EJIPQPuISpIcOZz2bDsDsO0lXs3wimZA9+8os8ERMpAfXRDWX/WNSSY54RpVIQsoFdOsNNMsIsIgbEAWFTOrMZ9Sv2BGxE6VvgbUqsG3xyop1hGN9y7VuidJzpfwjD2sad+qCx9W22fLFVYgy0SJ/BzeYFg4EMSupCklAeKakyM98M31YQvAjWjWwjkyWWTqnZmaGN1iyJlDgZ5l2jY2kDYpUXFwT1K6jm+QoTRoN47CgIm6zjvjJTdKyiG/id4eojvA2BkFmBhFvC5mQx8S4rPKGKp4aqF13wJ++ysIcWrSCo/zXJDLn5FWkDHKbR2xBlA4AlgRyhmtxSRgACBP3JJ38+FaWJTTNT1YVH2YiZ5XgmGjADYCvpQ49PrmHQ6Laamb+yDRcx5y5ZASdmfQCB6V1TU/tLkL789Blu9nVGkApl/VTInlN/NqNn391jo6Ojv6Y/qzyo+kfR0dHR0fk+69fv76To6Ojo8u/Ewdcfv9n2jk6Ojq6/B777ffLo/TxrBmd6T/b3saL8Pdldpt/Tv/g/fPrb3bHPuS78AdV4Q8u2r28wwNEbWPHbNWG76TT+Sv/h/7AODrq/CUaUKwrwqt/v0wMj+wu/flXJzGW/B7Y6nb+vkwPwqLj/YaxPqz2yhQ3JvWmMLK7NG/47cA/007stGEDSiC8ha35fikcSIkXKvYgIq0NZ6ctWvVz+kf6EX+PXzhjkP/iI+Ty71+//vn5/a9O5mGCX2U80Mzhmt3OPY7PUvDOid4sWxpCRO/pd+LPVIJ7jA+AxHOPnjAy9V3+nTXLfb9M9WF49cglRP38/bJ4ngmGx++2kEn+8/zPr1+/XlCK9ZUraS0CqySRsdvzU34ETjPuEOnJQr0SiUQikUgkkifkheVIiUQikUgkEslvyt7jtSUSiUQikUgk/wmkHCmRSCQSiUQi2QYpR0okEolEIpFItkHKkRKJRCKRSCSSbZBypEQikUgkEolkG6QcKZFIJBKJRCLZBilHSiQSiUQikUi2QcqREolEIpFIJJJtkHKkpBKe1UFk+aJNWBKEUNf2XrQRT8ySIJTuZ8/qIDR0w787VpVeeAXPTiKRSCT/LqQcGeBZHYRQ19rs4VzuEMXlgJ1O7g7zln/P7vqyheirgou6BKGsnwvY3M3mYLZ376VnkGkSt1bxTkV4dhftfBIBS7L/c6bhz448/ZViZI7PjdXdYT+Q/1KEl6700m2sbrZo7tldhLbpvQrDZmN1t50l+FUSdCyPjfxM9jPjSSSS/yz/u8dzZRXL9uxuvV+zKVazfsnqZVfBmFJ8sl0znwH3dgwAsPrhwcnuFb/d2zGYY2RG6omHLEm97wCA9TFdo9y7u3GgSU6Tn+/AQWtyD90Gxp+t07xq5p7VqeN57KP4I1vTOZjzLhKUVn8BPLtb7zsg7OEAv6thfCXq7diR1cZzkyyus6+7Lw5aw9Gs3jdvl1jNeHfcIdLH256f9d7G6jYwjBYTnY0O7+7GgblD3pd6Yd0huo0cmWqP5k8vHoBmtnPHD3tePbv8APO+zZy5M7BP/canMa9sI/tbERtrUHLYAHhrCuDgBsJNsrhuKRur28BO7unjr5URnWY9u1u/AQAVU4r5Zy5BungmkUgkkq3Yoxy5q9SSEg09q1PHb1NTHluoXjXqeQ/MMdTe7C5EAlsGzodIH+vogSxi0ptL2mZi8YiwpnPQRqd8PWeiEgAAGNMF+hKR88Y64qt1sE67BOl5otAc15HoKUSXKP9vtpE4jz1cFd+TVbE8+oTEZRTDppO8pXVjddsmNMni+thEekGzTyILd5QlQe1VeqO1d/LFQbONhE/WmFI8oHRQ6Spa0e0oresFdOq4Tc5zdpIc77BmJKXDYERtrG5jFpxWHVwYY332zWsJpbpAlA/HdgzhRlTRJwvo1vt18kb8rb1C+s2dp5cfsZ71GTugkenZrF082pUTPKEYlgS1Z3ebVuugNaGtzKO3mAk3jysA470UIiUSyd7Ynxy5NPEcjOmxiYSrlKOnP/5XbIuZfJZYltQq63EZ1MGCPNRnb2G9AYUvsZ7V0c1MIRJgeWsCQL+O+sAEREq5KIMOldY1W6Ai+oklQe1V7AzVHpBndeqiZc27u3Ggd3Fod5EvyIak5dHYRfetPolKFT2b0shpN1a3gWtCPTdTCzW5EI+pDUivd2DxBBJwVARkAp8xtaEdkenfRo6O9V5CpMseGM+N0rokswbWh+dFz1FRdLyAbr1BjrMav46r6CLDO7x3JkSKhk2geM5Sjir6hdF3zDY5p+e34q1UegeV2dXusI7nYEwnrRNoTSlq4xxlpztEOtsonmBKxc0rwkxOs82z2L9r6oB2drjdySUSiUTAvuRIz/piQpMYJ6qSUsUU27V/Z9Yr56lOnbZqzbEzTvRufOVoBgpLz/piaqF5keFZX8xKlr49sLmbzcH4pConE6oDPP14iGnjuOCokfsLgFzJeE0dgFr687gQCQCBMlUoShaahnFDqMgFv3mUDrgkFG5O+DuVktSb5Clk2f1z0LroYaeEYRcAFH1IbuqZxvfDXBWdLymmRj4EvhZFLjEqnhrmV3S4UTO0ymVhI0EbLfjlTvBitMpSdu4JoV076WgRHYGv20FIIpH8BuxJjuTKyN9hSfuNyLBqZfmhxtjczeba2WX8gSxNPNfIpZqUdSJaOtxAs9Fiou/c+KC132ZOkwyfca3ylcEJXaZLcn/l/VgBaCiuqsn0mzxoTegxQXod0YRAnKeKfi67dkgJBzuA57AMqAPbGF/FPlpTB0ATHKu0rvPUcZ7dHcAw8L+0OnX6iQlDoVeuw/WUAuJmfZEq8QTT4uHqWZ367ENaWuUEQmT0AG4ZbyN4Aekt5YHwGzgISSSS34C9yJGe9SUyM4uXrqRdW6QwqIxwsgbw998xbU0y8qNsA+K3E/1V2gQZTNbsq+K9fvbJd8T9EztNMozJKxFlZCjrJO3a/mKjcGVMOUHEmFJ8EtjKYw0x+442Gu59gyEUFHI7/BA1Aca37kAVSUyu2U949ybVV57dra8uIvKW77eK0nrfvFAboT7yqdRCeQ52vgtskyziQmTUlTbBDkNUxXSS/rTYhzjm4KidASj6RQ35Wr2lieeGfQ3B89KamjNP7rJCkzHEPywMKtpY5NspTt/y0sRzABD6SuYpPtUBXdS69WJRMttBOU8JXWTXZncN/waHIolE8krYgxzp2YNEZC7E15uUHdMlSF8lf5Hh/j8Xu8kz+6P63oCx6SQ937lca3zyPxQt6k6/jvoFPmTpBdXp19HNfoyJT3ly7/Eh7jzXJItPlCkjq50pTxApYShc3popndN65Yj9ZatYaasLNL6XnjjIBAAM2786fzRNsqDhPmS9AhjrKL4GqwNKP1rdRh310xEnqU+E+sj84O4lIYB3FzETOuxg7GU/u/TtiF/b/RHb6RlTik+8x4fIgw7jbFQ8NdBXF58cWl9W5J4FSPFtjGd368npyHt8KL58VKwMusX9E5tjMJNvJZthwgETwvddsYklsatU9Al9Q1A7IwNDBIFfitgFOSDDri2RSCRPxs75I5ek3gcyJdrOTTGmNM6CNFkwRJz7yLVODNIEmM/uoinQNnezOUCTGGyBZJG2ED8VP4mp5yR143leNHIfb9IcD2wPmAxBqd2LNr60ybLo5LuhtK4ppXQx0gAMm1J63Vp/NVlKEYQQWbJ8lggxncdYRwhVS1WzsbqojueGTXPVKifY7oHTHyRz1DXJIv2sn5qD1iQ5mKKwBdizOqjer7FOi6zhijqY0KkBYz2ZCPCgNaF0MQLc2HN29NWXLvp6jg8tPzFgMpUSzHE9yAOYn57w3QVp8qePEOLG+vxn98SkHAn4oKVTI3pYqLA8aE3opAVWl43VsY5QHc+DIZ1zqTWdA7w9zt92sNc5cXV1QOnUYP0cXMKPnkluQd0hQg3s9Gxa6Pt7gildkAe9qOUVUPRJ4rqKPqG/hfusRCL5ndlVjvR+rIzppJUbAPiEkSignH7QABz8Z7iIet9mDoD2gee7cf/EDqQ8wA5aEyZKjm8zll+mckhoZZTWJdEAnNV6t2Y/6cnF8GWS2ga71nXkXyZhx1fQHDy7W3a9BFA/Ei3+gJ4Zd1gpczjrmYz7OsGLkaY9PKZPp+gTSmlcexTKbZy2mfFhEu/HCgDgw5AO1Ij4m5K2o+J4rmZLOVBb18HTB220eHHL5nrlANSO8/ZdazoHsx3rLbL2e+OeaJHNZ55AvHlcAWi1baOUTzDrN7ON0NCFJdHHkIr49qwO0seGXfQgIiita0rvyaq9h8z2rPCBmGpFjyQSiaQau9q1FX2CASBVESHlvpZ03NF2vHDQgHdnGjhO6Pfmmn0HwLjw3fAfHwBAIx9Tk/vB6VkTnHlWWuY1nQPPCZz+8uHRA3WHjX6Jkxflss4O+9XI/eT4z8BIxy3I3Ky2eVxlJf4omW1kYw3E8bAZ8Fjd4AF5jw/FyqFdCdw6x/rtlNJ4EEYGpRLlKPqkdBDSdnZtlyB91dSgjO9gLo92V89wcxR5lxZmgtwv3uMDQO88N2fn4wo0rek4PImsS1DJrhe9WdmRNyWI5HAdCzxKA6t6ZfIzRJZvXyy6yyVIj/lfLoMYM+/xAbQPMvGPRCLZG/usZ8NJzYwl/SO3vVxcHGRJE8P1iUlsQrWHcvwWIEuw2Dw+oStYmZNn5bL2JaSCyIwBpYNoz7sEITKlmK0giSR8qTzkxSEI2atyumGHNS3y35rOn3QlYz5kZEFtE+lmQm+U4YLJ3AdTnzglL7m/KBnP6tyeU6ouCZqXvXr6JI8PAE10qmOalrsSGYUAeEhH82yfdY9SF016eW7uZkXDwPs2c3pn5MFxKl8vKhOzuxM896rFe5g3NgDAHJvL1qtLl7Oxuo3ZWcFmYE3nUPskbd0SiWRvPIEcCYkZjdW5iarA1ITiS5hypTRK65OB56b51cUnqvvVjGsfD1ETYL563ICaKhvIVJXi6x4Bo1X1AAAGjklEQVQc1wCcJ0rmvMPJvW8zBzSjB2apAiEB6nkP9K8ufk8dqF2ctFpc1hcn+s5LXpMsfFcS/xEwhei7xG/XdA7Q24uSMkyxvtNZ9IlACIsThOMYYpFCrG/Oyx8JSut6T6lYSmt8PfvKjPiB+Igbr1VviGd36zdni+vYh+6f2AGNJIdB7Hd3N47xaQjJEJlYILMTz5MAqQfH7s74dHrXQRhi0iQf5KXEL1+Z3SSLSxg0sFkiSua5WVMHIBmenYBts79YhvSblEgke+Jp5Eg4rjUxbiA6pfjwbhapzpdNhpE3N16bc3JugGmOb92Pj1djgJhmhSkdHUH9NBaOk+mhxQTQvGLEO7DtyVmt3p6NB4fooV6iQEiI+t6A9hUBgN7FM69+61WYUkeUkOgZySrnCCDMQZ5DGNOduSTvI157GyppfL27GyfiBxKwFzM3T7JIrxOvnnU1BubW3MoawD/uZnPj4hoek1+o0YxU4vpDkQsN/Oo1Vl47HboGyLjZQG0Z+HKw1KHmWEfjpy0aJM6CmReRFs5mYfqLnk0HbOfuWZ9NaGraHLO8p3sxqUskkv84TyNHHqj4mp4PkR5oC4oUDyLvtPL1tVk9a/P2T8OJpvth330k2hg7/TpaRU7lW4e1kZGxDCinHzSYO2Yi01uG9mL1w4OT8jv8aiePtdn3zWpd2xQl09Bk4Q4JDAzSrOMxaKNh0mgbSdG3xxyWALe+6kgj9+yhuLfjF81XX9qu7eNrv+LKJy5b5Gikype2y3JgYKTzd2bWRfSf3eZxVdW3Mt9PcUu4l94kKeexktOG0TPNVB6lALOPoWdPIC1HVmkAS8EzUAGyQ02y6hjFFJ+J2SlwlzR19ISJ5Su9jN6PFYBzZRvMfzfta+EOWYIFrIJndepP2nKJRPLf4Yn0kQCBAAcAIFIHhqzpHKC5rVk7ci1zbAIY54l166A1HM3qfSee0BgAAHp2zjTN6rPheTqxpRY1Hh3WNADHEdb5zabkyUOE1fmoDUhHqQTLCW6HyASbgnL4QYO5U3ujBCUK91/AOsY5pjgqIrlD3WyShaCA9W4RtU9ILMCCJTXk+a5z1vjc5O0Zdu2MkRPzNi5VF9H7NnPAuCir5xYEiJSx6RdwM0D9Wrx+OSdImoNP8DkgPSlK8uSvfvd6ALF9TtmcAlwKLNYXxp1qIiUVNoeoB5CtcWQZxQcwfBpRLOn8UwhLi+H0B9a7i+R3yayWSut6AZ06Nxm9NkdPiUTyW7Fz/kghS4IQQnzmoouR5vTrWUkoMtyzKnJwetYEyNAvKvokyHjio5H7wgwdSus6lQ2nSRbxJJGKPmEpJCtS6uQAwFKKoAaG0SKVDU7FdEEgltwuynrlAJjmA1Nhenc3jtbUzHY3mc2xEkx/Uz2U2LO7+lgjlwKRl3nLpZwmXwvqgOfcMds8iaMxpXmKoqxElVMjnjE0yr40Q97djfM0+sVyl/82cwCctxfC3EmJjNzqYEGaEE3JyaRMgHjOUZ751S4rRC4JYrE1YRuYfwtNpdTi3tunBwDgElTHc83oaWa7a4HSGmRngGIn1Sf7U97vCM/ZvhgBbsQK4bCslrVp4l6U1jW1e1qeplYikUjK8Gsv/DPtHB1d/v3rOzliXP4tPO775VEE8t3/5PK74OCf0z/YMXH+vsw+/7+Mn9M/jo6Ojo7+mP7MP/DvS1G3f788Cjvw518d3s/s4MJzRvln2kk+uBItjxzGBkakefGREG95MIq2oPPXz+glIv/6nZmJcBAm8Jud2QOFV8klOO3fl0dHnek/Ob36c/qH4CH+/Ksj+mGFA0ojfHMTfZ4+Pv3m8h7r/PXz518d/4Dww61aJfphYgwnnzu7Iu8ZPgKLx3m5NiUHf/ZhVd7K2KP8Z9oJ/t7iBZdIJJJt2ZMcuTXi9ZIRWTX/jksde5rfXzNsTa12p2Jp8tevX6Ggnzx/vjSzQ/OjcuT+ZJdy1w5vLSrliAWvyE/KyJG/fv3y+/lJBmFEDBWcv1CO/Dn9o1iEqi6c/b/27ugEYRiKAijO4kouUIcprpJZBB1D6BLxwypYW4mPRMGe85+StPm4LzTJ/enTOVP6TcdYtphsTn2Xhjyk7nnqLia/V/t0GbsXHl0+9jNlWJn3GbFejpxWKY/BzrQtfnvrqMmBVjY5518vidLc+bDdle3Igapu/yl++ZDz9al0DzvAp+RIAAAi2uyzAQDg38mRAABEyJEAAETIkQAARMiRAABEXAHApgdNVR5rLgAAAABJRU5ErkJggg==;" vertex="1" parent="1">
          <mxGeometry x="-365.54" y="30" width="520" height="183" as="geometry" />
        </mxCell>
        <mxCell id="6YRYrCio8crrVP9V9YGO-33" style="orthogonalLoop=1;jettySize=auto;html=1;exitX=0.837;exitY=-0.028;exitDx=0;exitDy=0;entryX=-0.012;entryY=0.341;entryDx=0;entryDy=0;entryPerimeter=0;strokeColor=#99FF99;strokeWidth=2;exitPerimeter=0;" edge="1" parent="1" source="6YRYrCio8crrVP9V9YGO-3" target="6YRYrCio8crrVP9V9YGO-4">
          <mxGeometry relative="1" as="geometry">
            <mxPoint x="186.66000000000028" y="73.0150000000001" as="targetPoint" />
          </mxGeometry>
        </mxCell>
        <mxCell id="6YRYrCio8crrVP9V9YGO-3" value="" style="rounded=1;whiteSpace=wrap;html=1;fillColor=none;strokeColor=#99FF99;strokeWidth=3;perimeterSpacing=1;" vertex="1" parent="1">
          <mxGeometry x="-285.54" y="273" width="420" height="140" as="geometry" />
        </mxCell>
        <mxCell id="6YRYrCio8crrVP9V9YGO-4" value="" style="shape=image;imageAspect=0;aspect=fixed;verticalLabelPosition=bottom;verticalAlign=top;rounded=1;strokeColor=#FF9999;strokeWidth=3;fillColor=none;image=data:image/png,iVBORw0KGgoAAAANSUhEUgAAAmIAAADwCAIAAAAsBZ/QAAAACXBIWXMAAA7EAAAOxAGVKw4bAAAAEXRFWHRTb2Z0d2FyZQBTbmlwYXN0ZV0Xzt0AACAASURBVHic7L1neFzHlbB56na4nRMaQCM2ciYJIgNMYpIYROWssSRbY9nzeeab4Gfn2dn94f23z7M7M/5mZ+yxx5asHEYSbVMiRdHMASABksg5o5FD5xzu2R+N0MjdIJisev+gce+5VadO3VuncpGDh48AhUKhUCiUlWDutwIUCoVCoTy4UDdJoVAoFMqq8O+3AvcOfvSWQ3u3RpGZxvNnGqa4+60OhUKhUB4CvkOtyaTCqrzEmNiE3J2FSfdbFwqFQqE8HCxtTSLibgH/TT6REmLy+d/y43KBbB7vOT7JZIgIwMThrUDgUz86CLlXOm+Qse6O8fQtUWBs6x5bUQDVFW++UaElpOf0vx1veziamw+jzhQKhfIQschNskB+yPJ3MzDBIX+ldiYibhPw/4lPeIitAc4MkM5jHmP4BcT/Tz50P9ie0j1w6f1fXbrfWlAoFArlYWLBTSKQn7G8DICLXv/byPySXcnnEeY1PuEh9/+6A3WEAADj4/6G5e/g8Y74/cfvmdYUCoVCodwTyPy6SSTMPwvwuJerAYKEeYdlAv7Akk5XAcP7mGV6vb7/PbBwMZbP+w8Bc9vj/b+5sFqTiKnH/vrJXOHo5T/0p+wv1eHIpd9/ZUg8+vSuJJF14MrXpxtNs52HCJKUosqyvJQ4tVQAPrtpvL+17mq9wQmzESnLXvrRzjjkuk78Z73q4J7teq0YnDODrZfPXx9wzkeX+dTfH81mFnTDscu//PjmfC8xqsp+8P2q6FWawo7GL39xbihMfVBR+sabO2LAWf/5h33J+3fnJ2nE4DKPddVdudQ25Z+PEYQJBZUVW9LjNVIB8TmNIz1Nddeax+ab4+umKxKd14krTJ0pFArlu0lIpysGfuYB55rFooQAAJgQARbEpjkAABYiLU8FWZWVcQoeQNoje44OJ6ZrBASis/ftH+n+vMFJCKI0/4mXj2TImFmVeMqYlG3RyWkJ3374Vbt9kZ7C7INP5mSJAABAocuqfFoeeO+TWmPEKq1FJPqAfMvhJ3OSBIQAgFybUnRIp2Q+ON5qBwBEUc6hV47lKebC4St1GUWxqWnxX3/wba97U9MVSVxr6UyhUCjfWRbcJAHijMSt8BGUgDNzRW3krQ4tDP/hvWv6Q08XxegVM7//+Gby/mdLYvmxOh1AHwAvtXJfhowAWvqqL9YOmECRVrZnZ6pcnrlnR2rntwOhzdzERHHTyc/bpwLKnB37K5LEfF1paUrttwPBuwNnf/fuFQIAoN/zvYPpy9bAWNtOfT7KAoA87/ChPCUhIze+vDI426IN2CaDPyLRh03VC5vOHG+d8sr1pXt3pCsZUXpZYUzLlUlCeMlV+/MUBDwjty9ea59ygCQmu2J/cbwqf+/Olr6zo6GarZ6uMHWOIK61dI40aykUCuXPhg2um0Qg/6eIlw/4G4///Aajdo31DYwbAmOuohgY7x2YGPSNOktiZQK+AAAAdMnJEkKQG6w+eaPTRwAmJ04KE3/yaBojSU6OhYHxhZCIreXSxdZJAjA58a0q9c0dsYTVRslhwA4AhPgcFrMDAACi/SvoQTj7xLAdAFCd6AtqZhoeGl46azR8fQjh21rPn22dAIDRiW/4cT9+PEMAqphYAUz6ITolWUYIWlrPX2gbIwQAJsc9sZkvlygV+rRoGJ0KJ11h6hx+XGvrTKFQKN9ZNrq9AOIMgAfQsnTByKbBsgIAAJfV4p3r4vVarS4AKbAsu1jWZjHN/bRYrACxAKxIBLCZHYaR6AMmszH4gxD/1MSULVYO4CN8AD9IRCwAEGXx935avOQpsViyuemKJK61dKZQKJTvLBt0k4TAf3j8/wEAhPA2VaGFKFYfgVt2C/GueevVI13rFglRaOrGZ/95Y07w3qZrs3SmUCiU7yybtlndpjsqhFVDXOPW3WOz9AkKo6n+i983WBbf4ty2DSr3AMRFoVAof5ZE5iadCACgXjynQ8sAIjoBN7fl4fH4AADECqUQIDj+JlQoxAAAXo97EyMKZdbdrTRpZbP0cbo9ABIQCYnZFJyzisiXqWQsAQ43so3OGjpvelwUCoXyXSMyN+nluEEkaXym1D+3vQDASzwCiF2bXeqODxmcxQoxSa46Uu6tGzCBMq2sMoUAonNwaDL8cBhWrhLPdgxLgsllxCq1mgUACDgtVjfOORirxYYQTUCXsT3dOu5DAADnzPC0azP1mRo0OEpUElH2I4cnSf2whWOjMysPlCWKwNl4/DdnBsMPaX2dNzkuCoVC+e6xaBeeNwVEPvsfEQNwPPK3wTYKx73rRwshgNz7fuaf+Mz/JiKtHJqBpPOIDmDYHzi9yY1JCPTXXOhNOZwuVabveDJ9x6ySyNl7LlX3c+EvQFEXPfVmpTb0CoktffUHpQCAOFP97nvX5qfJ+Ptae91pmWJZ+q5n02ev9Z/5989b/JuoT2Cw+lyH/vEchTZ377O5MBdOwNxxoWYggnDC0nlz46JQKJTvHiGtSUJKeYw2tOgkvJ0MAAAG8FM/WgAIIY0+///F8Z7lkyweI0Q0cXg6EPjUv/kbuhJibznxkaO4qixPr1NLBeC3m8YH225euTV4l7ZZJ8TT9u1x1r27JCVGKRPyFseyWfoQ4mr/5iP7aGVZQVq8WipEt8043tty83rz6Np7O2xI582Mi0KhUL6DLGxWR6FQKBQKZQnfofMmKRQKhUKJFOomKRQKhUJZFeomKRQKhUJZFeomKRQKhUJZFeomKRQKhUJZFeomKRQKhUJZFeomKRQKhUJZFeomKRQKhUJZFeomKRQKhUJZFeomKZQ7AlGeUVq1qzhFfg9OPX2AoXag/LlC3eR9gx+95fEXXn39xUOF0TQXHmZ0hft2lm2LAsf9VuQ+s1E7ILJpu5557ZUnKuIFd0UxCuXOoAX0fSOpsCovMSY2IXdnYdL91oWyQRAhOS9LCc7O9gHuO7yb/B3ZgaQUFifrdOnlW+mHQHkQWXreJCLuFvDf5BMpISaf/y3/Cv0n4cjcS1Bd8eYbFVpCek7/2/G2jZ97eY/DGevuGE/fEgXGtu6xDccVlj48u/rQtNCqmbksDxDCpE5o813epiTz0OwxnEh8bJpVnOASSDmCDOdgPUNy+yC75Gg05HkkW6dlCT6GMMiJLV9rPXfZMaBw68s/2ZfYfeqfv+7atDCJPLNyV3lOUrScJV779HB33dVrHabF2SROrDpyuCpZSsBa99HbFydXTyZJzsuSg7W+1bDJJ8khyX727w6nD5z91+PNgZXsvK7APWUlOyCIk7dXVRak6lRi4rYZJ/puXaluM/mXPoujPX22pCSuu28zPwR58Ut/tSduIRJbw8f/dX5kQ4a6Z6ZGlBU///r+BEv1xx9emwr/qaxn/uFI5jLFhs796tNGFwBg+qF/eCKHD8bqd9+7Zgoez57+5N8eyx789l/+0Bas1qyRWYipx/76yTx25YQvKeX0+374YqEMvV0nfvl1J7fwSHg6SFJLd1UW6GPkIibgMA731F251macfWFQsv17P9oTvyyZaL390W8ujt7NfFnkJlkgP2T5uxmY4JC/SjszHBlKOLgHLr3/q0v3IialR0AgYBQECEFEgdILIPCZZjMPiUdaMSnXztd1OEbl4ikdrDrGVC+efX2R42ut8kIzK2Ee6h4IREnBEy8fzZB6zMP9HWaUxaWkFx9LihV99EWDZVZGFF9y7EhVisxlNHs1qnUCFKTnZkvAVNs+urmnrT5sLLcDIl+/94Xnt6v9lpH+zkG/KCo5pehocqLyvz+pmVxUsSbE1nTi7abNVsk72Xm7fgIAAIRx2bm6zQ7/biDN3bsziW++ff76JEZyHKypt6HRBgDi2LxsHTPd2zJsBwDj9KIaCSFRufkx166u4H7Xyyxzf0ujO/jdi2Jzc3TMdG/rsD347JQRQ8JRJydK/S5XQJSYnACdhqURramDIP3Rl54pUPito/1d5gAbnZK6/WhijOjDz29bFsT80z1NBvuiJ92jdri7LDqW+WcsLwPgotf/NjK/XKnuEI4M5UGDr/YSAL+ZBQAAL18VAL/YZ5u9y0sxy6ICiIx/WG3vF3I8nyjHJI1ieIlGyUCC3QwAQGJMmjIbwzCcVeqyu6TxG29qLwERxDKx3+7035P2EEko3Z0ucQ9eeP94vRkJIihyH3/9cMauitSG031ACMbteO25Urlr6OoXpwbTXnm1eG3leZm56SxM32yb2ORDyR8qVraDJLdym5obr/7g0xtGJAAgTNjzxgvby8sza0903oPmr8dQf9YQVE+1MzFXJ7rbEd4pKEzdtzudtbd9fW0kIvsQMtV04QIAYFRVSraOHW08e2FomZTHZmPU2XlxVy6OLQ98ncwytV660BpUUl2RnKNjh+vPXhheQRWJPlkDU7dbfEUlScnRYJiOQAd5wY58BTdx46NPq6c4ggjS7CM/OJpVVZ5y+9v++UqDb6z57IWB5SZY30x3wKJjmQUY+LmXqwGCq0Uajkx4IBtXvm/P9rRoKbhmDC0XL1hL//LRNELGrr79Qa11VgaECQWVFVvS4zVSAfE5jSM9TXXXmseCR0CjquwH36+KDjFQxqG//cdDs78djV/+4tzsu8JIE7dXlBbotUqZhCU+l90+PdJeV3O71xKIKBwEUVJBacmWtFilVMrz26wzw203r9YP2LgI9EHMfOrvj2YzId0RY5d/+fHNJWc7I7AJWyrKC9ISNDKWF3BapgzdDdU3uoyBcO2O6JHvG5PKgpVARlQ0LCqatQeAU33M6evUzXTy2RgXIQza5NYGmR8IAGu7zQkPGAUEBFo/mAUAgEKOAN/bo7F2iEnWqDRMDdZRD8TarLKqiu2y9nc+rg16bRTqSvftKU6LkRLXtKHp4iXnkg59BElKUWV5vj5GIeF57caJ7tpL1zuD+Yiy8lfe3BM7centT2pt820aJvfYj49lumo/eufSJJHHxcnA23yr3owEAAgBa3td246M4ti4KOibAQCJBIdr/vubGwYXxKetlwY2MzdViOOdrcYF74DJ+//ns1vM1z485y3eV5wWLSXumaGGK+drBh3zH/OaqVjcwZV68Kc/PTj7lPX2R7+5OAJpawuMzvZfifRFOysLUnUqEXhskwOtNVfqBpzzxo87+NaL2+3X3r2Mu/ZuT9KI0DHV13Dl7M3h2Y9rNhUfXfCX7SvSa1ifbWrg1qVLDRPeMO0Aao2GAfNAn3GupPAMN91oVaR5QQJgA0BMfOzHzxVK53Nq4Jt/O94S2k0Xhg7IqAse2VeVFSfneWYMTRcuu6q+vy+u6+TPT3avl3lzIaxuqHXzYs7U0vTyXRV5+mg5y/jsU4aO65dreqwYfioAAJFJ2bk3V+rpPnmlz383Cn0yMjCYWpCRl3BpbHTZzfUyK0yE+qRYYm/safWmllQkJktwavHx72vqEBsTTWCyq2WKm/02HZ2tPXtTsqOildBvWSa+YRCJruTppyp1vJnGr764avCtb+0QN4mBn3lgnUPtw5EJS1FZ0RNPP5IUbN/IYzMqn2L6JpfKiHIOvXIsT8HMRsdX6jKKYlPT4r/+4Nted9g6ID/5wEtPFyrnuwpZiZJNVu5MSkv69oMvm2zhex1pwZMvH06XzenDqqOl6j3JmWmXPvz8lnFzx6VQnHPk5WM5C2mXRyXmRSWm66s/+ez6JLeZcXm7Y0wDAG6Bf35QycsEAAQAMN9odInsNRrnDAOELB3NjpyggyytqihK1wg8U13XDe7Z6+KCw8/sS2c9JkPPqJWoCo49Mm1a9CCb9diLT+YrvEZDX9cQJ9ampJY+kaQ78/4XjTZCiL21bWS3LjE7R1lbN1vTAl5all4I5qZgO0coFAA4HYu+e5vdCSARCIP/GS590Otxh5ebkqzcVD6OdLRZlr2NTOKuJ6NE40M9ZokuTZ+x8ymp93ef3rKtnwoAm6GjjeMDEGVSboLCNtpmMM+WuK4xB0AYAoAoSD3w0nNbVV6job/DxkljUnJ3PJek+cMHp3s8Iaryk/cdjWLHB7tmRDp9Su7up6T+9z9rXLAOias8GiOdGOo2yeLSkvMPPicPvPtls2NpYle2g81hB9BEa1mcCo5hE2JqPPNVI8zX/W2GlkZOCABEk7ZVr1jZyGvogMik7n3m6DaFzzLaO2Bm1AVP7DNGVJ6uZ6hwTC0M5qbPMtLfaUZpXGpG2VMJUac+ONHmXLDGupbkxVbu36rwGs6f63TenbaRAAzt/VkZWblJ50aWtTXXz6z1QYSk5HiezzA0ZvQaHBUFiSn8W22BsHXg8/mEeNyu+QuEDJ7+9S9PR6JDeKiy8pOVQoK6/OyYq4aR9R9YKPQIEOd6yoQjEw4kuawqUQgATkPtuWvdZkFM4a7deYtleMlV+/MUBDwjty9ea59ygCQmu2J/cbwqf+/Olr6zowDWtlOfj7IAIM87fChPScjIjS+vDM4W7QHbrNsl+rx8BUF09Z7/4lTztIvjq1J3PH2sUCtMKt4S3VQ9HWY4kFCyO11GwDveeOlyy4QdJXEFVfu26djEiqqMhq97uHDDgYGzv3v3CgEA0O/53sH0FfwOL7lyf46CIcQ2WHPxeu9MQJZQuPOR3CihrnzvlubPGp3LH1kJob0m3s14pbunWZ/cUiMPAKDOrMlzBnpjrYM89AoIIQGjZPZNnstZXoJTCIDI+IyzuhGj3BkisGFmHeSO8qK0KL57srPm5LVbXSY/mf0MNNvK04S+sZoPP6uZ4QgiP3H3iy+GNukkmVvSWFvPuY++arYDAQBR5pG/fDyrfHtc4+VxALB3tA/tSdRn56lra0yEAIAgLSNVCDP1HVNLGusIIpmMOG0unE178DbxesP0kYiSvLwkhhtu67AvN41Wbfv9e8f7vAQRVIXPvLEvuaQ44dbF0XVTQch047kzjcFpI7kJipm206dDpo0QQmAdAQAAxbZdW1S+wXPvHm+yAkEEWfbR7x/N3VVc11NtXNAySuM4+f5nXS4gBGQFz71+ILWsOLHhwvBcaFEa2x/f+2OflyASbdkLr+9MLtka3VyzqCdtVTtY21uGKw6kP/LsHjxX2z3hXtpRT4il/dqFdgBEskWxqptcSwdRblm+HE0NX3xw3uAniMLMg68+ARDBlMI1DbVuXgAAqAqr8hSB8eoPP7sxwxFEUG17+o396TuKdW1XJsJKBQCCqmx/URQ3cflck+1u9R8SBvpbet3ZWbkp54f6l+TGepkVHjH6JDGOGYY48A+P+Lfpk5NI20DYOtw7TG23OlMr4piphubwJo3dedtgIyhiY6SEII7f+OZqu50ATI75tSkvFMpDZKJTkmWEoKX1/IW2YEf25LgnNvPlEqVCnxYNo1OEs08M2wEA1Yk+AABwmYaHhpfZfrZF5p4enXZzQMBv6b/07v+3MHcm3HDGq9/7VS1AwOPyBIAAwNQFcea2wxmEjdIqoccUZjiE+BwWc7AqGr1s0l8QrT5ZRghyA1dP1LT7CMDUxGmPXP1olgjESi3A8oGHFSCEgFvoY90MH9DIehwCIIQv8BFg/EaRf5X6DortihwnQxhuRuEybeqImzxt994dRWlRfNd429UTNQ29Zj8JjYAXrVUDjLY3zMz2uviHm3tMJdFR8ylytRz/VUvwZ/CKq7d/ArL0KiXgGBAC7s7WgUf06Vm5mppqEyCS1MxUIRg72qeWpESY8diPnsglA3/6zfH+DSZHkZcXz/j72zqcK1jJ3tPS553tOzI3tRj2JqdHRQlxxEvI+qm4Y0icLpZgX1urFWZ1sHe1DxzMzI1LEOKMdz4KV29j0EcCoK2lbXBvaqZWy8LwXHegs79jLhU43dw5vjMuVqMGnFqk5Cp2IMRRf+qU9ulD20uOvFbkMY8NdrU23GwddkQ4WrOWDlqtlgfTHQ0Gf1DA293UbdtSItt0Q60OLy42msBwW/PcSwvm5lbDPn16rI7F8fmp4GtbUrVtf7mOmbl5oc6IQAjG7f7xS0W+2g/fuTa9RtSRwhDoa+925WblpfD6+xbbYVMyS5GcpICJpiEPIThoGMWs5ORYGJgIFVlDhzARb3n6H7cs/Itou/3Zb86NRjSUCzOt37zfOvtfOI/cJzcpkwIA+IxG26yeODVjBAh1kxIRCwBEWfy9ny6dRyEWS8KPC4cHBr3Z6ay67PnX44fHpo3mmemp8WHDmH0VH7UaAT/R5O0oL0jRKmUSIT9kcJHH40UW1HpIxSwAgMtq8c7ah8Do5U/evbyBsJRePgBnFQAhiMiX+wCEfusqwiKnssLIihj0srZ6+ebOsxClFlakCntr/nCurt/CkeUvqFAk5BHidLkWbjldrsUySGT6nIxErVISnGZNVBoAQhgGgAMgxN/Z3n8gPSsnL7r62jQwKdmpLEzXtxuXxhZwO+xeH8/mivAlWCAqP1tHvF3tPSuuinG6Qlr8nNvhARCKWABvGKm4c1hWSABV2XsOLCyIkGgJgJCd1wEAwOmc3wqAEJjob+sCn4u/IBFyH8DjcgPw+fwlSq5lB0ffmQ9/W5+Rvy0nM02fUf5oVuHWm7//4vKQN4L3ai0dpDIJwJQtRMBitQOE7ybDNdTqCAQChhCXO6SOEMxugUAI4AkjFSjK3r8jSWhrPlc9dneX3hIIDHZ0Orbk5aYJ+pY1ue84s0T6pBiw3Ro2AxBwDw5PQ3JCshzHF7WP19YhDJbNdPUMhz92ulHuj5ucbeBhyK5W3NIdrsjqfn6NWysIu9q/OSE7sHt7eow6OUOTDAAAyHmmOy/98XSLMezqkijtwPeezFcwd/M9niOiBK4NX+4jAH5bcH8TL08O4Gf9KzWAUOxQVs6IpYA+gf261u3a5JRyTrsLktNL9/HFddW1LcNLZ+esDwpTDr58pCiKXXo95Levt73HnZWXlRNz9cp0akYaCxO32k3LSh9u5Oo7v7gKAAgRVLkWYkTt1txo8Ha29XjDrJBGlIo7hBAghKdNL9QujWItVWdaz/2xFSJKzrp2IOCd7qk/11N/lpFl7Dj6eEnx4V2Db58d3JyJzSRYkoR4bYzMjBsz1JIQVlUuPNRbi9NZX++Fq4Nhz87bODjS1mUtLMjNELRyy2pkd5JZiJCSFEfQqUrfsSsNAEANAYhNTGFrm5dUN9bUYV1Wmul61+12f9zkrE8kIeZnlmZF8IVHU/0Xv29YMizPuSOrPzgNdX/8sI4vVsXERmvUmjh9Tn6aWpuz/3Hj6Ps3TOs/D4DI5hfnKRiCnrG6P11qnXQFAABSD3x/T8pdqABG+LGvDD9rNCo72FhaMs3VoX7CgXa58bxq/gNAsV1VZRRJAL2s/Xq007L5iyO9PWd+/W5PcWVZybb9L28tG2q5WVPbPGSP4EOJL39kuwYMNV+eummw+BDm132HCgX6W7uceVuz8uOuDWamszDZ2W5e/0OKtHiNy8tWgaulvTcQ8UcaViruDERA9LT+4Ren+pcpt6mva/h2IJy95/Kf6lNfK8/KTDg7OLgp0WOwJAl5VyOsYN65oVbfvzbcF4rH4wEQZdauxxLnLol1IgBfmM9HAiEw3N5l2V6Ym9HuWv3L21BmxSUlCgnDZpaVZ85dQozXJzHNvUuWyYalwwPF/XGTVrsDQAECjUYOvXYAABKt0SyWcbo9ABIQCYnZFJxHisiXqWQsAQ6XWnc2H1Z6swViuURAgPPYbaaxQfPYILTUt9pf+cvdcbyY+AQhGkNHIFYPR66QEwBAQ+PlztHZRfcibrXO1jX0CQeHywMgAbFSOdf1gxD3yKuHs0Xg7zn3zqXNKWQWkNpUlTMiMcO5RPbrWpf9bm0g4LP0XT/dd6smrbiyrGTL3hcLSodbb9XUNg7YOADwur0BRIlYDOCefUAiFs89iyiIiVYB1327ZtAyXxgKhEu2ASUEBto7bVu3Z2Rt56eKcPxmu2WhBPd6fQByqRxgZv4JuUwC4PV4IFwQISUvSwGO+tU3ZpOIJQBzXduMSMoCeN2esFNxh3g8XgSBSMQHCKwvvVHWtkNcyVP7M92NX3/TvDCZ3G5zAmjE4s3y1A67E0Amly70jyoV4fe4wmYYyufzcYhikQRgbnwgmN0+Xzh9tkEIEUSnb4lefPFudSWOd3SYSopz9Z0h+m1CZmn0STKYqvngd/PzksTbXv3x3oSkOOhdtvhjJR3A7/cjikTi+aQjphz5H8dyzNff+bh2+WTye8l9cpMTkw7USYmu7NAOW3W3hR+7dWf+ks6vqUGDo0QlEWU/cniS1A9bODY6s/JAWaIInI3Hf3Mm1FNYLTaEaAK6jO3p1nEfAgA4Z4anXQAAsWXPv1KsRP/krRNfXR20eFCgSMjRqwEAAn7voqGptcKxmCwIakKSig5scTZPOIg0Nqe0JI4DWO4q19SHYeUq8ewzkqD5GbFKrWYBAAJOi9WNZHpwyF6qkjH6nccq/df7pv2ShMJdxTEKHnBDpnD3sPL1Rc8MeyS7p0U+ublGzgFgrCkq3+Xvi7UO8IDjBdOOEnvQR6JP4GxU+Tg/fz4nAnyfmxBCkOcTiGerJjxhsA6AjNzLBwBgODufi6QSH3SWt2vSiqrKS7bseT6G96uP62yEBKanTZChy90a1XhjBgkik7glUx3ynMvlAyY6QcfrHOcAAJEfvz0ndlmtHUfaOi3bS3JKMiU4drPTGvKB2cbG7KDLKt5+fXB+e4HSPAU4W8bN4SeAScnPls1uzLbK1ytNy02tGev3EkRQbs1PImCdmfESAhhuKoDzen0AIpEYYOVNRlYXwLHRCcxIyitQtjcEnTE/puLlZwrZjpO/vTC0aQ3KNe1g8fJidVklxc2dF4aDNVGepiA3FnB6enKz9vWbnp4KgD6nMPHm+WEfQRRmbMmQr9COczrdAEqZfJk3DNdQq5s6MDY+helxeVuimmdnugaz2zQ+FuZWjjM1H/w/NYu1itv945eKloghktjip56uimOm6k981MHcSQAAIABJREFUUT2y0R5aQqZbO6bLy/VJoUO6d5xZ0uTEKPA0j4XMOXKOjVqgNClZjSNLRj1W1AEmJqcwNzqrIOZ29eTs9gJ56SKeb3pqExdNAgAiaAoee7w8gZlu+ObrW+Gsr1u0C8+bAjI3iYaIATge+dtg8jjuXT9aCAlHJixFh2qrh3MOJrHS5PInkssBwNPXNwqpoTsfBwarz3XoH89RaHP3Pps7n8KAueNCzQC36LP097X2utMyxbL0Xc/OdV31n/n3z1v8ADDccNNQsC+JjSl55s2SUB04S0tTPxdeOIT4Ohs7qvS5cjam8NFnCgEAwNPb2u/NyxTDUtbUR1301JuVi4ZCSGzpqz8oBQDEmep337tmgsBQzbmOlGM5Crm+8pi+cl7SM3b9QosjzDKG+AU+1sHnA06KPQ4BIUQg8QHwfBNz01wJAAAv1iESMwBABD5ZxXhoZRwnNBM3pAAA0WZNiYOQhVYmYdyKvW4AQBRZT0VvYAK519J3/Zu+2zVpRRlzZddMY21f0ZH0HX/xRlL/iBVUSUkByxRAbDBGAgMtbdbsbcXPvaEbGDZ6+bKYpHjb6ARA8pKEk6mmjunSimgpN3qjwxpqLhy5ebk3+2jG3tffyBwYNaMsLiVJw3oMZ27MtocwpuDw9vjZbbliRACQUvHYEQ8A+IbqzrcYCQDw03MyRWBsblthJ5E5Jqdlj77+yoRhxi+OSdNrhYGxq7dGgsMMYaYCYGzQ4M1NK3v+Ke3sBP3J5lO3R0Pe/NUFrE1XmrY+t+2R119PHxiz+oSqJH2iEsYvNw9vYqfr2nZwtNTc2vZs6fZnf5hoGJq0BUSapOR4Bd/adK3eSAgA8OO3PZId7EIiGi0AqPP27tNxAADu4ZtXu8NoTbnba1sqUgsLn3stun/EwqgTEzzGSVAtaZYR4u3vHQ0kph146XH9qDP4sln7qmsHPWEbanVTmxuvtW15Kr/qL95I7h+2clJdml4jcPZeu73pGzOpc7bolUKC8Vty46pHQvbAQYzetq8gBgDEsRIAJn7bgb3pAGDsunp7ZIW+2+n2zsnKHbEKgnNV7nUza20QmRS9juDI6EioU50cGfOWZifpxTUm99JHlusAttZrrdufKSh/5ftJ/cOmgCg6JTVG7B05VzsQmheCuC0H9qYuCss9XFvdZY3gxVYXFOfGqQgqS7bG3Tob0bpJIKSUx2gXzUri7WQAADCAn/rREqZMGBBiv33i94J9e7anRUvAbTS0XDpnKnordbGMq/2bj+yjlWUFafFqqRDdNuN4b8vN682jzqV1E0/bt8dZ9+6SlBilTMhbYi9L0+cf2krKi3KTtAqZWEg4v9dhnBjqqKu+MegNzYC1w3H1nP30pGNvaWa8Wsbz2Sb76i9eMm19c8lqzzD0Ccs+ro5vPrKPVpbnp8VrpCwTcFmnhzrrr9V2mSLZW4AX5eUDeE0sIQTRJ9D4ASW+sEZj7xFec9/1m7O904S4mr85Ltq7pzgjPj1TbTS0fH3ZWfn9hbqTZ+jSZ1959lbkJKRkR/vtU/11X160lfzVCoN60519xnKtarRzyVo+QhwtX33qrdxZnpOUlqPjPI6Znpt1V6o756f+yhNz83IEIVkWk5EfA4DoCXSebzECoiA7N10IM20tk2uVg6NXTwyV7S9Jj5ES11Tvzavnbs356zBTQYi7+ewp9YGd+YlZBSwPAFBkOH17lAtDgBB///nP/tu8s7IgNTUnAdx2o+Hm1ZratplNmye0rh0IN3rhkw/Hy6qKM2P1mYkCdJrGms9fr7417A5mN1+bXrRdH/KEMmVbYQoAAFiwIxw3SQg3cPH4SbJvR1Z8WrrKZGj++oqz8g39cknT7VN/FO/dlavPLxTyCQGAMcet2kFPmIZa09Te7jOfHbfsqsxPScuNJz77dE/d9Ss13ZuywHxxIrrbDfmlOsbY1jWx5JY6vXDbwtbn0RlF0QAAQ8brK7pJMLd3jFfFxoUUfetl1jqQhOQEPsyMjYRM5CIEDCMTmBOvT+Y1dC2rRy/XgXh7//TpF5Zdlfn6lBwd43cY++vPX7nWttip8LUZRYsnXKGVa6vuWm3y/kqYe9oM+eU63gqWXCV9Bw8fiSD8uwby81/4m4OphIxc/K+Pbn/XT+6j3CGSLc/81YGk4fO/CXsrhnBBYe4LP35MP3X1vz6uW7ECO7s52dW3P6i7+xPV7x/r2uG+EBwPi+04+fNvwt2sjkJZl/szNgkAiCAQ8pngjFe+VFeYFw+A6J4xUh+5OcQeC2sXgs1i4qtlvYb3CURRbk4iww13dIXbQR0+0py8ZB6OdLSt4xseGM9xlwjXDvcWolTKAWy2CAaaKZR1uW9uEiD10FtLzzDzjNXVDWzyuX3fWR4cv3WvkeXmJjCcoatzpeWhd4iz6ct/2fQznx5CHhA7IKrz9xTG8wAACE8ck5Ku4GaudYZ9VCOFEgb30U0uwPnddqtprOfW5etdJuojKXeGKi9HR7iBjq7w98enPLQoU7ZsK2AJAHB+t804cP38xQgPa6RQ1uFBGZukUCgUCuUB5CE+iZ5CoVAolLsNdZMUCoVCoawKdZMUCoVCoawKdZMUCoVCoawKdZMUCoVCoawKdZOUuwWiLJEpPcBL5q1+2tDdjJ1J4e0tZ+Ll9yN2CoXyZ8N9XjfJj95yaO/WKDLTeP5Mw9RDcvgYZT0QiZIp3Sco1DN89F+4cJ/UkEJOhSC3mGeo91+4wdnu7tHwFArlz5T73JpMKqzKS4yJTcjdWZi0vjTlYQCRieIdfkFQrGf4iD4bOO5Taw4dYPchCpikUsFzj/M096VRS6FQHnaWtiYRcbeA/yafSAkx+fxv+dcqWWIY5l+EjN3v/zsfhnm42hLGujvG07dEgbGte2w1GSTK7Mqd5TkJGrmY5TEAgFM1b79fE84JLw8ayrKXfrQzLvQK13Xyn7/uilQmfJD42DSrOMElkHIEGc7Beobk9kEWZk+6dioPT4oFK9eW0Csxn47yRmhnIbPzSb5eSoif67zov9rKhXfIwJKoMaZQsK+KUQsJQew55fm2Z9Hp2SWvCUs1y4JFNJzznGidPW8E+/0fvMPl7uHvymEkKfyju/HTC+gHCoVCiYRFbpIF8kOWv5uBCQ7567UzEciPBAyL3P/yb9BHAoB74NL7v7q0VixIUvY++0ShgnkIneJ9B4lHWjEp187XdThG5eIpHaw6xlQvvhudkIjaMkGeghDkuk77zvVCxJuAI4KcKX1UUJTELD/wOjIIATe2f+tzE8GhbEZRwC9u8V6foi8ShUKJhEXHMv+M5WUAXPT630bml+xapQkiHmD5WwhUewO37u4urDHpaQqGEP/Y7RPnm4weBAAIuB7SIwBsDV//titoc03Js08UKlcwXTgyYcJLMcuiAoiMf1ht7xdyPJ8oxySNYniJRslAgj3EiAFDlLlLMPefX1wxKZEy4BAGVgp2DQiTm0MIom/Af7l3QzoT5pFXBbkiQtxcexsmFPEUKwhh0x+83fPvLiHZ+wXFceCbCjT2ryDdfzEwmEb0fJKTz9y4SHteKRRKJCw6llmAgZ97uRoguF7JrOLxXmXAEfD/LrCRQxgQM5/6+6PZTEg32tjlX35807FCTV/A5wMA+KYHeyZCDhQmBOb6J5HrOvGf9aqDe7brtWJwzgy2Xj5/fSDknEEESUpRZVleSpxaKgCf3TTe31p3td7gnFM9nHDCkYne8dr3y6MQe07+64k2EuzVzHrmH45kEjJ944N3rk1zXrvRG7QA37vKjKVwZMIBkWNjXIQwaJNbG2R+IACs7TYnPGAUEBBo/WAWLEj7eH6ncC4ZNlYCiODpkwUibHtFkQQZIYhjPehZ481AsustQYEYXE2+311c/LYxRMyCe8R/6Yy/l+W/UrTS44R4beAN/uaR/GP8ojjwjAZOnfCPrdhF7OJ6RkGvJ9JEogE0RpQiCoXyHSfETWLgZx5whlEsIpI3BYwM8Nc+tNydLizE5EP/45lt4oXAxVue/sctc3eXjk0Ksw8+mZMlAgAAhS6r8ml54L1Pao2zw2/S/CdePpIhm+u25SljUrZFJ6clfPvhV+32RfqvFU4kMg8K3u4Y0wCAW+CfP53MywQABAAw64BZV320hwA6Zl0mYkCc5uARBp0yx2jEiZITKQAAWswbPQ+N44auey/WohMIiV5PWEiKnuCXxxPXoP/E14GZVZ06Ws0IegJSIgOgbpJCoUTAgpskQJxhlGuIWC7gVRBo9fnPbdw3DJz93btXCACAfs/3Dqbf4bqUxERx08nP26cCypwd+yuSxHxdaWlK7bcDAAC81Mp9GTICaOmrvlg7YAJFWtmenalyeeaeHamd3w5gmOFEIvNAQAgTMEpme03nMoqX4BQCIDI+Ix8ACOH5JqSLHlPYpNEcIvgGgg3QyGBJ0N0GfBtXvLUWwhrRRFQV88sTGIJI5ExxBdTXBaZWmXDkD9pBSIQr3aVQKJRVidg/SRjeD/jEywX+yw9AABFeYPnPM/jvLv+VsFuWhPgcFrMDAACiV557OHLl43frCADodrx0KFdC3F1nPrw6MntzydgksbVcutg6SQAmJ75Vpb65I5aw2ig5DNgBQJecLCEEucHqkzc6fQRgcuKkMPEnj6YxkuTkWBgYDzOcCGQeVFBsV+Q4GcJwMwqXaYXWHiLHptv4hEG/yDkoWCmMO4gdlRWCVyp4obFKtgl/si14N1D7ga/OFFnnBAFADhFAFMXL1DCpGcz5L3zdK3XdUygUygaJzE0iwGsCRgP4qZcbu5uFESEBp8XsBECUBWftoMdhNJtDJULEbZb5UUuLxQoQC8CKRAB2AGBZAQCAy2rxznc8Wq0uACmwLLs42rXCiUTmgUTkVFYYWRGDXtZWL1+5f5J1SuIDAExgSO72PehH2xJiqvH/qhqBD9oswYH9jFrJ7Kpkes/S9ZEUCmXziMxNyni8fQxM+AJ/2OjI090B1ygYyeqKLru1VjiRyDxwoNihrJwRSwF9Avt1rdu1gk0QUZBqYXkMcnxXn4hsyEkizFpnpYetDf6Pu4KdB6T4eUG2CNwdvuN1s0+4LBuID4AQCMB0m68+i92XQsRxJApweiWpoHoUCoUSGZG5ST4AQwjL4/2EWShwkh4gf7kCuHrZuMatDUc2+3feJvOu+P6V0Ci2q6qMIgmgl7Vfj3ZaVlkSy3NJ9D4AhptUup0brAZ5wQfAAyIULbtFCHrA4gmqBL5gH4EXzKb5mMJzzIggAAEPAEjAA/NTgd1uBCCrjT6yQgIA4EF3JKmhUCiUDe3pquYxuxdfeZBbWB6PDwBArFAKAYITS4QKhRgAwOvZ5ELT5Q4GqFKpAII9xGqNEgAA3C7nYtlAIFjCEwYQV/EQ4cish9SmqpwRiRnOJbJf17rsq24bwUu2iYSAyHh6JRveeWCGMwNPBxCrIzC0sSDWhy0Q/GAPjywaziQyGQEA8MJKeUpidQAAYEbTCncpFApldSJzk5ZA4HnXohXnc1N4IouVYeUq8eweK5KgCoxYpVazAAABp8XqXnflZtiMDxmcxQoxSa46Uu6tGzCBMq2sMoUAonNwaHKzYgliMwwbMV5DtMWP7TJf7ZwBTf7O7dGEIDczNORY3ECzGE0cRPFIYm6Zfrrb6icAAAGn1ermSCQya4ESe9BHok/gbFT5OD9fMncvwPe5yXzPKoJHkuoihOEsMtfMxnvUrdyQEWM1JCqPl3DbP+LfyDZ1Ui2Z3dtCPbvnMCsnUVoAAK8NbR7iMaARIAqYrQd41hvctItEZfBKEwlBdI1xS3eeQGSS+TlRhCAahzj7AzVaQKFQHnwW7cLzpoDIZ/8jYgCOR/42WMxx3Lv+zVwiqS566s1KbegVElv66g9KAQBxpvrd965tXqU/0F9zoTflcLpUmb7jyfQdwYuInL3nUnU/t8nTVCZvnm/KenqrSpJQeuzF0rm4AqamS3XTi8pnQrju+hZL2lalOOWR51IemZW01H309sXJCGTWhhfrEIkZACACn6xiXBZyCyc0EzcWloLw4mwiKSCCt0++Ad8WEm7LLW7bQR6r4O1/jDvxDWdesWFK8MpvvFeCP5feYypfEWSG7k1ISNJu9iWY37IVYNp/pYF5vJARxQsOPD0fM3K2wNXrXCA0TxGJmnn0IE8BAB6uofnBGlOnUCgPAYt24SnlMdrQQo3wdjIAABjAT/24sRkW9x1C7C0nPnIUV5Xl6XVqqQD8dtP4YNvNK7cGN33lACHe3nOffDpdVbklLT64449xtLf5xtXGseXb3nqGLn76R+cjFbmJUXKpcOX9S8ORuXMQfWyqnUcYdEldI3d0aAwh7lb/lUxmfwqRpwueeT7Q3BBo7gTPZqk6F8voRe/nk7zifF5iFGF54LVz44Nc/Y3AmDvEziLI3MbftpUXLSEEceCKvz2c3TMoFAolFHLw8JH7rQPlzw0+FBwR7EhleACA/gu/8LdFuundnYPIFPB/dIBPAMDPDVzxnW4CeqAphUKJmPt8LDPl7hF7bNPm0Ex8lRyRvB9a/ugdz+dXlPGSVtq5/N6BaB0K3LwWaJ+ina0UCmVD0NYk5W6CskSGGeYs936rAkRQMfGIo9Z7HDGFQvnzgrYmKXcTYh/GiI+c3JyYCVhw9N7HS6FQ/sy4o/kaFAqFQqH8eUPdJIVCoVAoq0LdJIVCoVAoq0LdJIVCoVAoq0LdJIVCoVAoq0LdJIVCoVAoq0LdJOUegSjPKK3aVZwif4DPk7kHUDtQKA8X1E1S7hW6wn07y7ZFgeN+K3Kf2agdENm0Xc+89soTFfGCu6IYhUJZCeomKfcCREjOy1KCs7N9YMOHWf4ZcEd2ICmFxck6XXr51qS7ohyFQlmJpbvwIOJuAf9NPpESYvL53/Iv6hfaLuD9H/yVPSv6/a96Od/DXAIiz64+NC20amYuywOEMKkT2nyXtynJPDR7NAcSH5tmFSe4BFKOIMM5WM+Q3D7Ihh7OFI7M5msu3PryT/Yldp/656+7Ni1MIs+s3FWekxQtZ4nXPj3cXXf1Wodp8e7h4sSqI4erkqUErHUfvX1xcvU0kuS8LDlY61sNm3yWFZLsZ//ucPrA2X893rziBuvrCtxTVrIDgjh5e1VlQapOJSZum3Gi79aV6jaTf+mzONrTZ0tK4rr7xjZRI3nxS3+1J24hElvDx/91fmRDhrpnpkaUFT//+v4ES/XHH16bunvxUCgAS9wkC+SHLH83AxMcruINARGHAlx3qPckZDeP8ODhH2lRegQEAkZBgBBEFCi9AAKfadYQSDzSikm5dj6VHKNy8ZQOVh1jqhcHWwbhyDwUIEoKnnj5aIbUYx7u7zCjLC4lvfhYUqzooy8a5g5UE8WXHDtSlSJzGc1ejWqdAAXpudkSMNW2j363tyBfbgdEvn7vC89vV/stI/2dg35RVHJK0dHkROV/f1IzueiTIsTWdOLtps1WyTvZebt+AgAAhHHZubrNDv9uIM3duzOJb759/vok3petECnfKRYdy/wzlpcBcNHrfxuZX7KrvXzY7A+8h/MfOebxBft5eDOAd3Sc7wMAX+0lAH4zCwAAXr4qAH6xzzZ7l5dilkUFEBn/sNreL+R4PlGOSRrF8BKNkoEEuzlcmY2BCGKZ2G933hsjk4TS3ekS9+CF94/Xm5EggiL38dcPZ+yqSG043QeEYNyO154rlbuGrn5xajDtlVeL11ael5mbzsL0zbaJ7/KxyCvbQZJbuU3NjVd/8OkNIxIAECbseeOF7eXlmbUnOu9B89djqD9rCKqn2pmYqxPd7QjvFBSm7tudztrbvr42EmofRiRh3Q7Xd/gFo9wlFh3LLMDAz71cDRBc5U3zIEwgLD5ygTzGB0A8HYigAFSWvfSjnXHIdZ34z3rVwT3b9VoxOGcGWy+fvz7gXBBDECYUVFZsSY/XSAXE5zSO9DTVXWuePXo3btcb3ytVW25/9uuLo8jLfeFvHkshhjO/+KLRS6Iq/uLNqmhj7Ye/vbp+jwyiR75vTCoLthoZUdGwqCh4hwFwqo85fZ26mU4+G+MihEGb3Nog8wMBYG23OeEBo4CAQOsHswCRW1cmXAMtUg/E2qyyqortsvZ3Pq4Nem0U6kr37SlOi5ES17Sh6eIl55KmPIIkpaiyPF8fo5DwvHbjRHftpeudlgAAIMrKX3lzT+zEpbc/qbXNV3eY3GM/Ppbpqv3onUuTRB4XJwNv8616MxIAIASs7XVtOzKKY+OioG8GACQSHK75729uGFwQn7ZeGtjM3FQhjne2GhdeEkze/z+f3WK+9uE5b/G+4rRoKXHPDDVcOV8z6JhvH6yZitRjf/1k3nxlLvXgT396cPYp6+2PfnNxBNLWFhgNdgCASF+0s7IgVacSgcc2OdBac6Vu/iVEjDv41ovb7dfevYy79m5P0ojQMdXXcOXszeHgSziXio8u+Mv2Fek1rM82NXDr0qWGCW+YdgC1RsOAeaDPOPfVeYabbrQq0rwgAbABICY+9uPnCqXzOTXwzb8db+FC+vnD0AEZdcEj+6qy4uQ8z4yh6cJlV9X398V1nfz5ye71Mm8uhNUNtW5ezJlaml6+qyJPHy1nGZ99ytBx/XJNjxXDTwUAIDIpO/fmSj3dJ6/0+ReVOMKsQ28Vc02116+3jlFnSdlEQtwkBn7mgbWPd2/zB/7GD6H+UM1jSgmM+wJNG6n2CrMPPpmTFay+KnRZlU/LA+99UmsEAgCIopxDrxzLUzCzIfOVuoyi2NS0+K8/+LbXTciM0cShSq5U8nDEHxWlJgCgitIAjINapUDkjDPGyFVaFW93jGkAwC3wzw8qeZkAgABg/rjfcGTCJ+ggS6sqitI1As9U13WDe/a6uODwM/vSWY/J0DNqJaqCY49MmxY9yGY99uKT+Qqv0dDXNcSJtSmppU8k6c68/0WjjRBib20b2a1LzM5R1tbN1Xl4aVl6IZibgu0coVAA4HTYQtWx2Z0AEoEw+J/h0ge9Hnd4hZEkKzeVjyMdbZZlLwmTuOvJKNH4UI9ZokvTZ+x8Sur93ae3bOunAsBm6Gjj+ABEmZSboLCNthnMsyWua8wBEIYAIApSD7z03FaV12jo77Bx0piU3B3PJWn+8MHpHk+IqvzkfUej2PHBrhmRTp+Su/spqf/9zxoXrEPiKo/GSCeGuk2yuLTk/IPPyQPvftnsWJrYle1gc9gBNNFaFqc8JFgpMTWe+aoR5k9WsRlaGjkhABBN2lb9Kgd4rqEDIpO695mj2xQ+y2jvgJlRFzyxz2hZOZiVWc9Q4ZhaGMxNn2Wkv9OM0rjUjLKnEqJOfXCizblgjXUtyYut3L9V4TWcP9fpXNLd6pvoM2BV8aMvbS0baLxx/UYbdZaUzWHBTRIgzghfKkR4VMAIAM8GNhZ7YqK46eTn7VMBZc6O/RVJYr6utDSl9tsBAABectX+PAUBz8jti9fapxwgicmu2F8cr8rfu7Ol7+woeExmB4BMpVYBWDRqhWNqkmhVGj6OsRq1EMBqMvnDa+EK7TXxbsYr3T3N+uSWGnkAAHVmTZ4z0BtrHeShV0AICRgls6mcC5KX4BQCIDI+Ix8ACGHWlQmTWQe5o7woLYrvnuysOXntVpfJT2bLBc228jShb6zmw89qZjiCyE/c/eKLoU06SeaWNNbWc+6jr5rtQABAlHnkLx/PKt8e13h5HADsHe1DexL12Xnq2hoTIQAgSMtIFcJMfcfU4qIHEUQyGXHaXDibruBt4vWG6SMRJXl5SQw33NZhX54dWrXt9+8d7/MSRFAVPvPGvuSS4oRbF0fXTQUh043nzjQGp43kJihm2k6fDpk2QgiBdQQAABTbdm1R+QbPvXu8yQoEEWTZR79/NHdXcV1PdUgdK0rjOPn+Z10uIARkBc+9fiC1rDix4cLwXGhRGtsf3/tjn5cgEm3ZC6/vTC7ZGt1cMx2WHaztLcMVB9IfeXYPnqvtnnAvrU8RYmm/dqEdAJFsUazqJtfSQZRbli9HU8MXH5w3+AmiMPPgq08ARDCZYE1DrZsXAACqwqo8RWC8+sPPbsxwBBFU255+Y3/6jmJd25WJsFIBgKAq218UxU1cPtdkW1blCkw0fPlue2xOyY7ybSWPvbStvL/xxvUbbePUWVLukDtaEMJjmP0EvIHAuY3N3iG2lksXWw2Tk6Pdl769NYFICKuNkgdvRqckywgBa+v5C20DE9NTE0Mtly61WIEQhT4tGgBg2mQCALlSA6COUhPL4KCVaNRRABqVEgDM09OrRx2qBSHgFvoCHMMHtLEeh8DvFBKBjwDjN4r8TmHAv8JnhmK7IsfJEAaNCpdp+f1wZVZAnrb7ye/96HtHyuJ8XVdPvP3bj76+0W0K0YEXrVUDjLc3zHDBxod/uLknNHjiajn+q1/9+qsW+1wB4ertnwBQqJSzE63cna0DPojOytUAACCS1MxUIRg72pf2UQszHvvRW3/5o6cKpGGrvxRFXl484x9o63CucNPe09Lnne3XNTe1GBAUUVFCxLBScceQOF0sQUNbqxVmdbB3tQ94QRuXIAyNwtXbGPSRAGhraRsMgEyrZRfuO/s75lKB082d4wAqjXqpkqvYgRBH/alTDVNMYsmR13784x++eHRPQYKURJzAtXTQarU8mO5oMPiDAt7upm7b2sEtJlxDrQ4vLjaawFhb89xLC+bmVgOCKlbHhoSwtiVV2/aX65iZ+gt1RgQAjNv9o7//ux/s0C7oCZ7JjmvH3/vte6duDPrjSx57+a3vP/VIlpr38M8vpNxHNn4sMyJWCBg14KUAOjY40cBmmS/dLRYrQCwAKxIB2AFAImIBgCiLv/fTpfNDxGIJAIDHaHRBkliplBG+Wum1jI6gt0ijIqxQLQawG02+SOaLKL18AM4qAEIQkS/3AQj91lWERU5lhZEVMehlbfXyledZhCOzYtgSWzdEAAAgAElEQVSphRWpwt6aP5yr67dwZHkahCIhjxCny7Vwy+lyLZZBItPnZCRqlZLglGWi0gAQwjAAHAAh/s72/gPpWTl50dXXpoFJyU5lYbq+3bg0toDbYff6eDbXstUJ4RKVn60j3q72Hs9KFnC6QpwG53Z4AIQiFsAbRiruHJYVEkBV9p4DCwsiJFoCIGTndQAAcDrntwIgBCb627rA5+IvSITcB/C43AB8Pn+JkmvZwdF35sPf1mfkb8vJTNNnlD+aVbj15u+/uDzkjeCzWksHqUwCMGULEbBY7QCysAMP11CrIxAIGEJcbufCGxbMboFACOAJIxUoyt6/I0loaz5XPbb2pHEC3qnOmt933tRmFu/ZXVpanHGrszaiagGFEsrG3SQQ5hADgNyZSCbvLAbXqOSR1QOduzVjNAGIFSq1UqjmmbpmZoiFl6nRaIQqADCZIlpPxZf7CIDfFpxl4+XJAfys37lC0lDsUFbOiKWAPoH9utbtWrGtub7ManBOuwuS00v38cV11bUtw0tn56wPClMOvnykKIpdej3kt6+3vcedlZeVE3P1ynRqRhoLE7faTctKH27k6ju/uAoACJJI1QAARO3W3Gjwdrb1eCN9S8JJxR1CCBDC06YXahdfxzVVnWk998dWiCg569qBgHe6p/5cT/1ZRpax4+jjJcWHdw2+fXZwcyY2E2AIWeS1MTIzbsxQS0JYVbnwUG8tTmd9vReuDgbWfwSRH5Wxrbxka6qC8UzZN1zJo1DgTtykns/LIdDnw+67M2c9+CGjqf6L3zcsmW7AuW0AQIjLZPKSBKlKpRMpA2aTxUysqFRHq/hyAKfJuGLzZTn8rNGo7OB3tGSaq0P9hAPtcuN51XxphWK7qsookgB6Wfv1aKdlhV7rcGTWwNtz5tfv9hRXlpVs2//y1rKhlps1tc1D9giaT/Hlj2zXgKHmy1M3DRYfwvy671ChQH9rlzNva1Z+3LXBzHQWJjvbzeuXWZEWr3F52SpwtbT3Rl6XCisVdwYiIHpa//CLU/3LlNvUtzp8OxDO3nP5T/Wpr5VnZSacHRzclOgROMRFIyxrVEJXDOCODbV6hTjcF4rH4wEQZdauxxLnLol1IgDf0uAE2sztVaVF2bGsd7q35mT1za4Z70O+Vo1yf9mgm0Qkh3kAgH8KbPKmKvM43R4ACYiExGyam/vKl6lkLAEOZ33GtNkIECeP14sFtoEZDPDNNkFCcjzDEGI0zmy+TlKbqnJGJGY4l8h+Xeuyr+T/wpFZD5+l7/rpvls1acWVZSVb9r5YUDrcequmtnHAxgGA1+0NIErEYgD37AMSsXjuWURBTLQKuO7bNYOW+awRCJcsRiEEBto7bVu3Z2Rt56eKcPxmu2UhJ71eH4BcKgdYsKJcJgHwejwQLoiQkpelAEf96huzScQSmF9hxIikLIDX7Qk7FXeIx+NFEIhEfIANTkILh7XtEFfy1P5Md+PX3zTb5m/ZbU4AjVi8WR+Ww+4EkMmlC/2jSkX4Pa7w/7P33tFxHdmB9633OuduNHJooBs5EDkzgqQ0JEXlLI+C5aBxWNvj862Pj49n/dfYZ3dtrz1rr+yxNApU4IzEGVEixdGQBCMAAiBB5BwbGZ3QOb77/dGNnBoESGmk9zs8h4336lXduhVu5doNRfl8PgZRKBABLMwPBJPb5wtnzDYIIdxIXV7kyoeLo6kIvKj0oqrywjQ1z2sYrAsaSFhn2oKFZVvco5kU0dReAo5A4Nr9spIwN6p3lChEgoyDx2ZJy/g8w49MqzxSliAAZ+uZn341CgAwb7L4MUYcH0eh+Y4ZgGO2QHZiIkH0mE2OMCXzDUUaxz2i/QaBT2qplzIAGG2OyHH5h6KtIzQwdLCniSJ70P6hj+tsVfgYP2dxGDLA8bkJISQcN+FrIGgs79Rri6rKS/IOPBNFv/lhk42QgMFghtSYrD0RrbeMSBCphLw05bLvXC4fUJHxMXTvNAMAiJy4wszoNa12nOjqnS8sySxJE+FUc691mWy2qSk7xKQXFzaMLh4vUJotA2fH9DbOSKCSczIkoYPZNoi4WJuVUj817CWIIN+Tk0jAajR6CQEMNxbAeL0+AIFAGJzTXsvGDnBqcgZTE7Nz5d13g8aYE1XxwpMF/J5z/1U7tmsdyk31MO+lo2PSS4rbe2vHg50eWpWbFQ1oMMzuVuEyGOYCoMksSGi+PO4jiLzUvFTpOv04p9MNIJdI11jDcBW1saoDU9NzqIvNzotoD610DSa3eXoqzFEfY/37/7N+pVSx+994vmjxT0HuiVeOJnkNA/Xn6ptYA8mye6w4hed1LgktMwUiBGBo8mfBHMww7/hxcbMXIhzmED7gJT/ev0NcA6N1l3o0j2TK1FmHnspaEBIDlp7a+hEmtOzQaDEDRCqVaB02BwAC8xa3MFGJALPGsDuTxM/18R0cDuCs0OPgEkK4Ih8A7ZsR+INbZAgAAB3tEAgpACBcn6RienljHGdUM7fEYbrZLt75oYYvh+7Ua4tSF+ouY2vjUNFxXfXvvJo4PGEFRWJiYH4OIDoYHQIjHV3WjPzip1+NGRk3eTmSqMQ42+QMQNKqiJO5th5DaUWkmJm81WNdcTLtRPO1wYwTqYdeeTVtZNKCktjkRBXfo//qVqg/hFG5xwrjgj1lQZQAAJIrHj7uAQDfWNPlDhMBAI4uM00ApvauqY0zyaxB8tArL87ojX5hlFaj5gWmbtyeCK4+DjMWAFOjem+WtuyZx9Wh3RSz7efvTC4zSBs7sLZdb9vzdP7BV17RjUxZfTxFoiZBDtPX2sd3cdB1cz04Oupv5z9VWvjU7yfox2ZtAYEqMSlOxrG23WwxEQIAnLj8gxkqAAAgKjUAKLMP1cQwAADu8eYb4SxZdXc3dlSkFBQ8/XLk8MQ8pUyI95hmQbGqW0aId3hwMpCgPfL8I5pJZzCzWYfqGkc9YStqY1VbWm925T2eU/U7ryYNj1sZcYxWo+I6B2/e2bWDmdA2XH/uelPfHGsgWXaXFafwlNKUenmmJ/ReCgAAA/ixH5cmCCnqKAXAMF8x9zE3EuLq/vID+2RlWa42Tinmodtmmh7saG5on1w6A8FiNDMQSQNYzEYAAJPZAlQshV6TybYN2egILwfAa+YTQhB9XJUfUOQLfwvH/cdrGWpoDs0DEeJq//KM4NCB4tQ4XZrSpO/44pqz8rWlWyM8Y1dPf+45VJEZn5wR6bfPDTd9esVW8oN1JvUMvUOmcrVisnfVXj5CHB2ff+yt3FuemajNjGE8DuNAc9P1ut7Fpb/ShKzsTO6y3BKVmhMFgOgJ9F7uMAEiNyNLxwNjV8fsZikxeePsWNnhEl2UmLjmBptvXLq9YK/DjAUh7vaL55VH9uYkpOfyaQBAgf7CnUkmDAeE+Icvn/65ZW9lbkpKZjy47SZ98436xi7jrq0T2lIPhJms/ejUdFlVcVq0Ji2Bi07zVPvlhrrb4+5gcnPUuqJCzbIv5Mn5BckAADCPPeGYSUKYkStnzpGa6vQ4rU5h1rd/cd1Z+apmrUvznfOfCQ/ty9LkFPA4hADAlON246gnTEVtqmpv/1enz8zvq8xJ1mbFEZ/dMNDUcL2+f7ubtTfGO3r3JgBrIFl2HXL02PGvWwaWrw1R3pM/OJI4fvmnp1vX29W4A5CX9ewbD2vmbvznh03W9XpRocPJbrz1ftO3ea3+lnr4WkBh/ktvHIruOffPX4Z7WB0Ly3eWHWwI+bYQfXLsQQY38/maUcOvCURBVmYCxYz39IU7jxs+4szsJBonerq2sA3fGMtxnwhXDw8WIpdLAWy2HRzGz8LynYE1k98gu/WgkWRlxVOMvq93ve2hO8TZ9uk/7vqdT7+FfEP0gKjMOVAQRwMAEFoYlayTMcabvexVjSwsW8Oaye8uiuzMGMKM9PS5v0kdHZb7gzw5Lz+XTwCA8bttppGGy1fYyxpZWMKBnZtkYWFhYWHZkB0dfc7CwsLCwvLthjWTLCwsLCwsG8KaSRYWFhYWlg1hzSQLCwsLC8uGsGaShYWFhYVlQ1gzycLCwsLCsiGsmWRhYWFhYdkQ1kyysLCwsLBsyIpTeBAhh0OeoKk0ivARjQiN/sDpAC6/EA4RM2j6aQ5Jo4gAwMzg7UDgYz86dnacB3Jyn/vTI8mETN146/1G69YfsLCwsLCw3H+W3TeJUMGjf0gTBrEzwNiApFLkER4n0+f/Wz8GgrcMIuZzOX/NITRiZ4CxAOho6mGKk0v8f+1D9swzFhYWFpZvGUtmklDUazTxM8zfeQP9QACABvJXfLqAS+0PBGoXHL3MITQy/8sdaCIEACgf86d8TjVNH/f7z+xEELJrN/yxsLCwsLDsFktmMokmKoBmf8hGAkAA8EIACjhUGhWoZQAAeBSlIWTQxzQtdBwZgI8DuJdLZVAAzBrvN0GsqT5UnauJEIPTMNpWe9keWPk+svrl18ojEAfO/dPZrlBfNv3JHx5PI8Rw6/23bxoAQF72/B/ujUWm7+ybraqj+wuSIgTgNI52XqttGHHcs05YWFhYWFhCLJnJKX/gj/zoWvmaAQQAz0JPT0QAAMyIyy9eMjAAAPztXMWEoN73xGNVUTQAAMhi0vc+QfVN4z1f58TPfOjRjFT+gm+VTynIu6fqDOw95iwsLCwsO2PJTPoAVtkVRLKPJoBMB7OOAeMgyAGNC93Kbc1LctMrSiIpRMY6dPNy45iVE5FbtW/PvcUAACA+Qdh+7hddc36ZtuzAXq2UiiyqTm/8rC+w9acsLCwsLCwbs+GGEEQs5FL7CAz6mdtr3wL5GwHn/wk4R+Fe5hRVkRE8QgDHbp5r6p+andF3X7zcab/nvh+xtV+u7dTPzk4N1J+vH0EghBcZGXGv3rGwsLCwsIRY30wioo7D+QsOcTCBnwTWu7sV0QjgAZy/p5U3YpEAAMBltfoWHpnn5+/FpyBWi3nhp9dqdQEACETCe/ePhYWFhYUFAFbtmwyCiCkc+m+4hGICP/Ywk+sNpxIC/9fj/78AQAi9/VDJ/Z81fABBsLCwsLB861ltJhExmcP5EZdwGeYfPExv2FOOuJ1uJYYzVLvgBBdFWDR9YX3N7jBhYWFhYdkpKwZdEVHDoX/EJVwm8PfeQOcaG+lEAADlyudqChDRuR2z5HB5AACEMhl34ZFSLlvpxuV2AwCAQqFYdKOSAwCA2+Vc6VYmly/85MlkQgAAt3PVol0WFhYWFpZts/wUHkyiQ/3IH3uZ7vUGLb0MM4pEy6FK/QvHCwA8TxNA7NvOpknT3JwPFRySVH2i1NM4Nk8rc6tz5Ss3hNj04yaMUxF18cP7LDd6jaDK2VsYSQgyxrExxwqnKN1z5KCpLrjStTKZAKJ3bs64bWWwsLCwsLCsZNmgK6H/lEdkAAMI+zn0/mWOLAHmdLCviMx7fuqvOdT/JyCdDFqA6GgSAzDuD1zYzq5HX++t5jJdZSQt1+17QgcA4BkeHAetZrmj2ebLbelP7FGI4ktPPlcafIYYMLddbTKsDAsnJt25J54pWnwQmLtT1+e/522YLCwsLCwsQWhdWtriH49wKBkhERSlpVf8UyHzJQMAQAiZDjAdSFQUSaUpDQEPwnV/4F/96NrOxkkCzrGhGSJXKcQCKuAwjLT8+jdj6uJ0NSH2sZa2CQ8AEBIwDXePuXgSiUjI4xDGazOMdTV89UX9+OJR7IL43JIkKRBD/c+vzioilGIBHXDMjrR8db5+wsfaSBYWFhaWnUKOHjv+dctw74QOq8ORCz850+5n7SILCwsLyy7z7bhvkr2ahIWFhYXlvvDtMJMsLCwsLCz3BdZMsrCwsLCwbMhv99wkCwsLCwvLfYXtTbKwsLCwsGwIayZZWFhYWFg2hDWTLCwsLCwsG8KaSRYWFhYWlg1hzSQLCwsLC8uGsGaSheVbBaI0tbRqX3GydFuX233rYPXAslusONP1wcOJzDv+yNHK3HgyOzTtZHPz/YLV83eImPJnTpTG23vqBi34XT6f6l71gMjX7X/s5N40oXFo3Ladm49YtsnOVf1gEutr7k0mFlRlJ0RFx2ftLUj8eiX5dsPq+TsCIiRlp8vB2ds9wnyHbeSO9ECSC4qTYmJ05XvYwnKf2bmqH0hicZb/gQg5HPIETaVRhI9oRGj0B04H0LMynyHifi7ndQ4RE2L2+f/Af++9k6n+nmldXgSYuvqn7tmTnSPKf/pPDiciTtX+x0fNzm9h5bITPQfPl1/+hOk797+/6LtnYZC2K79n4FlVxmvSACFUyow6x+VtS7SM0SEHxMfXWoXxLq6YIUgxDr5nTGof5QdvRkN0yo/NCrnrt/DQK7JciPDeHwuBvD0v/HFNQv/5nUR/tZ9Emla5rzwzMVLKJ167Yby/6cbNHvPKdrEwoer4saokMQFr0wdvXZndOHYkKTtdCtaWTv12brYLS86Mp/78mG7k4j+daQ+sp94tHTxQ1tMDgjCpsKoyNyVGISRum2lm6Pb1ui6zf/W3ODkwZEtMZPqHdrNSkhY//4MDS+UIbXc//M/LE/ekqAemakRJ8TOvHI6fr/vw1M25+xHAjlW9qQ+7pajl1zJDBY/+IU0YxM4AYwOSSpFHeJxMn/9v/bgYBh/I7/M5+ymYYZCz476oe+Tqe29e3akvLFvxzdKz3MMlEDBxA4QgIlfuBeD6zKHMhMQjrpiVqhfbXgylcNFyB18ZZW4Rfst6SIii3EdfOJEq9ljGh3ssKIlN1hWfTIwWfPDJ3fmQG0FcycnjVckSl8niVSm28JCry8oQgbmxe/K7fdnqWj0gcjSHnn2mUOmfnxjuHfULIpKSi04kJch//lH97IqGPiG2trNvte22SN7Z3jstMwAAwIvNyIrZbf/vB+KsQ3sTOZY7lxtm8X5cMLFzVd+nxFrFkpkkFPUaTfwM83feQD8QAKCB/BWfLuBS+wOBWgAAQCD/g0+nAlzx+t9C6t/53+mi+B3BdveL/+oL5hNVyVOPFsh3mugcpZcA+C18AADwchQB8At9ttBbOtkiiQggUv5xpX2Yx9A+QaZZHEHRCSbRSLzdsuRPQB9h6eMu/OUXVsyKxBQ4eIEdyIYIQonQb3f6H4g9JvGl+3Ui92jte2daLEgQQZb1yCvHUvdVpNy9MASEYGz1y0+XSl1jNz45P6p98aXizYWn07J0fDA0d818l+8kX18PoqzKfCUzXff+x7dMSACAF3/g1WcLy8vTGs/2PoDur0ffclEfFE+xNyErRnC/A9wpyEup2a/j27u+uDmxc/084JK1JZRAxHc7XOEVkyUzmUQTFUCzP2QjASAAeCEABRwqjQrUBgeBCOFi4J+9TD0Q3EFkEdMe/4sTGdSSFzh17d8/bHYs02DoLkmm7+z/a1EcPVCoUQvBaRztvHa5YcQJAID83OffOKKhibn5o59em178UFn+4u9XR2Ng7Ks3P2n1EABAECUXVZZlJ8cqxVzw2c3Tw51NN1r0zo11hES976UXqqI46Og/+87nvSF/ePG5lRV5ujiVmEt8TtPEQFvTzfYp9zKxKXFCYUVprkYtl4j4xOey2w0T3U31dwbnA6vj9War6uj+gqQIQTBetQ0jjmUChBEWAj8+r6I8VxuvkvDpgHN+Tt9/t+5Wnymw2ILeWs8AgCBIzC0tydNGy8Vi2m+zGse7mm+0jNgYAgCM127yBn3jeHcwR47okdZMiSXBXiMlKBoXFIV0BuBUnnT6emOMvRx+lIsQCm1S612JHwgA33aH4R0xcQlw1X6wcJd89NF+Jy/0O9LGFwEieIYk91akEUGoTi+rqiiUdL/9YWPQaiMvprTmQLE2SkxcBn3blaurlz8Fs1Z5jiZKJqK9dtNMf+PVht75AAAgSspffP1A9MzVtz5qtC2mCJV18o2Taa7GD96+OkuksbES8LbfbrEgAQBCwNrd1FWdWhwdGwFDRgAQiXC8/udf3tK7IE67VRz4aVkpPJzu7TQtWQdMOvzfnsqz3Dx1yVtcU6yNFBO3cezu9cv1o47F/sGmsUg5+SePZS82iFOO/uVfHg19Zb3zwU+vTIB2cweTJFh2BJqivZW5KTEKAXhssyOd9debggUZABBjj/7Bc4X2m+9cw32HChNVAnTMDd29frF5PJjhF2LxQa2/rKZIo+L7bHMjt69evTvjDVMPoFSpKLCMDJkWai7PeNutTpnWCyIAGwBiwsNvPF0gXkypkS//5UwHs6zshCEDUsrcgzVV6bFS2mPUt9Vec1W9VhPbd+6fz/VvlXgLPmysqC3TYkHVYl35vopsTaSUT/nsc/qehmv1A1YMPxYAgEgl7z2UJfb0n7s+tLOrfNeWrJ2renMfwlEUL/17f1DMtDU2NHRObWksl8zklD/wR350rXzNAAKAZ7FuwMD/8IDzgTYHeBlHH8tMDza9ZDHplU9IA+9+1GgCAu7+vokaTRKt0KVGXp2aC2YRlKRpIwGAmejvdQMQQBTnPPrC8VQJFRKblkcl50cmaeN/ferzbvu6syxIoqseKo+kEV29tZdCNhIFmd978WS2bMEfjjwmtSg6RRv3xfu/HgwVZk7SkeefKJAvDkbzRXJ+knxvojbx1+9/2mZbHhY/86FHM1L5i/F6SkHePVVngLDDQmHm8RdOZi65kUYkZEck6DR1H51umGXCTSNEce5jLxzTLeqHr4wUKw8kpWmvnvrFbdMD75R4+6PMIwBurn9xUslLBQC4ABAy0nxXS6SHADq4C1EICLUOmlDolDgmty1wsBiXVlUU6VRcz1xfg94dei7MPfZkjY7vMesHJq1EkXvyoMG84kN++sPPPZYj85r0Q31jjFCdnFL6aGLMV+990mojhNg7uyb2xyRkZMobm6yhb2htuoYHlrZgP4fH4wI4Hbbl4tjsTgARN2T/9VffH/S4w0sFUXpWCgcnerrm1+RqKmHfYxGC6bEBiyhGq0nd+7jY+7OPb9u2jgWATd/TxXAAiDwxK15mm+zSW0L1gWvKARCGA0Dkphx5/uk9Cq9JP9xjY8RRyVnVTyeqfvX+hQHPMlE5STUnIvjTo31GQYwmOWv/42L/e6dbl7RDYitPRIlnxvrNklhtUs7Rp6WBdz5td6yO7Pp6sDnsAKpINR/ngostCDG3fvV5KyzeV2vTd7QyPAAgKu0ejWx9JW8iAyKVcujJE/ky3/zk4IiFUuY+WmOaX9+b9dlKUeGomhdMTd/8xHCvBcWxKallj8dHnH//bNeyVRdbapKOrjy8R+bVX77U67zn4daNStbOVb2VD1sryjczpMeq4oee31M20nqr4VbXZsZyyUz6AAwr3SGSfTQBZDqYUIVFgOzSApeRiz975zoBANAc+P5RHWdjlwkJwrZzv+ieC8gzqw9XJAo5MaWlyY2/HgFCPL19E4cTE4lCmxFxfc4EAADi1NRogsiM9/cFzQmdUlmTKiGA80N1VxpHzCDTlh3YmyKVph2oTun99cg664/o6PJjJVE0Ic6B2osLuYROqjqcLSPgmbhz5Wb3nANEURkVh4vjFDmH9nYMXZwEACCa7BwZQXQNXv7kfLvBxXAUKdVPnCxQ8xKL8yLb6gzLAolPELaf+0XXnF+mLTuwVyulIouq0xs/6wuEGRadVHk4U0YRYhutv9IwaAxI4gv2HsyK4MWUH8prP93qDFfP8SX7dRIC3unWq9c6Zuwois2tqsmP4SdUVKXe/WJgF9dY8+z1cW7KK95v4Puk8/XSAADGWFTZzsBgtHWURi+XEBIwiUL97oWcRsc7eQCIlM/EAQBCaN+MeIXHMps4kkEE30iwAxouoWJcXV6kjeC4Z3vrz9283Wf2k1C9oMov1/J8U/WnTtcbGYLISdj/3HPLu3SitDwt3zZw6YPP2+1AAECQdvz3HkkvL4xtvTYNAPae7rEDCZqMbGVjvZkQAOBqU1N4YGzpmVu9LA4EEglx2lwYinvwNfF6w7SRiKLs7ESKGe/qsa8dcVUrbb9898yQlyCCouDJV2uSSorjb1+Z3DIWhBhaL33VGlwNkRUvM3ZduLBsNQQhBLZwAAAgy9+Xp/CNXnrnTJsVCCJIMk68diJrX3HTQJ1pScoIlePce6f7XEAISHKffuVISllxwt3a8QXfIlS2z979bMhLEIm67NlX9iaV7Ilsr19erDbWg7W7Y7ziiO7gUwfwUmP/jHt1xiZkvvtmbTcAIsmTbVh3byaDIKssR4rmu5+8f1nvJ4i8tKMvPQqwjSWOmypqy7QAAFAUVGXLAtN1p07fMjIEERT5T7x6WFddHNN1fSasWAAgKMoOF0UwM9cutdl2MDazUcnauao39yEcRQVm7n76Tnd0Zkl1eX7Jw8/nlw+33mq41TW9rrHc0D4hYiGX3kdg0Mfcvgc9bQohPse8JWjVI9csNFvp1NZx9UrnLAGYnfm1IuX16mjCV0dIYcQOAI7+vomaxEQqQpeuutFgBgBRqjaOAOBkf58rWEhikpJEhCAzWnfuVq+PAMzOnOMl/PFDWkqUlBQNI9OrAkSirn6oNJpD0Dlw6Tc9i13nyOQkCSE433m5tmuKEACYnfZEp71QIpdptJEwOQcAEOqRuQ2TBjcDBPzzw1ff+df11s4QW/vl2s45AjA7cz4oDy8yMgL6ZsMMS61JkhCCzMiNs/XdPgIwN3PBI1U+lC4AoVwNMBaunqfr3n2zESDgcXkCQABgrlaYln8slfAj1HIYMG/w2bYhhICb5+O7KQ6gie9xcIEQDtdHgPKbBP4N2l8otMsynRShGKPMZV5nxg2R4etsHEKhX+Ac5a7nxwZItfsPVRdpIziu6a4bZ+vvDlr8ZHkAdKRaCTDZfdfIBMu2f7x9wFwSGbEYI1fHmTc7gj+DT1yDwzOQrlHIAaeAEHD3do4c1OjSs1T1dWZAJClpKTww9XTPrYoJL/XhP3w0i4z85qdnhrcRheXIsrPjKP9wV49zHS3ZB6/Yi1cAACAASURBVDqGvKFxXUtbh/5Qki4igocTXkK2jsWOIbEx0QSHujqtEJLB3tc9cjQtKzaeh8alZcmuwdagjQRAW0fX6KGUNLWaD+MLw4HO4Z6FWKChvXd6b2y0Sgk4t0LIDfRAiKPl/Hn1E98rLDn+cpHHMjXa13m3uXPcsc3Zo81kUKvVNBh67ur9QQfe/rZ+W16JZNcVtTF0bHQkgfGu9oVMC5b2Tn2NRhcdw8fpxT0Lm2tSkX+4PIYyNtc2mRAIwdj9bzxf5Gs89fZNwyZBL7FVyQqTsJJ7BxDwzPbcPNPTFJVRXF1WUPLwC/nlw603r13vNa2auFnfTCKijsP5Cw5xMIGfBO7LGqewsc0vVtTz81aAaAC+QABgBwBwDvRO1CQmkihtmrz+lgV4qbp4ihBmon+xkPD5XAAAl3XeuziIZ7W6AMTA5/OXh0RIbM0bP6wBAABE9+CVS92upYiLBHwAIPLi7//l6nUUQqEo+APHR0a9GTq+suyZV+LGpwwmi9EwNz2un7KvtVFWy2K8FuQRiIThhyUW8lfFi8DktY/euba5OtcS8BNVdnV5brJaLhHxOMsmMmma3q5nWyP3cgAYKxcIQUSO1AfA81s3cCxwyitMfAGFXr6tRbr+pCPfKYoLAFCBManbt42sKkgpqEjhDdb/6lLT8DyzTjHmCXg0IU6Xa+mV07VqVgKJRJOZmqCWi4LLvolCBUAIRQEwAIT4e7uHj+jSM7Mj624agErOSOGDoaXbtDq0gNth9/pom2vzRuMmRORkxBBvX/eAZz0VOF3OpT8Yt8MDwBPwAbxhxGLn8Pk8AqjIOHBkaUOESE0AePxFGQAAnM7F2XlCYGa4qw98Ls6Si2XvATwuNwCHw1kl5GZ6cAx9deq/WlJz8jPTtJrU8ofSC/Y0//KTa2PebdRvm8kglogA5mzLHMxb7QDhm8lwFbUxXC6XIsTlXtZGCCY3l8sD8IQRCxRkHK5O5NnaL9VN3dvC8i1LVpiEk9w7h4B3rrf+l73N6rTiA/tLS4tTb/c22la6WcdMImIKh/4bLqGYwI89zOTXvDAJNzlqihBXb99ETUICidZmyG7dcqWkJdCIzER/32IvkGycSJu8AvA7XSuyZTj+EFf3l2clR/YX6qKUSamqpGAEGI+h9+pnFzpMW7Vbl/wJJ6xdmjUUaI98/7EcGfWAUpkj9REAvy3Y7fPSUgA/379eBwiFDnmlUSgG9HHtDWq3ax0JEZGbMs+nKWQ4riEB2U5eZZx2FyTpSms4wqa6xo7x7R9OhLzkoy8cL4rgr36+7LdvsHvAnZ6dnhl147ohJVXLh5nb3eY1cjITN97+txsAgCDarhgAgKjekxUJ3t6uAe92a6VwYrFDCAFCaLWuQL06iM1ENXZe+qwTthWdLfVAwGsYaLk00HKRkqRWn3ikpPjYvtG3Lo7uzvJLEhxOWlaN4/bUeG+KWuXDhsKFh3JPsY7vG6y9MRq4R53svGQ9YBA5Ean55SV7UmSUZ26dPs1qM4mIyRzOj7iEyzD/4GF6vxmLdzfB3tc/eSghnkSnpkru2FMTOQA409/nWLaneMNEWvUKcabh9PlOd+zeZx/OFEly95fdfv/m3Ep/0NzyyS/vrpqWZ9xLjQ+nvumzU00coSIqOlKlVMVqMnO0SnXm4UdMk+/d2mIAc1GecMLaZgHcIETk5xRnyyiCnqmm31ztnHUFAABSjrx2IHm3k56TPhmREcyBq5a5OpSPOtAuNV1WLNZWKLQrqkwCEaCXb2+IdM5vsEWXdok0PgCKmZW717O1m+Ad+Oo/3hkoriwryT/8wp6ysY7m+sb2Mfs2mqpx5QcLVaCv//R8s37ehwAL25mXOwoMd/Y5s/ek58TeHE3T8WG2t9uytaDbrV5jszMU4OroHgxsu+0eVix2BiIgejp/9W/nh9cIt6vZLHw9EMY+cO03LSkvl6enxV8cHd2V4BEYxBVHm22zMbtzRW3cqQg3Q9E0DUDk6fseTlh4JIwRAPjC/H43StYDA4GrTiusKi3KiOZ7DYP15+qa+9YZ3F51Cg9qOPSPuITLBP7ey3R9420kAICzr2/qYEI8FZuUrHMm8glhpvt7l03eezw+AAChTM5bSGqeTCYEAPB63Cv9YlwWs8lpudKQm3oonlYXHtrT9vM2eygctwdABAIesZhNofWoHIlCwifAYCgHcIVSEZcA47HbzFOjlqlR6GjptL/4e/tj6ai4eB6aliWATC4HMK6Qx+10hR+Ww+UBEIFQLl8YjkGIPfjSsQwB+AcuvX01zIIvlUkJAKC+9VrvZHCMBQXMBoOtgUBoXxAFeD+H4sU2RaVRIKQYl8DeoHbZNzzGgk6yCXiASHkGRfcwQOSbH2q4MHS7XltcWVaSd+i53NLxztv1ja0jNgYAvG5vAFEkFAIs5BORULjwLSI3KlIBTP+d+tH5xdzG5a2aHSUERrp7bXsKU9MLOSkCnG7unl/KnF6vD0Aqli7kBAAAqUQE4PV4IFwQITk7XQaOlo0PZhMJRQALQ9uUQMwH8Lo9Ycdih3g8XgSuQMAB2Mmm1i3YXA+xJY8fTnO3fvFl+9KCc7vNCaASCncrIzvsTgCJVLw0PiqXhT/iCruhKJ/PxyAKBSKAhfmBYHL7fOGM2QYhhBupy4tc+dC2vtsNxNi0ZH0TQOBFpRdVlRemqXlew2Bd0EDC+kPEy0/hwSQ61I/8sZfpvp87ASi+VCEMVcWioAiUUKFU8gEAAs55qzvseXVCXD19kwfj4qn4PWVuIQBM9/UtX501PaZ3FsuEJKnqeLm3acQMcm1ZZTIBROfo2Oy6fs63XmspfL5UydNU7k3t/nLARwBgblTvKFGIBBkHj82SlvF5hh+ZVnmkLEEAztYzP/1qFAAguuyZF4vl6J+9ffbzG6PzHuTK4jM1SgCAgN+7oi+P0j1HDprqgitdg/J45+ZClWU4YRlGx+ylCgml2Xuy0t8wZPCL4gv2FUfJaGDGzHNh6tmF8+Z5BCUhiUVH8pztMw4ijs4sLYllANYxlfMmMwMRNEnIKtMY+q3B7VQBp9XqDmP/iW8o0jjuEe03CHxSS72UAcBoc0SOyz8UbR2hgaGD+kGRPWgj0cd1tip8jJ+zOAwZ4PjcZHFkFcEjSnERQjHzEpfx3vfTB4v0nXptUVV5Sd6BZ6LoNz9sshESMBjMkBqTtSei9ZYRCSKVkJemXPady+UDKjI+hu6dZgAAkRNXmBm9ptWOE12984UlmSVpIpxq7rUuy5y2qSk7xKQXFzaMLh4vUJotA2fHtGW1NxtDJedkSEIHs21gJsXarJT6qWEvQQT5npxEAlaj0UsIYLixAMbr9QEIBMLQuoBtOMCpyRlMTczOlXffDRpjTlTFC08W8HvO/Vft2K61tzbVw7yXjo5JLylu760dD7ZWaVVuVjSgwTC7W+f6GQxzAdBkFiQ0Xx73EUReal6qdJ1+nNPpBpBLpGusYbiK2ljVganpOdTFZudFtIdWugaT2zw9te6k9VqM9e//z/qVUsXuf+P5olXOEEl08eNPVMVScy1nP6mbWG+EdqOSFY4Yu8PGihLknnjlaJLXMFB/rr5pYwMZZFlvktB/yiMygAGE/Rx6/zJHlgBzGgEAEMjrXCJd+EAIwNDkz4LRZph3/Lh2w9a6KIsef71yxfA7iS596XdLAQDRWPfOuze3s77S1tc/dSA+XhATKwDE6f4+6/IIB4braweTj+nEcl31Y7rq4ENExj5wtW6YWbeIEpypu9Gf+0i6QJRxsPLu0NUphpDAaN2lHs0jmTJ11qGnsmDBn4Clp7Z+JOTP+N1mfW5NIj+q5MnXS5Z5iMx8R9vwihYuTky6c088s5T5AnN36vr8QcnDCSswVn+pJ/lkpkyqqTypqVz0xzPVUNsRGnMOQ8++3taeKk2WlB9V8NCTBUEfBjuHvdlpQlgFIUx/S8e8do9cmHzw6eSDIanmmz5468r67Y2Vn/u5Pr6DwwGcFXocXEIIV+QDoH0zC8tcCQAAHe0QCCkAIFyfpGJ6eWMcZ1Qzt5a2gtCxNoEYEME7JN353JJ3fqjhy6E79dqi1IW6y9jaOFR0XFf9O68mDk9YQZGYGJifA4gOaQNGOrqsGfnFT78aMzJu8nIkUYlxtskZgKRVESdzbT2G0opIMTN5q2dF5sSJ5muDGSdSD73yatrIpAUlscmJKr5H/9WtUH8Io3KPFcYFe9OCKAEAJFc8fNwDAL6xpssdJgIAHF1mmgBM7aFF0esya5A89MqLM3qjXxil1ah5gakbtyeCq4/DjAXA1Kjem6Ute+ZxdWg3xWz7+TuTy0rQxg6sbdfb9jydf/CVV3QjU1YfT5GoSZDD9LX28V0ck9hcD46O+tv5T5UWPvX7CfqxWVtAoEpMipNxrG03W0yEAAAnLv9ghgoAAIhKDQDK7EM1MQwAgHu8+UZ/GL0pd3djR0VKQcHTL0cOT8xTyoR4j2kWFKu6ZYR4hwcnAwnaI88/opl0BjObdaiucdQTtqI2VrWl9WZX3uM5Vb/zatLwuJURx2g1Kq5z8OadXT+YSZmZp5HzCMblZcXWTYxv6G5tydq5qsP2YUNFoW24/tz1pr65zQ1kKLhlv5EHQAhJ49Cr7taaBuZ0sKlPSClNqZcnGKH3UgAAGMCP/bitvbS7hr2vd+pAfDwBAJgZWFkRASH2jrMfOIqryrI1MUoxF/x28/RoV/P126OOjYuou+96/aSuJp6jLDhQ2PLxbRsQ4ur+8gP7ZGVZrjZOKeah22aaHuxobmifXDpvYb7tF6dsJeVFWYlqmUTII4zf6zDNjPU01d0a9a7I6JSv9zdnZ3BffmKEEFwGfeeNS/WL86DhhEWIq+fLD+yTleU52jiVmE8FXFbDWG/LzcY+c9hnCwCAa+Dix+cch0rT4pQS2mebHWq5ctW85/XsdR17xq58/JnzYEVWQoRUzNv2Olg6wssB8Jr5hBBEH1flBxT57mnLCaKPn2KnCYUusWti1y668VqGGpphYXeXq/3LM4JDB4pT43RpSpO+44trzsrXli4i8IxdPf2551BFZnxyRqTfPjfc9OkVW8kP1pnUM/QOmcrVisneVXv5CHF0fP6xt3JveWaiNjOG8TiMA81N1+t6F5f+ShOysjO5y3JOVGpOFACiJ9B7ucMEiNyMLB0PjF0ds5uV9skbZ8fKDpfoosTENTfYfOPS7YViEmYsCHG3XzyvPLI3JyE9l08DAAr0F+5MMmE4IMQ/fPn0zy17K3NTUjLjwW036Ztv1Dd2GXdtcceWeiDMZO1Hp6bLqorTojVpCVx0mqfaLzfU3R53B5Obo9YVFWqWfSFPzi9IBgCAeewJp+4mhBm5cuYcqalOj9PqFGZ9+xfXnZWvata6NN85/5nw0L4sTU4Bj0MIAEw5bjeOesJU1Kaq9vZ/dfrM/L7KnGRtVhzx2Q0DTQ3X6/t3/0YHc3+3Pqc0hjJ19c1s7Xp5ydq5qsP0YRNFeUfv3gQIs+lAjh47Ho47lt0idFgdjlz4yZn2nZ0CxfLbgijvyR8cSRy//NOFYx92DeRlPfvGw5q5G//5YZN1vWZf6NyvG2+937St2aXfMrbUw9cCCvNfeuNQdM+5f/4y3MPqWL6BbHL8Dct95RtTlB8U0SfHHmRwM5+vGTX8mkAUZGUmUMx4z7IF2LuFODM7icaJnq4tbMO3PbuFq4cHC5HLpQA22zYmmlm+gbBmkuUB8c2xWw8aSVZWPMXo+3q3uWUlHJxtn/7j/b5G6LeBb4geEJU5BwriaAAAQgujknUyxniz935c1cjy4GDNJAvL/UWRnRlDmJGePvc3qaPDcn+QJ+fl5/IJADB+t8000nD5yn26rJHlgcHOTbKwsLCwsGzIri0RZGFhYWFh+fbBmkkWFhYWFpYNYc0kCwsLCwvLhrBmkoWFhYWFZUNYM8nCwsLCwrIhrJlkYdkRiNLU0qp9xcnSTW5G/Q7A6oHl2wprJr82OJF5jzz70ivPfa8gkk2F32ZiCmr2luVHgGNrp99q7lUPiHztvidffvHRirjdvb+LhWV3YCvor43EgqrshKjo+Ky9BYlbu2b5RoIISdnpcnD2bnzX43eBHemBJBcUJ8XE6Mr3sAWB5ZvIqmuZIYdDnqCpNIrwEY0Ijf7A6QBudFFZFEX9I4+y+/1/7tvQzQMAlRWvv1qhJmTgwr+c6br3az8fsD9T/T3TurwIMHX1T91zWGHJQ9uV3zPwrCrjNWmAECplRp3j8rYlWsZCV3wg8fG1VmG8iytmCFKMg+8Zk9pH+auOVkPaI9pjkMT7KEIhI5z/Qn2/Ex15e17445qE/vP/+4u+XfOTSNMq95VnJkZK+cRrN4z3N9242WNemUzChKrjx6qSxASsTR+8dWV242iSpOx0aeiOw109iQ5JxlN/fkw3cvGfzrQH1j3TfCsHD5T19IAgTCqsqsxNiVEIidtmmhm6fb2uy+xf/S1ODgzZEhOZ/qHdLAjS4ud/cCB2KRDb3Q//8/LEPSnqgakaUVL8zCuH4+frPjx1M+wT7hDTn/zh8bQ1go1devPjVhcAoO57P3w0kwOmunfevWkOXvOue+zPTmaM/voff9UVurJt48RCTDn5J49l89eP+KpaTlPz+88VSNDbd/bfv+hddlVReDKIUkr3VeZqoqQCKuAwjQ80Xb/ZZQplGBQVfv8PD8StiSZa73zw0yuT9zNdll/LDBU8+oc0YRA7A4wNSCpFHuFxMn3+v/Xj2syBQP6QS/GR+T/+r9NG/vbiHrn63ptXH0RIcg+XQMDEDRCCiFy5F4DrM4cGEpB4xBWzUvXifBJDKVy03MFXRplbhKHsiwxHbZUWWPgi6rd6BAJRlPvoCydSxR7L+HCPBSWxybrik4nRgg8+ubtwCZwgruTk8apkictk8aoUW3jI1WVliMDc2D15P68x/+azVg+IHM2hZ58pVPrnJ4Z7R/2CiKTkohNJCfKff1Q/u+paKFvb2bd2/UBW72zvnZbgDU+82IysmN32/34gzjq0N5FjuXN5m+fbmQfvttoAQBidnRFDGQY7xu0AYDKsaJEQEpGVE3Xzxjrmd6vEsgx3tLpDt55GZ2XGUIbBzvHQPcdzJlzmjzIpQex3uQKChKR46NWvDmhTGbi6h55/Mlfmt04O91kC/MjklMITCVGCU7+4s+yCRr9hoE2/8opl9+T694TvHktmklDUazTxM8zfeQP9QACABvJXfLqAS+0PBGpXfoaIR/icPAJ13sDt73YF8c2Ho/QSAL+FDwAAXo4iAH6hb+FWJTrZIokIIFL+caV9mMfQPkGmWRxB0Qkm0Ui83QIAQKLMqjIbRVGMVeyyu8Rx997VXgUiCCVCv92583uVw4HEl+7Xidyjte+dabEgQQRZ1iOvHEvdV5Fy98IQEIKx1S8/XSp1jd345Pyo9sWXijcXnk7L0vHB0Ny163fe/jaxvh5EWZX5Sma67v2Pb5mQAAAv/sCrzxaWl6c1nu19AN1fj77loj4onmJvQlaM4H4HuFOQl1KzX8e3d31xc2Jb+iFkrq22FgAwoio5I4Y/2Xqxdu1tPB6bjVJmZMdev7LOtdVbJJa582ptZ1BIZUVSZgx/vOVi7XoXMYs0SSqYu9PhKypJTIoEvWEbMkhzq3NkzMytDz6um2MIIogzjv/uifSq8uQ7vx5ebDT4ptov1o6sVcHWatoBS2YyiSYqgGZ/yEYCQADwQgAKOFQaFahdWTEqaPolChwB/88C91I/hO5cZPrOvtmqOrq/IClCAE7jaOe12oaRhQUAkdUvv1YegThw7p/OdoX6NKGxBcOt99++aUBF2e++VhW5TEGp3/uz//690G9H66f/dimUVyhxQmFFaa5GLZeI+MTnstsNE91N9XcG5wMAEL4/CILE3NKSPG20XCym/Tarcbyr+UbLiI0h4fuDmPb4X5zIoJYNR0xd+/cPm1fdEY3Aj8+rKM/VxqskfDrgnJ/T99+tu9VnCoSrbkSPtGZKLAk2AilB0bigKKQPAKfypNPXG2Ps5fCjXIRQaJNa70r8QAD4tjsM74iJS4Cr9oOFCwDIYwhwvAMqa4+QpE+Kw5RgC/FAqE4vq6oolHS//WFj0GojL6a05kCxNkpMXAZ925WrzlWLJhFEyUWV5TmaKJmI9tpNM/2NVxt6g+mIkvIXXz8QPXP1rY8abYt9Girr5Bsn01yNH7x9dZZIY2Ml4G2/3WLB4MXLYO1u6qpOLY6OjYAhIwCIRDhe//Mvb+ldEKfdKg78tKwUHk73dpqWSkHofsebpy55i2uKtZFi4jaO3b1+uX7UsViYN43FygGulKN/+ZdHQ19Z73zw0ysToN3cwWRo/EqgKdpbmZsSoxCAxzY70ll/vWlk4bJLxNijf/Bcof3mO9dw36HCRJUAHXNDd69fbB4Pns++EIsPav1lNUUaFd9nmxu5ffXq3RlvmHoApUpFgWVkKFjtAoBnvO1Wp0zrBRGADQAx4eE3ni4QL6bUyJf/cqZj+TBdGDIgpcw9WFOVHiulPUZ9W+01V9VrNbF95/75XLj3O26iqC3TYkHVYl35vopsTaSUT/nsc/qehmv1A1YMPxYAgEgl7z2UJfb0n7s+dF+uoSUTI6MpuanZ8VenJte83CqxwoSnSYwm9taBTm9KSUVCkgjnnCuqtU1liI6KJDDb1zHHhMqmo7dz4FByRkSkHIbn1zi/ZxBJTMkTj1fG0MbWzz+5ofdtre0lMznlD/yRH10rXzOAAOBZWVchkte5lATwP3w4vyMzzs986NGM1GAvRxaTXvmUgrx7qs6wu3M8nKQjzz9RIF8cKuSL5Pwk+d5EbeKv3/+0zRa+1RHnPvbCMZ2ECkWZr4wUKw8kpWmvnvrFbdPuyozCzOMvnMyULYTFkUYkZEck6DR1H51umGV2Myxvf5R5BMDN9S9OKnmpAAAXABbbRi6BvV7lNFJAyM7vlAkayNKqiiKdiuuZ62vQu0PPhbnHnqzR8T1m/cCklShyTx40mFd8yE9/+LnHcmRek36ob4wRqpNTSh9NjPnqvU9abYQQe2fXxP6YhIxMeWOTNfQNrU3X8MDSFuzn8HhcAKdjRbm32Z0AIi4v+Jf+6vuDHnd4qSlKz0rh4ERP19pSQCXseyxCMD02YBHFaDWpex8Xe3/28W3b1rEAsOl7uhgOAJEnZsXLbJNdekuo/LmmHABhOABEbsqR55/eo/Ca9MM9NkYclZxV/XSi6lfvXxjwLBOVk1RzIoI/PdpnFMRokrP2Py72v3e6dUk7JLbyRJR4ZqzfLInVJuUcfVoaeOfTdsfqyK6vB5vDDqCKVPNxLjgpQ4i59avPW2Gx7W/Td7QyPAAgKu0ejWx9JW8iAyKVcujJE/ky3/zk4IiFUuY+WmPaVn26laLCUTUvmJq++YnhXguKY1NSyx6Pjzj//tku55I2ttQkHV15eI/Mq798qdd5f/pGXNB3D6enpmclXppY09fcOrG2BhESk+Jon35syuTVOypyE5I5t7sCYcvA4XAI8biXTBAhoxf+498vbEeG8FCk5yTJeQRjcjKibugntv5gqdLzAayyT4hkH00AmQ5mWWMZsZxLVxDo9Pkv7dQ2xCcI28/9omvOL9OWHdirlVKRRdXpjZ/1Bbb+FACsXed/MckHAGn2se9lywmZuPXp9dFQ1R6wzQZ/EE12jowgugYvf3K+3eBiOIqU6idOFqh5icV5kW11hjD9gfiS/ToJAe9069VrHTN2FMXmVtXkx/ATKqpS734xwITrD4xc/Nk71wkAgObA94/q1rE7dFLl4UwZRYhttP5Kw6AxIIkv2HswK4IXU34or/10q3PtJ+vBs9fHuSmveL+B75PO10sDABhjUWU7A4PR1lEavVxCSMAkCql7ITHpeCcPAJHymUKyEZPUCbswrBgykNXlRdoIjnu2t/7czdt9Zj8JFQNVfrmW55uqP3W63sgQRE7C/ueeW96lE6Xlafm2gUsffN5uBwIAgrTjv/dIenlhbOu1aQCw93SPHUjQZGQrG+vNhAAAV5uawgNjS8/cqs46gkAiIU6bC0NxD74mXm+YNhJRlJ2dSDHjXT32tapRK22/fPfMkJcggqLgyVdrkkqK429fmdwyFoQYWi991RpcNpIVLzN2XbiwbNkIIQS2cAAAIMvfl6fwjV5650ybFQgiSDJOvHYia19x00CdaUnKCJXj3Hun+1xACEhyn37lSEpZccLd2vEF3yJUts/e/WzISxCJuuzZV/YmleyJbK9fMZK2oR6s3R3jFUd0B586gJca+2fcqwfqCZnvvlnbDYBI8mQbmsnNZBBkleVI0Xz3k/cv6/0EkZd29KVHAbaxbXNTRW2ZFgAAioKqbFlguu7U6VtGhiCCIv+JVw/rqotjuq7PhBULAARF2eGiCGbm2qU22/0aPyQUDHcMujPSs5Ivjw2vSo2tEis8ojSJQpzSjzHgH5/w52uSEknXSNgyPDjMXbd7Uypiqbm77eEtGtuwb4CIhVx6H4FBH3N72XMRRf8uh3iZwH/6AQggwrN8zjMU/sTlv77theC29su1nXMEYHbmPC/hjx/SUrzIyAjom936WwDC2GfG7QCAygQfAAC4zONj42t0H+qRuQ2TBjcDBPzzw1ff+der2/Znuu7dNxsBAh6XJwAEAOZqhWn5x1IJP0IthwFzmP4Q4nPMW4JN0cg1i/6CqDVJEkKQGblxtr7bRwDmZi54pMqH0gUglKsB1k48rKcfQsDN8/HdFAfQxPc4uEAIh+sjQPlNAr9z/cRCoV2W6aQIxRhlLvOuzrhJtfsPVRdpIziu6a4bZ+vvDlr8ZHkAdKRaCTDZfdcYGnXxj7cPmEsiIxZj5Oo482ZH8GfwiWtweAbSNQo54BQQAu7ezpGDGl16lqq+zgyIJCUthQemnu65VTHhpT78h49mkZHf/PTM8D1GR5adI4r/uQAAIABJREFUHUf5h7t61rts2T7QMeQNjR1Z2jr0h5J0ERE8nPASsnUsdgyJjYkmONTVaYWQDPa+7pGjaVmx8Tw0eheDcA22Bm0kANo6ukYPpaSp1XwYXxgOdA73LMQCDe2903tjo1VKwLkVQm6gB0IcLefPq5/4XmHJ8ZeLPJap0b7Ou82d4w7cXgQ3k0GtVtNg6Lmr9wcdePvb+m15JZJdV9TG0LHRkQTGu9oXMi1Y2jv1NRpddAwfpxfXNm6uSUX+4fIYythc22RCIARj97/xfJGv8dTbNw2bBL1dKAJD3f2urPTsZHp4aKUediWxZEmJMphpG/MQgqP6SUxPSoqGkZnlTjaRIUyEeU/897ylPxFtd07/9NLktqZywdj55Xudob/C+WR9M4mIOg7nLzjEwQR+Elhac4UAL3MpFeDHXmadOdhtY7Usjql5rVYXgBgEIuGOvV0Bjo+MejN0fGXZM6/EjU8ZTBajYW56XD9l38BGbUTAT1TZ1eW5yWq5RMTjLJtcpGl6d2UWC/kAAC7rvDeUjgQmr330zrV78Evu5QAwVi4QgogcqQ+A57du4FjglFeY+AIKvXxbi3R311kIUgoqUniD9b+61DQ8z5C1GZQn4NGEOF2upVdO16pZACQSTWZqglou4lAAAEShAiCEogAYAEL8vd3DR3TpmdmRdTcNQCVnpPDB0NJtWh1awO2we320zbXNTLBERE5GDPH2dQ+su8zb6VrW42fcDg8AT8AH8IYRi53D5/MIoCLjwJGlDREiNQHg8RdlAABwOhePAiAEZoa7+sDn4iy5WPYewONyA3A4nFVCbqYHx9BXp/6rJTUnPzNNq0ktfyi9YE/zLz+5NubdRr7aTAaxRAQwZ1vmYN5qBwjfTIarqI3hcrkUIS73sjZCMLm5XB6AJ4xYoCDjcHUiz9Z+qW7q/m69JRAY7el15GVnablDa7rcO04sgSYxCmy3xy0ABNyj4wZIik+S4vSK/vHmMoTBmpWunvHw507vlXXMJCKmcOi/4RKKCfzYwyzfjyKh6RoKZnyBX+3yJrElyG77S1zdX56VHNlfqItSJqWqkgAAABmPoffqZxc6TGE3lwTaI99/LEdG3c98vMAuKoEj9REAvy14vomXlgL4+f71OkAodMgrjUIxoI9rb1C7XbscU8Zpd0GSrrSGI2yqa+wYX706Z2uQl3z0heNFEfzVz5f99g12D7jTs9Mzo25cN6Skavkwc7vbvKb2YSZuvP1vNwAAQbRdMQAAUb0nKxK8vV0D3u2WhHBisUMIAUJota5AvTqIzUQ1dl76rBO2FZ0t9UDAaxhouTTQcpGSpFafeKSk+Ni+0bcuju7OwmYSHCpaZrVxe2q8N0Wt8mFD4cJDuadYx/cN1t4YDXt13r2DE1191oLcrFRuJ7OmRbaTxEKE5MRYgk6FrnqfFgBACQGITkjmN7avam5sKsOWrLfS9b7rbbWZRMRkDudHXMJlmH/wML0rFcQBoAjh0/QfU0u5MXFXhVzK54v/L/q/aD22WaM49U2fnWriCBVR0ZEqpSpWk5mjVaozDz9imnzvlnnr7wEQ+TnF2TKKoGeq6TdXO2ddAQCAlCOvHUi+Dw3AbRb29eGkT0ZkBDtLq5a5OpSPOtAuNV1WLBYAFNoVVSaBCNDLtzdEOud3f3Okd+Cr/3hnoLiyrCT/8At7ysY6musb28fs2ygoceUHC1Wgr//0fLN+3oewuO97uaPAcGefM3tPek7szdE0HR9me7stWxek7VavsdkZCnB1dA9uf6V3WLHYGYiA6On81b+dH14j3K5m1/D1QBj7wLXftKS8XJ6eFn9xdHRXgkdgEFds5N1mA3Pnitr4/NpwMxRN0wBEnr7v4YSFR8IYAYAvzO+3AyEw3t03X1iQldrt2rjk3VNixSYm8AjFTysrT1t4hBinSaTaB1dtkw1Lhm8Uq07hQQ2H/hGXcJnA33uZrg0yipKm9q98gvd42LFMLgcwAgAATyYTAgC4naFhNpc7uP5RoVAAWIIBq+QAAOB2rV7DEgp+PYG5QqmIS4Dx2G3mqVHL1Ch0tHTaX/y9/bF0VFw8D03LZyA29kcqkxIAQH3rtd7J0KZ7AbPRYOsm8oSDw+UBEIFQLl8Y+kGIPfjSsQwB+AcuvX11dyqZJcQ2RaVRIKQYl8DeoHbZ79cBAr75oYYLQ7frtcWVZSV5h57LLR3vvF3f2DpiYwDA6/YGEEVCIYA79IFIuDgEj8iNilQA03+nfnR+sTLk8lYdA0oIjHT32vYUpqYXclIEON3cPb9Ug3u9PgCpWLqQ6wAApBIRgNfjgXBBhOTsdBk4WjY+mE0kFAEsDG1TAjEfwOv2hB2LHeLxeBG4AgEHILzVcPfE5nqILXn8cJq79Ysv25cWk9ttTgCVULhbltphdwJIpOKl8VG5LPwRV9gNRfl8PgZRKBABLMwPBJPb5wtnzDYIIdxIXV7kyof3ayhxuqfHXFKcpeldJt8uJJZKkyiBufr3f7a4LkmY/9Ibh+ITY2FwzeaP9WQAv9+PKBAIF6OOmHz8j05mWhre/rBxZ1sqdsryU3gwiQ71I3/sZbrXa5bNBwLPuFbkp4UlPPcUOEr3HDloqguudK1MJoDonZsLVWA2/bgJ41REXfzwPsuNXiOocvYWRhKCjHFszLFyTd28DSGSQExqoc467UMAAKdx3OACAIgue+bFYjn6Z2+f/fzG6LwHubL4TI0SACDg966YmtrMn3nzPIKSkMSiI3nO9hkHEUdnlpbEMgBrTeWm8lB8qUIY+kYUVD8lVCiVfACAgHPe6kZiGB2zlyoklGbvyUp/w5DBL4ov2FccJaOBGTOHe4aVbyjSOO4R7TcIfFJLvZQBwGhzRI7LPxRtHaGBoYNxR5E9aCPRx3W2KnyMn7M4DBng+NyEEIK0jysMNfxoXrANgJTUywEAoBg7h9lOIz5oLO/Ua4uqykvyDjwTRb/5YZONkIDBYIbUmKw9Ea23jEgQqYS8NOWy71wuH1CR8TF07/T/396dB8V15HkC/+Z7ry4KqgBxC4qCoiROCSGQBDqx5EOS3bLs7p52H26rHRPbPTOO3Z6N3YndiXFM7B/dExO7sTHhmJ3Z6e6ddtuettrd6mnbsm7QCRIgIYlD3DcUN1QBRV3v5f4BSAWiUCGXrKN/n+CPoiorX2YW1O9lvnyZCgDOpaRNmfH3naHx/sZm+6bCzEJrGLfVNDv8/sGmbLZpJKzbvOlq993lBYqyDXDWD04GXwHBnLM+fH5htgD/vfr0rLRKW6eHcQ7jhpwUBsfYmIcx8GBrAcXj8QJarQ5YfpGRwAm4bWCIZ6Rk5xrv3JwLxlLctjdey9c0Hf95eU/IOpQrtoPdI8YnrCvcXNdc3jd3JipG52bFg4+ODofqks3o6IiM1Mz85JqyPi/jXJ2RlxGxTD/O6XQBxvCI+6JhsA0VuKll2+AItyRm562pm5/pOvdxTwzaglybbKzyg7+vXFyqxF0//FbBkmScs/jNrx4uSRRGaj/9bUX/w47QMjba0DS6dWtqiv8l3S/9YelNyWvgrrP5zTly2gbsKEoxRfH+JVc9li0DhoZHeFbsuty4GxXD88sLZFu0ond0JIQ3TQLgHNG5L768da0wevPE59eDub/OrzfJxHfUzAC0ceySRP/+4qSsHH0Ue+Pw/gFX7sFv3PuDkEduVLT45j+W4Zqy2+sOb4gMW1v0yp8Uzb+DyxO3L1SPLv7kfB0N7a50qy7csvP1haGrztPvfVLvA9B3s6Y397kUTVzha28X+h9csdff7lx0Fhw4H8a8zbeaSlKzIjRx+S+8lg8AcLc3dHqyrfdPOVqxPFEFr75dvOhSCIsv+s4PigBwPlbxy/evTEDuqTzXZH4l0xCRWvxKavHdlG7b1fL6mSC/Y5hP5dXMSBL4sM49o2KMqcK8gOgdWpjmygBAjJ/R6gQATOUN3zbofzLOh6KHrukBIHYyunCGsXtnQ0xwGUpdADjXOr6IfYgJ5B57x9UTHTcq0wsyFr67xm5VdRQcsGz/7lspnf0ORKakyPYRIH7uiAxd9Y2O9Rs3f/2thK6+cY8UHpeSNDUwBJiWVJyN3G4aLdoWq1cGrjU5/JuL99dcbF9/MKP0+29ZuwYmeXiiOSVa4+49fW2+P8TjcvdvSppflitOC8C87cUDbgDenuqy+nEGQLJkWrUYr2tcYRbb8Gj4C9//9lDvmE8Xl54ao5Ztl6/3z80+DrIWgK2715OVvuUbr8bMT9AfrvvixoBfQAqcwHH70u0NX9+45/vft3TZHF51ZEpqshGDF+v6QjjounI7zNRXXt/4etGm1/80ubdneErWRqeYkgyS4/aV2nHGAEhJG/esjwYAsOgYAFHZpc8lKADg6qu53BpEb8p1p6p+W1p+/tffjO3stwtRyWvd48OIXNItY8zT2T4gJ6fv+9bLqQPOuT82R0dFVbc76IYK3NSTt6405r2aU/Ldt0ydfQ5Fn5CeGq1ytl+5EfKFmaIy81KNasaT8rISK/r91sDhPHbjc7lxAHTxYYCQtHFfqQXAeMvlG/3LjN2O3mkeLt4eb2B84ZT7gR/WyjgXzKkJjPcP9PsH1eF+m6dofUqqrnLCtfQt95cBUw1XGja9lrv120dSOvsmZG2sOS1O5+k/V9Xl/1moEvP2laYtysvVV1XR4ljFH3ZU7uasxEjGjYUbEq+fXdV9kwBXA4wxqyRaFycahHL0oWcErkDwNp/5dIjv3JiyRofZ0d6Gy+cqRxZamTFP+7lffzxaUpyXnhSlV8E7PT7QXnft8q2lp2mMuRtPHdO4dhWa44zhanFJe9lvf/LhVOHWgqyUGEO4Ts0Un2dmfKinqbriWrfH/wNYOZ/ZtrMfH58pLbImRYWL3qnhjtrzFyY2vJ19f7UeUJ4gMDbbdOKj6YHirTnpSdF6jSDPOkZ7mmuvVLVMrGZtAXGNRwI8ExrGGOdeVbQPPMwb1NXYr4hnsuNqzfzoNGOzdSeOaUt3b85IslijxnvrP7/oLD5yb9cId8+Fo5+5S7dlrjWvj/VNj3RW/+78VOGPlrmoN9rcMb41JnKgecm9fIzN1H/2sad4x9bMlPTMBMU9M9ZWU32povnu1N+I5KzsTJXfRxaXkRMHcO6Wm8vqx8G5an2WRY2xxvrhlb4HBy5/2rNlb6ElTs9mR9prLp+7vhCvg6wFY666s19E7duRk7wuVyMC4NrekzcGlCASMObrLDv6m8kdxblpaZlr4Zoe7625XFnVOBays90HtgNTBsp//eHglpLN1vhUa7KKOydsdWVXK673ueY+binGUrAp1e8dRvPGfDMAwM6bggmTjCld548dZ89tX5eUbomc6K37/JKz+K3U+1NO3PjiD7rSnVmpOflqiTEAtpnrVd3uIBtqxab2tJ4+esy+szjHnJ6VxLzTo23VVy9Vtga44epLmGi905tTlCCMN7YMLXkpypK/8d7S57EZBbEA0DN+ddkwick7TYMl8Yl+X30P+rAegK01rZUwZuv3m8jFGHr7h3hmUqpJvNly33n0/WVgnvYzH//WvrM4J9WcmSD4ZsY7a8suXWlc3JeUYjIKFk+44g6lsaIl0OT95Uy2NfbmbE0Ql2nJAPV7fv+BVeQfIvOL1fGuk+8dq3skKzORP2phea/9aF9KX9nPgl6KIVhcnfXNH76YOnL5X/6tetkT2PnFyS7/4oPqRz9R/fF5YDs8FnPXw+Kbjv/vE8EuVkfIA335pce+jCfm3+tZFP9KUKsQhMrQZ/eNGj4mnGuzMpMFpa+pJdgB6uDpM7NNIu9vanxAbHjW/7SDbYevFjMaI4CpqVVcaCbkgR5vmCSP0JMTt75q4VlZawWlt6V5udtDvyTn7d/9r5Dv+fQUekLagfOonN35SSIAMFEXZ7YYlLErzUFv1UhIEChMkmdNZHZmAlO6mlpcT1JHhzwaRnPexlwNA6D4XFPjXVfLzq9ys0ZCHuDxXJskhBBCngpP8U70hBBCyKNGYZIQQggJiMIkIYQQEhCFSUIIISQgCpOEEEJIQBQmCSGEkIAoTBJCCCEBUZgkhBBCAlqyLTNyJHZYFKwC03A+xlHlk4/K/O6OHJtU4n+Xlo+s3Of7jkfxhmjxi7m10f2fUVqO/8/PW0KSeTC4lPsn7+wzM2a7/IsPqlax+jxHWFrBtsIsc0KUXgWvc8LW0Xj9Sm2vM+TLphFCCHn0/Ldlxja1+JciUzhvkJUpsAyBvayWMr2+v/FxeSH+cc57ZKXVf58ZxnaJTAR/FFtSPl04IjYeeuOF9DBhvrkkY3x6fpzZmnL2w0/rHRQpCSHkaXMvTDJBOCIyn6L8rUduBQMggv2VRsxXCbtkufzeW3idT36f34ua2ZJqr8hrZO4L3TqKUzc//3nLXNmiC1//Wr7xKw8w7GGCvmbdztL0MAZ59M6lS7cG7Dw8JX/H7sxovWX3bmvLZ63L7f1GCCHkCXYvTJpEFg3U+OZjJAAZ/KSMfEmwCnK5AgBujiGOxUOQ7EUJ4PykvLrdGDi0KblFhXnp8Ua9XvRNOcb6Gmsu13ZNKQyA4pke9wAA55Lnvh09F+cTZi4o3pJtTpzbunlisLOh+vLiQc6VjzVPn7q9dHtu6ho9nKPdt8vLpuVV1GZeYkqyhjE+eevEiVobGDA8ZJsxJr5RGKlJTolHa9+DsyCEEPIkuRcmbT75z3x8dvHLCjgA90LPqtEnv+ODfzyMEoUihkGvfHs1XUnO9bmH3thvCV8YnNRExeqjdpus6Rc+/OT6eNDxlnN9ztfeOJBxNx/RGGfeGGtKX3vqw8/uTDMW5LE4YnYePlQSJwIADAnrdhwWWgb5qrdh0mo0AGCfHLv7Xj42bgciodNqV5cXIYSQJ8C9MOkFRheHBc7ZTpGBK/XK8gGDc7ygElTgZ1fb81pbuMsSzuAZvHXhYv3QNA9LzC15bmOCJnlbScbNz9tW7D/6EdOKn8sIZ+D2jorzVV0TMKRv2b0jLSLCunt7WvOpLh7ksVTrthXGCpwrjo4rZVU9DmlNbsnODausE7ColQR1WBhmp9zzv3La2YcQQp5CAfeb5JxvUok7Gdq9yvUAaURB2MvgkeVzq+14DVa8/89VgOyedctgAEbKddaN+zOYZk2MEW0TQWaTYDKFMcaV7orj15q9DBgeOq5O/vMX0oUwkykeXYNBHis6do2aMa50Xzle3epjwPBgWXT6d4uiVlOnReK2vvlGSSxGL//649kHpyaEEPKEWj5Mcs4tkvRjic0o8nvy8nuccs63qYQo8Asyn1ltV0n2sejs7VtzzTHG8DC1JNx7uyiKwWej0agAYNZh9yzEaY/DMQvooZkb/wzuWPow7Vw+Du9CPhN2O/DwYdI145j1RmJq2oVV1IcQQsgTZpkwyTlPk8S/VjFBkX/iVgYChUAmvCQAXDm9ysk7ALTp+753KMcgfNlxSBb4wHdfCuZYK+TzkBz1x37WAIBzaVOIsyaEEPLVWRomOedmSXpXxVSK8ndupTlwNzFVEjMZOry8dZVdSc41OZuzDQLjblv1mQsNw7MyAKTtO7LbvNqsEPC2jbmXgjzWCvmsTuBsGN1WSgghT6Elq/DwVEl8V8VUivxTj9IYOGhxzvaLAPgZefXzQRFhiGAAeO+ti80Dytx8VK0SYHBSlucm9DABfOnwr9vtBQCdwagG5m5KVBsMOgDwuF3BH2tm1g2EQWcwqAAfACDKaFhlrQC43G5AgjFyDYNt7im2JjoSAGZdrtXnRwgh5DHzX4WHm8T5fuRPPMqdFYNfmCjsYJiR5YsPESVhn7BzRDGWUrAvz1k3NMP08ZlFhYkKlruOZx+fULBGZMlZW1JHWx0+BgCy0+FwKWywp9e52aBjppIDWz3VXRMwpm8pNjNw7uzuGQ7+WOMjI14eKTHT9oNF7qoeuxiVuz3XuPqq2Xr73RusauOGl/Y7Lt8csCPclL9jowGcu/t6h1bbTIQQQh47v94kE99RMwPQxrFLEnf5JZqUlaN+Q4acY6/ENODnfPwhFnFlzNt8q6kkNStCE5f/wmv5AAB3e0OnJ9uquz+x0lpbb0/fYNSZ93zdvGe+APbqj35xfhhyZ2V5u3m/RW+0bD9k2b5QPGW67UJFpwLGgjyWt/lazRZLcaxotOw8bAEAd2d7H9JTV1k1d8vl8znJL6aFxWaVHs7C3fI4Oy5ebPU8xAkFIYSQx0u0WK13f3lZEgyMrRGEdHHRTzRXTvjfyigIf6FiEYryjz4+9VC3A3rHu9rHRaNRr1VListua648frYvuiArQcWc/bdre53+iX327rZhHhEZodOo1OLcwuvugbrarhnGmGe4ucnm1ej1Oq1GYop3aqy/pabss/Nt0wsFC+ZYDM6ejiFmjI7UawV5ZrSr9tSZnpjN62IYm+6pvd3vXlqBABjcg813BryaMJ1OK4lMdk+N9zdfL/u0vGWKYiQhhDyF2PP7DzzuMjwFOGe6CGNYoLtMfc7JKbdCCwgQQsgzJ+DyAmSxiE2H3toZv3wg5ENX/uXDa/avuESEEEIePdqWmRBCCAmIBl0JIYSQgKg3SQghhAREYZIQQggJiMIkIYQQEhCFSUIIISQgCpOEEEJIQBQmCSGEkIAoTBJCCCEB/RGtwiPF5r1UumENG7tVdvrmiPLgNzwlntV6EULIk+CPqDeZkl+SnRwXvzZrR37K4y5LKD2r9SKEkCfBkm2ZkSOxw6JgFZiG8zGOKp98VOZuv0W9OefrJPF1ka0TmAZ8QuHXfconMp9+4hf+trU2DVry1mC8sdW2bAIete3tt7bFMNZ28h+ONT413bJntV6EEPIk8N+WGdvU4l+KTOG8QVamwDIE9rJayvT6/sbHZcYAcM43q1T/RQLjqJcVB1iqIOxXCwU+33/zPumR0tV14Vf/fOFxlyL0ntV6EULIk+BemGSCcERkPkX5W4/cCgZABPsrjZivEnbJcvlCojclcEX+H27lznzgxBGNdEASD/h8v3ksNSCEEEIemXth0iSyaKDGNx8jAcjgJ2XkS4JVkMsVAGACSwS65fkYCYAxnJb5AYElC0Bw43mcp73yF4ey1AMX/73TvLcogfdf+P1nvckHD+9M0Tq6Ln1+8tbEfEYcYeaC4i3Z5sQovQre6YnBzobqy7W9zoUSGrd86z/sSORKy6f/VBv5/O5NqTE6OMe6Gy6WXe1y3j2c9dUfH1wv+I0b2y7+n3+rmVmoAo/c8oMjJbF+XeGMl/7jf31p/vHMrd/947meIMvDDUVvvb09Ds7aTz7sMO3dlZMSrcPspK2l+tKFxhHf3SNCvTa3eFueJSlar2Je53h/2+3qK3U21/yZhy730JsHM8K4z3bhVx9XTc5VddN339ydpGKuzjP/eqxuirEQ1osQQkgg98KkzSf/mY/PLn5ZAQfg5vO/cs77gFiBhfm4c2EYdr3AwHn3qq95qdYVFycaRCB9z+6DfcmWaBVD7Prn9va3fnLTyRjn+pyvvXEgI1yY/6IXjXHmjbGm9LWnPvzszuIBXvX65w9lrtMCAAwJ64oPR8jv/7pqHKEcBF5NeRCRt/9QZoqKMQARMeaClxKMwgfHGqYBcK7NfOnbr2QbFvKRjAkZBfFp6Umff3Cq3cUYY7P1Z8rXJx3ICEssfj6/6Te1dhgKni9OUjHu6jx3um7qyR7cJoSQZ4losVrnHimAE8wL/9k67JtqIRX8915um/tq5nwAwm5J3AB0KNzB2F6VdERCv0/+vwp8wX59R63fkhkrhk03/+FYpTMxM9EQKbf/4Q9XZuIyk/SiztVb1TbBmJi2+5vbk1Xgjs6KU6cuXa3vdoQlmqI0mjVrNYM32icBQLs2t9AUAR6um60/c7qsoq7HZUxJNqqE8HhpsLp9cq48U31Njbdv3rxRe3PMkGeJFjDdXV034L1bWo/d1tvR1NBY34OUjFgtY/3XfvdFRUN9Q2N9Q+OdrqEptwwgmPJAsza/wKSHYNS768pPn716q9OuS0yJ0gqqqDVKW233DGOiadc3d5vUcA/Unj1ZVllV1zbgMZqSDOFxSeqe2o4pAGC+sW5HTK41WmtIip5q7I3bd7ggRoS7/eyxiwO+hWYMTb0IIYSsIOB9k5zzTSpxJ0O7V7m+8CRjrM7ne5eL/0kl/r1KdAJh4Jc8vp/LcK26izNr6+ga7JVtswVxGGzvGur2DjgL48NVkgoAkGAyhTHGle6K49eavQwYHjquTv7zF9KFMJMpHl2D93JiU/UXzjcMM2B46FRk2tvb45kmZk0EuqYBMOadsU/OAABifcuUgynTQ33TAHhUsneuZBN9PX1Le8fBl4cxaaqh7GzDEICBoRNS4g9fzlAhMi5ehWEfYs2mcMa4vaGsvHHu5GN40B1vfaPQaEhNj8XAyFwmM81ny9YnvWzVp5d87VWeoGHM2VZ+snEG94a7Q1MvQgghK1g+THLOLZL0Y4nNKPJ7ModfCFQz4aBKiAcafHInhG0i26wS65WFOT6ho9GoAGDWYfdgvovrcThmAT00Gs3itFP2iYWHdrsDiAc0Wi0w/ZjKg4nJ8bkHjPlGhkam4iMAL5MAH8K0GgDMuPl7/3nzknfpdGF3HzPmajhTbk06uD4iMQngs21lZ+44abiVEEK+WsuESc55miT+tYoJivwTtzLgf9Mk8I5GLODKTz3yTTBA/sjHjmjEH2ngcsuVIb0WyALndt9LnPPlU4bQasoD5legkWtH/+naQsJV5TPbeadndn1WGAB3T1ObEyFtYEIIIQ+2NExyzs2S9K6KqRTl79xK8+Lui1kUtzF+aj5GAoAM/v88SpFG+IaoVIb0UhdHwNC3wkuPTqjKM5eYT9T+9vc37YtfUlxT/r9qTLtK1+vmH1t37jF3nu5ebnSVEELII7NosTrOeaokvqtiKkX+qUduuG+IL1lgAKYWBwWZ81kgXghxT8cj4ebbAAACrElEQVTt9gKAzmBULzylNhh0AOBxu0J7rLvma7bc2GaoyuN0uQFAq2aTE+OTk+OTk2MT03NziRV+78Ihl0ylL+QZBebtrarscTPBuGHfHrP0kOcHK9SLEELICvxX4eEmcb4f+ROPcme5Ab4ehUNkpZJwzquMLSwvsEctJgE9oR73HOzpdW426Jip5MBWT3XXBIzpW4rNDJw7u3uGg89H0ERE6sS5x2Fz1RV0kVFRGgCQnXaHiy/U1GGf4ohlSMjYZHEMejkAOMf6RmdDWZ6R7t6Zwsgw7fo9+4dZbZ9d0cRai/dtSdbCeevYz053AwDnkqV0X56BcXm4qqziiuJJ+972BGPei6Vt/3q608NYCOtFCCFkBX6Drkx8R80MQBvHLknc5ZdoUlaOcgDokeVTkvSSSvoHUWlQ+DRYksAyBOaR5V/6eGgvncmdleXt5v0WvdGy/ZBl+9yTnCvTbRcqOpXgO0ZRBa++XRzj/wyLL/rOD4oAcD5W8cv3r9yd/uPraGh3pVt14Zadr1vmn+s8/d4n9b4QlkfurjjXlPpypiEmq/T1LCzkI082lVd2zeejTdvzfK6BgY/WnK0cVThqTt3I/F7RGkPu3udaPzjZ5QlhvQghhKzA/9okVwOMMaskWhcnGoRy1AcADPi5y9cqCfsktk4QtIAD/IpHPuZTekI9oMfYdP2nH81sLtmSnZoQpVfBNz0x2N1Yc+l698yjGTxkzN146pjGtavQHGcMV4uLjxKq8jA2e+fER9MDxVty05Oi9GrumhofbK+vuVo3ML9ig9q8d1+ukTFlovZU5aDCGAMfrDhXa/3G5ihD3r7Sll+d7PCs6ogr1YsQQsgK2PP7DzzuMhBCCCFPqD+i/SYJIYSQ1aIwSQghhAREYZIQQggJiMIkIYQQEtD/B+T5faXwnRaWAAAAAElFTkSuQmCC;" vertex="1" parent="1">
          <mxGeometry x="220" y="40" width="520" height="205" as="geometry" />
        </mxCell>
        <mxCell id="6YRYrCio8crrVP9V9YGO-32" style="orthogonalLoop=1;jettySize=auto;html=1;exitX=1;exitY=0.5;exitDx=0;exitDy=0;entryX=-0.006;entryY=0.667;entryDx=0;entryDy=0;entryPerimeter=0;strokeColor=#FF66FF;strokeWidth=2;" edge="1" parent="1" source="6YRYrCio8crrVP9V9YGO-9" target="6YRYrCio8crrVP9V9YGO-10">
          <mxGeometry relative="1" as="geometry">
            <mxPoint x="240.00000000000043" y="118.83000000000015" as="targetPoint" />
          </mxGeometry>
        </mxCell>
        <mxCell id="6YRYrCio8crrVP9V9YGO-9" value="" style="rounded=1;whiteSpace=wrap;html=1;strokeColor=#FF66FF;strokeWidth=3;fillColor=none;" vertex="1" parent="1">
          <mxGeometry x="-195.54" y="323" width="310" height="40" as="geometry" />
        </mxCell>
        <mxCell id="6YRYrCio8crrVP9V9YGO-10" value="" style="rounded=1;whiteSpace=wrap;html=1;strokeColor=#FF66FF;strokeWidth=3;fillColor=none;" vertex="1" parent="1">
          <mxGeometry x="250" y="110" width="210" height="110" as="geometry" />
        </mxCell>
        <mxCell id="6YRYrCio8crrVP9V9YGO-14" value="&lt;b&gt;给成员变量赋值&amp;nbsp; new Singleton(); &amp;lt;init&amp;gt;&lt;/b&gt;" style="rounded=1;whiteSpace=wrap;html=1;strokeWidth=1;fillColor=#f5f5f5;fontColor=#333333;strokeColor=#666666;" vertex="1" parent="1">
          <mxGeometry x="470" y="150" width="260" height="30" as="geometry" />
        </mxCell>
        <mxCell id="6YRYrCio8crrVP9V9YGO-15" value="&lt;b&gt;给静态变量赋值 INSTANCE = new Singleton()&lt;/b&gt;" style="rounded=1;whiteSpace=wrap;html=1;strokeWidth=1;fillColor=#f5f5f5;fontColor=#333333;strokeColor=#666666;" vertex="1" parent="1">
          <mxGeometry x="470" y="180" width="260" height="30" as="geometry" />
        </mxCell>
        <mxCell id="6YRYrCio8crrVP9V9YGO-21" value="&lt;b&gt;new Singleton&lt;/b&gt;" style="rounded=0;whiteSpace=wrap;html=1;strokeColor=#23445d;strokeWidth=1;fillColor=#bac8d3;" vertex="1" parent="1">
          <mxGeometry x="310" y="274" width="120" height="40" as="geometry" />
        </mxCell>
        <mxCell id="6YRYrCio8crrVP9V9YGO-22" value="&lt;b&gt;&lt;i&gt;1. 为对象分配内存地址与空间&lt;/i&gt;&lt;/b&gt;" style="text;html=1;resizable=0;autosize=1;align=center;verticalAlign=middle;points=[];fillColor=none;strokeColor=none;rounded=0;" vertex="1" parent="1">
          <mxGeometry x="440" y="284" width="170" height="20" as="geometry" />
        </mxCell>
        <mxCell id="6YRYrCio8crrVP9V9YGO-26" value="&lt;b&gt;Singleton()&lt;/b&gt;" style="rounded=0;whiteSpace=wrap;html=1;strokeColor=#23445d;strokeWidth=1;fillColor=#bac8d3;" vertex="1" parent="1">
          <mxGeometry x="310" y="314" width="120" height="40" as="geometry" />
        </mxCell>
        <mxCell id="6YRYrCio8crrVP9V9YGO-27" value="&lt;b&gt;&lt;i&gt;2. 初始化对象，给对象成员变量赋值&lt;/i&gt;&lt;/b&gt;" style="text;html=1;resizable=0;autosize=1;align=center;verticalAlign=middle;points=[];fillColor=none;strokeColor=none;rounded=0;" vertex="1" parent="1">
          <mxGeometry x="440" y="324" width="210" height="20" as="geometry" />
        </mxCell>
        <mxCell id="6YRYrCio8crrVP9V9YGO-28" value="&lt;b&gt;&lt;i&gt;INSTANCE&lt;/i&gt;&lt;br&gt;=Singleton()&lt;/b&gt;" style="rounded=0;whiteSpace=wrap;html=1;strokeColor=#23445d;strokeWidth=1;fillColor=#bac8d3;" vertex="1" parent="1">
          <mxGeometry x="310" y="354" width="120" height="40" as="geometry" />
        </mxCell>
        <mxCell id="6YRYrCio8crrVP9V9YGO-29" value="&lt;b&gt;&lt;i&gt;3. 将对象引用指向内存地址，给静态变量赋值&lt;/i&gt;&lt;/b&gt;" style="text;html=1;resizable=0;autosize=1;align=center;verticalAlign=middle;points=[];fillColor=none;strokeColor=none;rounded=0;" vertex="1" parent="1">
          <mxGeometry x="440" y="364" width="260" height="20" as="geometry" />
        </mxCell>
        <mxCell id="6YRYrCio8crrVP9V9YGO-38" value="&lt;b&gt;new Singleton&lt;/b&gt;" style="rounded=0;whiteSpace=wrap;html=1;strokeColor=#b85450;strokeWidth=1;fillColor=#f8cecc;" vertex="1" parent="1">
          <mxGeometry x="240" y="450" width="120" height="40" as="geometry" />
        </mxCell>
        <mxCell id="6YRYrCio8crrVP9V9YGO-39" value="&lt;b&gt;Singleton()&lt;/b&gt;" style="rounded=0;whiteSpace=wrap;html=1;strokeColor=#b85450;strokeWidth=1;fillColor=#f8cecc;" vertex="1" parent="1">
          <mxGeometry x="240" y="565" width="120" height="40" as="geometry" />
        </mxCell>
        <mxCell id="6YRYrCio8crrVP9V9YGO-40" value="&lt;b&gt;&lt;i&gt;INSTANCE&lt;/i&gt;&lt;br&gt;=Singleton()&lt;/b&gt;" style="rounded=0;whiteSpace=wrap;html=1;strokeColor=#b85450;strokeWidth=1;fillColor=#f8cecc;" vertex="1" parent="1">
          <mxGeometry x="240" y="490" width="120" height="40" as="geometry" />
        </mxCell>
        <mxCell id="6YRYrCio8crrVP9V9YGO-41" value="&lt;b&gt;&lt;i&gt;线程1&lt;/i&gt;&lt;/b&gt;" style="text;html=1;resizable=0;autosize=1;align=center;verticalAlign=middle;points=[];fillColor=none;strokeColor=none;rounded=0;" vertex="1" parent="1">
          <mxGeometry x="270" y="420" width="50" height="20" as="geometry" />
        </mxCell>
        <mxCell id="6YRYrCio8crrVP9V9YGO-42" value="&lt;b&gt;if (&lt;i&gt;INSTANCE&lt;/i&gt; == null)&lt;/b&gt;" style="rounded=0;whiteSpace=wrap;html=1;strokeColor=#6F0000;strokeWidth=1;fillColor=#a20025;fontColor=#ffffff;" vertex="1" parent="1">
          <mxGeometry x="440" y="450" width="140" height="40" as="geometry" />
        </mxCell>
        <mxCell id="6YRYrCio8crrVP9V9YGO-43" value="&lt;b&gt;&lt;i&gt;return INSTANCE&lt;/i&gt;&lt;br&gt;&lt;/b&gt;" style="rounded=0;whiteSpace=wrap;html=1;strokeColor=#6F0000;strokeWidth=1;fillColor=#a20025;fontColor=#ffffff;" vertex="1" parent="1">
          <mxGeometry x="440" y="490" width="140" height="40" as="geometry" />
        </mxCell>
        <mxCell id="6YRYrCio8crrVP9V9YGO-44" value="&lt;b&gt;&lt;i&gt;线程2&lt;/i&gt;&lt;/b&gt;" style="text;html=1;resizable=0;autosize=1;align=center;verticalAlign=middle;points=[];fillColor=none;strokeColor=none;rounded=0;" vertex="1" parent="1">
          <mxGeometry x="470" y="420" width="50" height="20" as="geometry" />
        </mxCell>
        <mxCell id="6YRYrCio8crrVP9V9YGO-45" value="&lt;b&gt;&lt;i&gt;线程1中出现了指令重排，限制性上面的第三步，即先将对象复制个静态变量&lt;br&gt;然后初始化对象，如果此时线程2获得了执行权，判断INSTANCE != NULL ，&lt;br&gt;就会直接返回一个没有初始化的INSTANCE&lt;br&gt;&lt;/i&gt;&lt;/b&gt;" style="text;html=1;resizable=0;autosize=1;align=left;verticalAlign=middle;points=[];fillColor=none;strokeColor=none;rounded=0;" vertex="1" parent="1">
          <mxGeometry x="380" y="555" width="420" height="50" as="geometry" />
        </mxCell>
        <mxCell id="6YRYrCio8crrVP9V9YGO-46" value="&lt;b&gt;&lt;i&gt;解决方案：&lt;br&gt;在INSTANCE的生命中加上volatile关键字，volatile可以防止指令重排序！！！&lt;br&gt;&lt;/i&gt;&lt;/b&gt;" style="text;html=1;resizable=0;autosize=1;align=left;verticalAlign=middle;points=[];fillColor=none;strokeColor=none;rounded=0;" vertex="1" parent="1">
          <mxGeometry x="-319.99999999999994" y="565" width="430" height="30" as="geometry" />
        </mxCell>
      </root>
    </mxGraphModel>
  </diagram>
</mxfile>
